<?xml version="1.0" encoding="utf-8"?>
<!-- Generator: Adobe Illustrator 19.2.1, SVG Export Plug-In . SVG Version: 6.00 Build 0)  -->
<!DOCTYPE svg PUBLIC "-//W3C//DTD SVG 1.1//EN" "http://www.w3.org/Graphics/SVG/1.1/DTD/svg11.dtd">
<svg version="1.1" id="Ebene_1" xmlns="http://www.w3.org/2000/svg" xmlns:xlink="http://www.w3.org/1999/xlink" x="0px" y="0px"
	 viewBox="0 0 500 500" style="enable-background:new 0 0 500 500;" xml:space="preserve">
<path d="M250,147c-55.6,0-101.6,46.2-101.6,102s46,102,101.6,102c21.1,0,38.3-7.7,51.8-23.1c13.4,25,38.3,38.5,70.9,38.5
	c61.3,0,107.3-50,107.3-115.5c0-127-103.5-231-230-231S20,122,20,249s103.5,231,230,231c47.9,0,93.9-15.4,132.2-42.3l-17.2-27
	c-34.5,25-72.8,36.6-115,36.6c-109.2,0-197.4-88.5-197.4-198.2S140.7,50.8,250,50.8S447.4,139.3,447.4,249
	c0,48.1-30.7,84.7-74.7,84.7c-34.5,0-49.8-17.3-49.8-53.9V224C322.8,181.7,290.2,147,250,147z M250,179.7c23,0,40.2,17.3,40.2,40.4
	V276c0,23.1-17.2,40.4-40.2,40.4c-38.3,0-69-30.8-69-69.3S211.7,179.7,250,179.7z"/>
</svg>
