<?xml version="1.0" encoding="utf-8"?>
<!-- Generator: Adobe Illustrator 19.2.1, SVG Export Plug-In . SVG Version: 6.00 Build 0)  -->
<!DOCTYPE svg PUBLIC "-//W3C//DTD SVG 1.1//EN" "http://www.w3.org/Graphics/SVG/1.1/DTD/svg11.dtd">
<svg version="1.1" id="Ebene_1" xmlns="http://www.w3.org/2000/svg" xmlns:xlink="http://www.w3.org/1999/xlink" x="0px" y="0px"
	 viewBox="0 0 500 500" style="enable-background:new 0 0 500 500;" xml:space="preserve">
<path d="M251,445.5c-13.4,0-23-9.6-23-23v-5.8h-36.4v5.8c0,32.6,26.9,57.5,59.5,57.5s59.5-24.9,59.5-57.5v-5.8h-34.5v5.8
	C275.9,437.8,262.5,445.5,251,445.5z M462,397.6c0-3.8,0-7.7,0-9.6l0,0c-3.8-32.6-23-63.2-49.9-80.5v-86.2
	c0-67.1-40.3-124.6-103.6-147.6C306.6,43,281.7,20,251,20s-55.6,23-57.5,51.8c-61.4,23-103.6,82.4-103.6,147.6v86.2
	c-28.8,19.2-46,47.9-49.9,80.5c0,1.9,0,5.7,0,9.6c0,3.8,0,5.8,0,5.8v5.7h422v-5.7C462,401.4,462,399.5,462,397.6z M228,96.7V77.5
	c0-13.4,9.6-23,23-23s23,9.6,23,23v19.2l17.3,5.8c49.9,17.2,84.4,65.2,84.4,116.9v105.4l13.4,9.6c15.3,9.6,26.9,24.9,32.6,42.2H80.3
	c5.8-17.2,17.3-32.6,32.6-42.2l13.4-9.6V219.3c0-53.7,34.5-99.7,84.4-116.9L228,96.7z"/>
</svg>
