<?xml version="1.0" encoding="UTF-8"?>
<svg viewBox="0 0 24 23" version="1.1" xmlns="http://www.w3.org/2000/svg" xmlns:xlink="http://www.w3.org/1999/xlink">
    <!-- Generator: Sketch 47.1 (45422) - http://www.bohemiancoding.com/sketch -->
    <title>Icon</title>
    <desc>Created with Sketch.</desc>
    <defs></defs>
    <g id="Mobile" stroke="none" stroke-width="1" fill="none" fill-rule="evenodd">
        <g id="07.5" transform="translate(-57.000000, -86.000000)">
            <g id="Menu" transform="translate(41.000000, 50.000000)">
                <g id="Icon" transform="translate(15.000000, 34.000000)">
                    <rect id="Rectangle-9" x="0" y="0" width="26" height="26"></rect>
                    <path d="M19.1795632,15.5339996 C19.1801632,15.5344996 19.1812632,15.5350996 19.1817632,15.5355996 L19.1795632,15.5339996 Z M23.2113445,19.2198812 C23.2113445,19.2204812 23.2118445,19.2209812 23.2118445,19.2209812 L23.2113445,19.2198812 Z M15.8432363,23.1612443 L23.1743627,23.1760699 L23.1826536,19.1973419 C23.1817809,19.1952631 23.1808536,19.1935125 23.1799809,19.1914336 L19.5212358,15.8463764 L15.8545272,19.175678 C15.8533272,19.1777568 15.8523999,19.1798357 15.8515272,19.1822428 L15.8432363,23.1612443 Z M23.7186172,23.1772734 L23.7202172,23.1772734 L23.7186172,23.1772734 Z M23.7189444,25 L23.7162717,25 L15.2945091,24.982822 C14.592891,24.9807431 14.0234911,24.4072501 14.0246911,23.7044297 L14.0341274,19.1359607 C14.0356001,18.676094 14.2639819,18.1610827 14.6029819,17.8530825 L18.6438723,14.1841053 C19.1387632,13.7346329 19.9122722,13.7364383 20.404763,14.187716 L24.4356171,17.8729958 C24.7737443,18.1815431 25.0005988,18.6980315 24.9999988,19.1581718 L24.9905625,23.7275708 C24.9896897,24.0675745 24.8565443,24.3873914 24.6157807,24.6279927 C24.3756171,24.8679921 24.0570171,25 23.7189444,25 L23.7189444,25 Z M6.15492837,15.5339996 C6.15542837,15.5344996 6.15652837,15.5350996 6.15712837,15.5355996 L6.15492837,15.5339996 Z M10.1866552,19.2198812 C10.1866552,19.2204812 10.1872552,19.2209812 10.1872552,19.2209812 L10.1866552,19.2198812 Z M2.8186015,23.1612443 L10.1497279,23.1760699 L10.1580188,19.1973419 C10.1570915,19.1952631 10.1562188,19.1935125 10.1553461,19.1914336 L6.49660106,15.8463764 L2.82983787,19.175678 C2.82863787,19.1777568 2.82776514,19.1798357 2.82689241,19.1822428 L2.8186015,23.1612443 Z M10.6939824,23.1772734 L10.6955824,23.1772734 L10.6939824,23.1772734 Z M10.6942551,25 L10.6916369,25 L2.2698743,24.982822 C1.5682562,24.9807431 0.998856271,24.4072501 1.00000173,23.7044297 L1.00949263,19.1359607 C1.01096536,18.676094 1.23934715,18.1610827 1.57834711,17.8530825 L5.61923753,14.1841053 C6.1144011,13.7346329 6.8879101,13.7364383 7.38012822,14.187716 L11.4109823,17.8729958 C11.749055,18.1815431 11.975964,18.6980315 11.975364,19.1581718 L11.9659277,23.7275708 C11.9650004,24.0675745 11.8319095,24.3873914 11.5911459,24.6279927 C11.3509277,24.8679921 11.0323823,25 10.6942551,25 L10.6942551,25 Z M12.8186912,3.68594872 C12.8192912,3.68654872 12.8202912,3.68704872 12.8208912,3.68764872 L12.8186912,3.68594872 Z M16.8504725,7.371885 C16.8504725,7.372385 16.8509725,7.372885 16.8509725,7.372885 L16.8504725,7.371885 Z M9.48236433,11.3131934 L16.8134907,11.328019 L16.8217271,7.34934574 C16.8208544,7.34726687 16.8199816,7.34546154 16.8191089,7.34338268 L13.1603639,3.99838018 L9.49360069,7.32768178 C9.49245524,7.32976064 9.49152797,7.33183951 9.49065524,7.33419191 L9.48236433,11.3131934 Z M17.3577452,11.3292225 L17.3593452,11.3292225 L17.3577452,11.3292225 Z M17.3580179,13.1520038 L17.3553997,13.1520038 L8.93369167,13.1347711 C8.23201903,13.1326922 7.6626191,12.5592539 7.6638191,11.8564335 L7.67325546,7.28790982 C7.67472819,6.82804309 7.90310998,6.31303175 8.24210994,6.00508626 L12.2830004,2.33610914 C12.7781639,1.8863632 13.5516729,1.88838736 14.0438911,2.33966509 L18.0747451,6.02494489 C18.4128723,6.33349216 18.6397269,6.85003529 18.6391269,7.31017555 L18.6296905,11.8795746 C18.6288178,12.2195236 18.4956723,12.5393405 18.2549087,12.7799417 C18.0147451,13.0199959 17.6961452,13.1520038 17.3580179,13.1520038 L17.3580179,13.1520038 Z" id="Fill-1" fill="#000000"></path>
                </g>
            </g>
        </g>
    </g>
</svg>
