<?xml version="1.0" encoding="UTF-8"?>
<svg viewBox="0 0 25 25" version="1.1" xmlns="http://www.w3.org/2000/svg" xmlns:xlink="http://www.w3.org/1999/xlink">
    <!-- Generator: Sketch 47.1 (45422) - http://www.bohemiancoding.com/sketch -->
    <title>Icon</title>
    <desc>Created with Sketch.</desc>
    <defs></defs>
    <g id="Mobile" stroke="none" stroke-width="1" fill="none" fill-rule="evenodd">
        <g id="05.5" transform="translate(-57.000000, -133.000000)">
            <g id="Menu" transform="translate(41.000000, 50.000000)">
                <g id="Add-Org" transform="translate(15.000000, 82.000000)">
                    <g id="Icon">
                        <rect id="Rectangle-9" x="0" y="0" width="26" height="26"></rect>
                        <path d="M23.2025894,20.0086919 C23.2025894,20.0091919 23.2030894,20.0097919 23.2030894,20.0097919 L23.2025894,20.0086919 Z M15.5426564,24.0940046 L23.1641429,24.1094286 L23.1727622,19.9853291 C23.1718549,19.9831743 23.1708909,19.981303 23.1699836,19.9791481 L19.3663285,16.5119286 L15.5543945,19.9628736 C15.5531469,19.9650284 15.5522397,19.9671832 15.5512757,19.9696216 L15.5426564,24.0940046 Z M17.4917482,24.1106194 L17.4933482,24.1106194 L17.4917482,24.1106194 Z M23.7302936,26 L23.727515,26 L14.9722527,25.9821944 C14.242846,25.9800396 13.6508374,25.3855926 13.652085,24.6570932 L13.6618951,19.9216485 C13.6634828,19.4450362 13.9008533,18.9111511 14.2532799,18.5919541 L18.4542724,14.7889229 C18.9690477,14.3227445 19.773136,14.3248993 20.2848491,14.7926087 L24.4754078,18.612595 C24.8268704,18.9324158 25.0627098,19.4677752 25.062086,19.9447277 L25.0523326,24.6810798 C25.0513687,25.0335063 24.9130065,25.3650084 24.6626504,25.6144006 C24.4129747,25.8631689 24.0817562,26 23.7302936,26 L23.7302936,26 Z M23.2025894,6.56816945 C23.2025894,6.56866945 23.2030894,6.56926945 23.2030894,6.56926945 L23.2025894,6.56816945 Z M15.5426564,10.6534822 L23.1641429,10.6688495 L23.1727622,6.54480666 C23.1718549,6.54265184 23.1708909,6.54078054 23.1699836,6.53862572 L19.3663285,3.07140621 L15.5543945,6.52235116 C15.5531469,6.52450598 15.5522397,6.5266608 15.5512757,6.52909915 L15.5426564,10.6534822 Z M17.4917482,10.670097 L17.4933482,10.670097 L17.4917482,10.670097 Z M23.7302936,12.5594776 L23.727515,12.5594776 L14.9722527,12.5416153 C14.242846,12.5394604 13.6508374,11.9450702 13.652085,11.2165708 L13.6618951,6.48112604 C13.6634828,6.00445708 13.9008533,5.47062866 14.2532799,5.15143171 L18.4542724,1.34840044 C18.9690477,0.882222051 19.773136,0.884376871 20.2848491,1.35208632 L24.4754078,5.17201591 C24.8268704,5.49183663 25.0627098,6.02725281 25.062086,6.5042053 L25.0523326,11.2405573 C25.0513687,11.5929272 24.9130065,11.9244293 24.6626504,12.1738214 C24.4129747,12.4226465 24.0817562,12.5594776 23.7302936,12.5594776 L23.7302936,12.5594776 Z M7.88306356,19.1161426 L5.36957893,19.1161426 L5.36957893,14.806445 L1,14.806445 L1,12.3347525 L5.36957893,12.3347525 L5.36957893,8.11073736 L7.88306356,8.11073736 L7.88306356,12.3347525 L12.2526425,12.3347525 L12.2526425,14.8724505 L7.88306356,14.8724505 L7.88306356,19.1161426 Z" id="Page-1" fill="black"></path>
                    </g>
                </g>
            </g>
        </g>
    </g>
</svg>
