<svg id="Layer_1" data-name="Layer 1" xmlns="http://www.w3.org/2000/svg" viewBox="0 0 28 26"><title>Artboard 1</title><path d="M4,13.5v9a1,1,0,0,0,1,1H6v-5a3,3,0,0,1,3-3h2a3,3,0,0,1,3,3v5h9a1,1,0,0,0,1-1v-9Zm5.82-11-1.64,9H13v-9Zm-2,0H5.33L2.58,10.12A1,1,0,0,0,3.5,11.5H6.18ZM15,2.5v9h4.82l-1.64-9Zm5.18,0,1.64,9H24.5a1,1,0,0,0,.38-.08,1,1,0,0,0,.54-1.3L22.67,2.5ZM26,13.1v9.4a3,3,0,0,1-3,3H12v-7a1,1,0,0,0-1-1H9a1,1,0,0,0-1,1v7H5a3,3,0,0,1-3-3V13.1A3,3,0,0,1,.73,9.35L4,.5H24l3.27,8.85A3,3,0,0,1,26,13.1Zm-8,4.4h2v2H18Zm-1-2a1,1,0,0,0-1,1v4a1,1,0,0,0,1,1h4a1,1,0,0,0,1-1v-4a1,1,0,0,0-1-1Z"/></svg>