<svg id="Ebene_1" data-name="Ebene 1" xmlns="http://www.w3.org/2000/svg" viewBox="0 0 500 500"><title>Zeichenfläche 1 Kopie 19</title><g id="Icons"><g id="Scaling"><g id="M-Icons"><g id="_2px" data-name="2px"><g id="Camera-2"><path id="Combined-Shape" d="M194.66,102.67l-38.33,76.66H75.14A19.17,19.17,0,0,0,56,198.5V390.17a19.16,19.16,0,0,0,19.17,19.16h345a19.16,19.16,0,0,0,19.16-19.16V198.5a19.16,19.16,0,0,0-19.16-19.17H339l-38.34-76.66Zm-62,38.33,33-66.07a19.19,19.19,0,0,1,17.15-10.6H312.46a19.18,19.18,0,0,1,17.14,10.6l33,66.07h57.5a57.5,57.5,0,0,1,57.5,57.5V390.17a57.51,57.51,0,0,1-57.5,57.5h-345a57.5,57.5,0,0,1-57.5-57.5V198.5A57.5,57.5,0,0,1,75.14,141Zm115,249.17a115,115,0,1,0-115-115A115,115,0,0,0,247.64,390.17Zm0-38.34a76.67,76.67,0,1,1,76.66-76.66A76.67,76.67,0,0,1,247.64,351.83ZM401,236.83a19.17,19.17,0,1,0-19.17-19.16A19.16,19.16,0,0,0,401,236.83Z"/></g></g></g></g></g></svg>