<svg id="Ebene_1" data-name="Ebene 1" xmlns="http://www.w3.org/2000/svg" viewBox="0 0 500 500"><title>Artboard 13</title><path d="M423.57,78.55H133.63a46,46,0,0,0-46,46v19h-6a46,46,0,0,0-46,46V375.46a46,46,0,0,0,46,46H371.53a46,46,0,0,0,46-46v-19h6a46,46,0,0,0,46-46V124.55A46,46,0,0,0,423.57,78.55Zm-36.7,296.91a15.34,15.34,0,0,1-15.34,15.33H81.59a15.34,15.34,0,0,1-15.33-15.33V189.6a15.34,15.34,0,0,1,15.33-15.34H371.53a15.34,15.34,0,0,1,15.34,15.34Zm52-65a15.34,15.34,0,0,1-15.34,15.33h-6V189.6a46,46,0,0,0-46-46H118.3v-19a15.34,15.34,0,0,1,15.33-15.34H423.57a15.34,15.34,0,0,1,15.34,15.34Zm-153.8-27.88a13,13,0,0,1-13,13H239.57v32.52a13,13,0,0,1-26,0V295.54H181a13,13,0,1,1,0-26h32.52V237a13,13,0,1,1,26,0v32.53H272.1A13,13,0,0,1,285.11,282.53Z"/></svg>