<?xml version="1.0" encoding="utf-8"?>
<!-- Generator: Adobe Illustrator 19.2.1, SVG Export Plug-In . SVG Version: 6.00 Build 0)  -->
<!DOCTYPE svg PUBLIC "-//W3C//DTD SVG 1.1//EN" "http://www.w3.org/Graphics/SVG/1.1/DTD/svg11.dtd">
<svg version="1.1" id="Ebene_1" xmlns="http://www.w3.org/2000/svg" xmlns:xlink="http://www.w3.org/1999/xlink" x="0px" y="0px"
	 viewBox="0 0 500 500" style="enable-background:new 0 0 500 500;" xml:space="preserve">
<path d="M106.6,355.4l-12.7,12.7C85,357.2,80,345,80,332.1c0-7.2,1.7-14.1,4.6-20.7c4.2,4.5,9.1,8.7,14.4,12.8
	c-0.7,2.6-1.1,5.3-1.1,8C97.9,340.3,101.1,348.1,106.6,355.4z M250,421.6c95.3,0,170-39.3,170-89.5c0-7.2-1.7-14.1-4.6-20.7
	c-4.2,4.5-9.1,8.7-14.4,12.8c0.7,2.6,1.1,5.3,1.1,8c0,38.8-69.7,71.6-152.1,71.6c-37.1,0-71.5-6.7-98.3-17.5L138,400
	C167.8,413.4,206.7,421.6,250,421.6z M97.9,251.6c0-2.7,0.4-5.3,1.1-8c-5.3-4-10.2-8.3-14.4-12.8c-2.9,6.6-4.6,13.6-4.6,20.7
	c0,28.2,23.6,53,61.2,69.2L155,307C120.4,293.8,97.9,273.7,97.9,251.6z M250,341.1c95.3,0,170-39.3,170-89.5
	c0-7.2-1.7-14.1-4.6-20.7c-4.2,4.5-9.1,8.7-14.4,12.8c0.7,2.6,1.1,5.3,1.1,8c0,38.8-69.7,71.6-152.1,71.6c-11.4,0-22.6-0.7-33.4-1.9
	l-16,16C216.2,339.8,232.7,341.1,250,341.1z M402.1,167.9c0,30-41.7,56.3-98.8,66.8l-21.1,21.1C361.6,248,420,212.2,420,167.9
	c0-12.9-5-25-13.9-36l-12.7,12.7C398.9,151.9,402.1,159.7,402.1,167.9z M97.9,167.9c0-38.8,69.7-71.6,152.1-71.6
	c37.1,0,71.5,6.7,98.3,17.5l13.7-13.7c-29.8-13.5-68.7-21.7-112-21.7c-95.3,0-170,39.3-170,89.5c0,42.4,53.4,77,127.5,86.7
	l16.3-16.3C153.3,232.2,97.9,202.5,97.9,167.9z M480,32.7L467.3,20L20,467.3L32.7,480L480,32.7z"/>
</svg>
