<?xml version="1.0" encoding="utf-8"?>
<!-- Generator: Adobe Illustrator 19.2.1, SVG Export Plug-In . SVG Version: 6.00 Build 0)  -->
<!DOCTYPE svg PUBLIC "-//W3C//DTD SVG 1.1//EN" "http://www.w3.org/Graphics/SVG/1.1/DTD/svg11.dtd">
<svg version="1.1" id="Ebene_1" xmlns="http://www.w3.org/2000/svg" xmlns:xlink="http://www.w3.org/1999/xlink" x="0px" y="0px"
	 viewBox="0 0 500 500" style="enable-background:new 0 0 500 500;" xml:space="preserve">
<path d="M303.7,250L468.5,85.2c15.3-15.3,15.3-38.3,0-53.7s-38.3-15.3-53.7,0L250,196.3L85.2,31.5c-15.3-15.3-38.3-15.3-53.7,0
	s-15.3,38.3,0,53.7L196.3,250L31.5,414.8c-15.3,15.3-15.3,38.3,0,53.7s38.3,15.3,53.7,0L250,303.7l164.8,164.8
	c15.3,15.3,38.3,15.3,53.7,0c15.3-15.3,15.3-38.3,0-53.7L303.7,250z"/>
</svg>
