<svg id="Layer_1" data-name="Layer 1" xmlns="http://www.w3.org/2000/svg" width="28" height="28" viewBox="0 0 28 28"><path id="_28x28-a" data-name="28x28-a" d="M10,22a4,4,0,0,1-8,0H1a1,1,0,0,1-1-1V4A1,1,0,0,1,1,3H17a1,1,0,0,1,1,1V9h3.4384a2,2,0,0,1,1.94,1.5149L24,13h2a2,2,0,0,1,2,2v5a2,2,0,0,1-1.8507,1.9945L26,22a4,4,0,0,1-8,0ZM6,20a2,2,0,1,0,2,2A2,2,0,0,0,6,20Zm16,0a2,2,0,1,0,2,2A2,2,0,0,0,22,20Zm-6-4H2v4h.5352l-.0122.0211.0924-.1537a4.0011,4.0011,0,0,1,6.7692,0l.0914.1537L9.4648,20H16Zm5.4384-5H18v9h.5352l-.0122.0211.0924-.1537a4.0011,4.0011,0,0,1,6.7692,0l.0914.1537L25.4648,20H26V15H22.4384ZM16,5H2v9H16Z" fill="#393939"/></svg>