<svg id="Ebene_1" data-name="Ebene 1" xmlns="http://www.w3.org/2000/svg" viewBox="0 0 500 500"><title>download</title><path d="M230.81,64h27.59V274l42.11-39.37,18.88,20.41-74.05,67.07-74.05-68.53,18.88-20.41,40.66,37.91ZM421,357.12C421,389.2,397.79,414,367.3,414H124.81c-29,0-53.73-24.79-53.73-55.41V224.43c0-30.62,23.23-55.41,53.73-55.41h65.34v27.7H123.35c-14.52,0-26.14,13.12-26.14,27.7V357.12c0,16,11.62,27.7,26.14,27.7H367.3c14.52,1.46,26.14-11.66,26.14-27.7V224.43c0-16-11.62-27.7-26.14-27.7H300.5V169H367.3c29,0,53.73,24.79,53.73,55.41Z"/></svg>