<?xml version="1.0" encoding="utf-8"?>
<!-- Generator: Adobe Illustrator 19.2.1, SVG Export Plug-In . SVG Version: 6.00 Build 0)  -->
<!DOCTYPE svg PUBLIC "-//W3C//DTD SVG 1.1//EN" "http://www.w3.org/Graphics/SVG/1.1/DTD/svg11.dtd">
<svg version="1.1" id="Ebene_1" xmlns="http://www.w3.org/2000/svg" xmlns:xlink="http://www.w3.org/1999/xlink" x="0px" y="0px"
	 viewBox="0 0 500 500" style="enable-background:new 0 0 500 500;" xml:space="preserve">
<path d="M480,169.5l-47.9-49.8L286.4,263.4l-51.8-49.8L382.2,69.8L330.5,20H480V169.5z M411,236.6v139.9c0,19.2-15.3,34.5-34.5,34.5
	H127.3c-21.1,0-40.2-15.3-40.2-34.5v-253c0-19.2,21.1-34.5,40.2-34.5h149.5V20H127.3C67.9,20,20,66,20,123.5v254.9
	C20,434,67.9,480,127.3,480h249.2c59.4,0,101.6-46,101.6-103.5V236.6H411z"/>
</svg>
