<?xml version="1.0" encoding="utf-8"?>
<!-- Generator: Adobe Illustrator 19.2.1, SVG Export Plug-In . SVG Version: 6.00 Build 0)  -->
<!DOCTYPE svg PUBLIC "-//W3C//DTD SVG 1.1//EN" "http://www.w3.org/Graphics/SVG/1.1/DTD/svg11.dtd">
<svg version="1.1" id="Ebene_1" xmlns="http://www.w3.org/2000/svg" xmlns:xlink="http://www.w3.org/1999/xlink" x="0px" y="0px"
	 viewBox="0 0 500 500" style="enable-background:new 0 0 500 500;" xml:space="preserve">
<path d="M476.2,250.1C432.1,165.8,343.9,114,250,114S69.8,165.8,23.8,250.1l-3.8,7.7l3.8,7.7C67.9,347.8,156.1,399.6,250,399.6
	s182.1-51.8,226.2-134.2l3.8-7.7L476.2,250.1z M250,368.9c-80.5,0-155.2-42.2-195.5-111.2c40.2-70.9,115-113.1,195.5-113.1
	s155.2,42.2,195.5,113.1C405.2,326.8,330.5,368.9,250,368.9z M250,161.9c-51.8,0-92,42.2-92,92s42.2,92,92,92s92-42.2,92-92
	S301.8,161.9,250,161.9z M250,315.2c-34.5,0-63.2-28.8-63.2-63.2s28.8-61.3,63.2-61.3s63.2,28.8,63.2,63.2S284.5,315.2,250,315.2z"
	/>
</svg>
