<?xml version="1.0" encoding="utf-8"?>
<!-- Generator: Adobe Illustrator 19.2.1, SVG Export Plug-In . SVG Version: 6.00 Build 0)  -->
<!DOCTYPE svg PUBLIC "-//W3C//DTD SVG 1.1//EN" "http://www.w3.org/Graphics/SVG/1.1/DTD/svg11.dtd">
<svg version="1.1" id="Ebene_1" xmlns="http://www.w3.org/2000/svg" xmlns:xlink="http://www.w3.org/1999/xlink" x="0px" y="0px"
	 viewBox="0 0 500 500" style="enable-background:new 0 0 500 500;" xml:space="preserve">
<path d="M476.2,249.8c-23-42.2-55.6-76.7-95.8-99.7l57.5-57.5c7.7-7.7,7.7-17.2,0-24.9s-17.2-7.7-24.9,0l-65.2,65.2
	c-30.7-13.4-63.2-19.2-97.8-19.2c-93.9,0-180.2,51.7-226.2,136.1l-3.8,7.7l3.8,7.7c21.1,40.2,53.7,74.8,93.9,97.8L64,414.8
	c-7.7,7.7-7.7,17.2,0,24.9c7.7,7.7,21.1,3.8,24.9,0l61.3-61.3c30.7,13.4,65.2,21.1,99.7,21.1c93.9,0,182.1-51.8,226.2-134.2l3.8-7.7
	L476.2,249.8z M54.5,257.5c40.2-70.9,115-113.1,195.5-113.1c24.9,0,49.8,3.8,72.8,13.4l-21.1,21.1c-13.4-11.5-32.6-17.3-51.7-17.3
	c-51.8,0-92,42.2-92,92c0,19.2,5.8,36.4,15.3,51.7l-34.5,34.5C104.3,320.7,75.6,292,54.5,257.5z M313.2,253.6
	c0,34.5-28.8,61.3-63.3,61.3c-9.6,0-19.2-1.9-28.8-7.7l84.3-84.3C309.4,232.5,313.2,242.1,313.2,253.6z M186.8,251.7
	c0-34.5,28.8-61.3,63.2-61.3c11.5,0,21.1,3.8,30.7,7.7l-84.3,84.3C190.6,274.7,186.8,263.2,186.8,251.7z M250,368.6
	c-26.8,0-51.8-5.8-76.7-13.4l24.9-24.9c15.3,9.6,32.6,15.3,49.8,15.3c49.8,0,92-42.2,92-92c0-19.2-5.7-36.4-15.3-49.8l30.7-30.7
	c36.4,19.2,67.1,47.9,88.2,86.2C405.2,326.5,330.5,368.6,250,368.6z"/>
</svg>
