<svg xmlns="http://www.w3.org/2000/svg" viewBox="0 0 500 500"><title>Asset 6</title><g id="Layer_2" data-name="Layer 2"><g id="Ebene_1" data-name="Ebene 1"><g id="Green-Screen-Elements"><g id="Facebook"><g id="F_icon" data-name="F icon"><path id="Combined-Shape" d="M-5951.59-5896.58v-193.63h65l9.73-75.46h-74.73v-48.17c0-21.85,6.07-36.74,37.4-36.74l40,0v-67.49c-6.91-.92-30.63-3-58.23-3-57.61,0-97.05,35.16-97.05,99.74v55.65h-65.16v75.46h65.16v193.63H-6269a27.6,27.6,0,0,1-27.6-27.6V-6369a27.59,27.59,0,0,1,27.6-27.6h444.81a27.59,27.59,0,0,1,27.59,27.6v444.8a27.6,27.6,0,0,1-27.59,27.6Z" transform="translate(6296.58 6396.58)"/></g></g></g></g></g></svg>