<?xml version="1.0" encoding="utf-8"?>
<!-- Generator: Adobe Illustrator 19.2.1, SVG Export Plug-In . SVG Version: 6.00 Build 0)  -->
<!DOCTYPE svg PUBLIC "-//W3C//DTD SVG 1.1//EN" "http://www.w3.org/Graphics/SVG/1.1/DTD/svg11.dtd">
<svg version="1.1" id="Ebene_1" xmlns="http://www.w3.org/2000/svg" xmlns:xlink="http://www.w3.org/1999/xlink" x="0px" y="0px"
	 viewBox="0 0 500 500" style="enable-background:new 0 0 500 500;" xml:space="preserve">
<path d="M307.5,450h-115c-15.9,0-28.7-13-28.7-29V300.6L24.8,89c-5.8-8.9-6.4-20.3-1.3-29.7c5-9.4,14.7-15.3,25.3-15.3h402.5
	c10.6,0,20.3,5.9,25.3,15.3s4.5,20.8-1.3,29.7l-139,211.5V421C336.2,437,323.4,450,307.5,450z M221.3,392h57.5V291.8
	c0-5.7,1.7-11.3,4.8-16L397.7,102H102.3l114.2,173.8c3.1,4.7,4.8,10.3,4.8,16V392z"/>
</svg>
