<svg id="Layer_1" data-name="Layer 1" xmlns="http://www.w3.org/2000/svg" width="28" height="28" viewBox="0 0 28 28">
  <path id="_28x28-a" data-name="28x28-a"
        d="M25,4a3,3,0,0,1,3,3V21a3,3,0,0,1-3,3H3a3,3,0,0,1-3-3V7A3,3,0,0,1,3,4ZM17,16H2v5a1,1,0,0,0,.8834.9933L3,22H17Zm9,0H19v6h6a1,1,0,0,0,.9933-.8834L26,21ZM11,18a1,1,0,0,1,0,2H5a1,1,0,0,1,0-2ZM17,6H3a1,1,0,0,0-.9933.8834L2,7v7H14.502l-1.0982-.3132A3.3143,3.3143,0,0,1,11,10.5,2.5,2.5,0,0,1,13.5,8a3.3143,3.3143,0,0,1,3.1868,2.4038L17,11.502Zm8,0H19v5.499l.3132-1.0952a3.3143,3.3143,0,0,1,2.9949-2.3983L22.5,8A2.5,2.5,0,0,1,25,10.5a3.3145,3.3145,0,0,1-2.2208,3.1288l-.183.058L21.498,14H26V7a1,1,0,0,0-.8834-.9933Zm-2.5,4-.134.0068a1.3148,1.3148,0,0,0-1.0864.8195l-.0434.127L20.913,12.087l1.1337-.3232.1271-.0434A1.3145,1.3145,0,0,0,23,10.5.5.5,0,0,0,22.5,10Zm-9,0a.5.5,0,0,0-.5.5,1.3144,1.3144,0,0,0,.8263,1.22l.127.0434,1.1337.3232-.3232-1.1337a1.3146,1.3146,0,0,0-1.13-.9465Z"
        fill="#393939"/>
</svg>
