<svg id="Layer_1" data-name="Layer 1" xmlns="http://www.w3.org/2000/svg" viewBox="0 0 20 20"><title>globe_20x20</title><path id="_20x20-a" data-name="20x20-a" d="M6.07,9H9V3.41A10.84,10.84,0,0,0,6.07,9Zm0,2A10.84,10.84,0,0,0,9,16.59V11Zm7.86-2A10.84,10.84,0,0,0,11,3.41V9Zm0,2H11v5.59A10.84,10.84,0,0,0,13.93,11ZM2.06,11a8,8,0,0,0,5,6.46,12.21,12.21,0,0,1-3-6.46Zm0-2h2A12.21,12.21,0,0,1,7.1,2.54,8,8,0,0,0,2.06,9ZM17.94,9a8,8,0,0,0-5-6.46A12.21,12.21,0,0,1,16,9Zm0,2H16a12.21,12.21,0,0,1-3,6.46A8,8,0,0,0,17.94,11ZM10,20A10,10,0,1,1,20,10,10,10,0,0,1,10,20Z" transform="translate(0 0)"/></svg>