<?xml version="1.0" encoding="utf-8"?>
<!-- Generator: Adobe Illustrator 19.2.1, SVG Export Plug-In . SVG Version: 6.00 Build 0)  -->
<!DOCTYPE svg PUBLIC "-//W3C//DTD SVG 1.1//EN" "http://www.w3.org/Graphics/SVG/1.1/DTD/svg11.dtd">
<svg version="1.1" id="Ebene_1" xmlns="http://www.w3.org/2000/svg" xmlns:xlink="http://www.w3.org/1999/xlink" x="0px" y="0px"
	 viewBox="0 0 500 500" style="enable-background:new 0 0 500 500;" xml:space="preserve">
<path id="XMLID_572_" d="M250,462c-1.2,0-2.5-0.3-3.7-0.8C105.6,399.9,21.2,294.8,20.2,179.7c-0.2-0.6-0.2-1.3-0.2-2
	C20,100.7,81.3,38,156.6,38c34.7,0,68,13.7,93.7,38.7c24.2-23.9,57.5-37,93-37c77.9,0,136.6,61.2,136.6,142.2c0,0.7-0.1,1.4-0.2,2.1
	c-1.1,109.2-89.6,217.8-226.1,277.2C252.5,461.7,251.2,462,250,462z M38.4,175.7c0.1,0.6,0.2,1.3,0.2,1.9
	c0,107.4,78.9,206.2,211.4,265.1c128.5-57.2,211.4-159.2,211.4-260.8c0-0.7,0.1-1.3,0.2-2c-0.9-69.6-51.5-121.8-118.2-121.8
	c-30.8,0-59.5,11.3-81,31.9c-7,6.7-17.9,6.6-24.8-0.1c-22.3-21.6-51-33.5-80.9-33.5C92.1,56.4,39.5,109.8,38.4,175.7z M332.8,333
	h-60.2c-5.1,0-13.6-1.8-13.6-6.9V268h-18v58.1c0,5.1-8.5,6.9-13.6,6.9h-60.2c-5.1,0-9.2-1.8-9.2-6.9V218.2c0-7.7,4.2-14.9,11-18.7
	c10.1-5.6,31.4-20.7,61.1-51c5.3-5.4,12.3-9.4,19.8-9.4h0.1c7.5,0,14.6,4.1,19.9,9.5c29.4,30.4,50.8,44.8,61,50.4
	c6.9,3.8,11.1,11.5,11.1,19.3v107.9C342,331.2,337.9,333,332.8,333z M278,315h46v-96.8c0-1.1-0.8-2.1-1.8-2.6
	c-11.1-6.1-34.4-22.4-65.5-54.5c-1.8-1.8-4.3-4.1-6.8-4.1l0,0c-2.5,0-4.9,2.3-6.7,4.1c-31.3,32-54.5,47.7-65.4,53.8
	c-1,0.6-1.8,2.2-1.8,3.2V315h46v-52.5c0-5.1,0.3-13.5,5.4-13.5h45.2c5.1,0,5.4,8.4,5.4,13.5V315z"/>
</svg>
