<?xml version="1.0" encoding="utf-8"?>
<!-- Generator: Adobe Illustrator 19.2.1, SVG Export Plug-In . SVG Version: 6.00 Build 0)  -->
<!DOCTYPE svg PUBLIC "-//W3C//DTD SVG 1.1//EN" "http://www.w3.org/Graphics/SVG/1.1/DTD/svg11.dtd">
<svg version="1.1" id="Ebene_1" xmlns="http://www.w3.org/2000/svg" xmlns:xlink="http://www.w3.org/1999/xlink" x="0px" y="0px"
	 viewBox="0 0 500 500" style="enable-background:new 0 0 500 500;" xml:space="preserve">
<path d="M412.8,89c-42.2-44.1-101.6-69-162.9-69C123.5,20,20,123.5,20,250s103.5,230,229.9,230s229.9-103.5,229.9-230
	C481.8,190.6,456.9,131.2,412.8,89z M255.7,167.6c30.7,0,55.6,24.9,55.6,55.6s-24.9,55.6-55.6,55.6s-55.6-24.9-55.6-55.6
	S225,167.6,255.7,167.6z M219.3,299.8c11.5,5.7,23,7.7,36.4,7.7c11.5,0,21.1-1.9,30.7-5.8c26.8,15.3,51.7,61.3,63.2,120.8
	c-30.7,19.2-65.2,28.8-99.6,28.8s-69-9.6-99.6-28.8C163.7,363.1,190.5,315.2,219.3,299.8z M315.1,286.4
	c17.2-17.2,28.7-40.2,28.7-63.2c0-47.9-38.3-88.2-88.1-88.2s-88.1,38.3-88.1,88.2c0,21.1,7.7,44.1,23,61.3
	c-28.7,21.1-51.7,61.3-69,122.7c-47.9-38.3-72.8-93.9-72.8-155.3c1.9-111.2,92-201.2,201.2-201.2c111.1,0,201.2,90.1,201.2,201.2
	c0,61.3-26.8,116.9-72.8,153.3C368.8,365,349.6,313.2,315.1,286.4z"/>
</svg>
