<?xml version="1.0" encoding="UTF-8"?>
<svg viewBox="0 0 25 25" version="1.1" xmlns="http://www.w3.org/2000/svg" xmlns:xlink="http://www.w3.org/1999/xlink">
    <g id="01-14-2_Expanded-Infos" stroke="none" stroke-width="1" fill="none" fill-rule="evenodd" transform="translate(-824.000000, -155.000000)">
        <g id="Sidebar-Navigation" transform="translate(805.000000, 100.000000)" fill="#000000">
            <g id="Sidebar-Nav">
                <g id="09_Deine-Nachbarn" transform="translate(19.000000, 55.000000)">
                    <path d="M15.9613505,11.4200278 C15.9613505,11.4205486 15.9619755,11.4211736 15.9619755,11.4211736 L15.9613505,11.4200278 Z M8.61997981,15.3354689 L15.9245026,15.3502516 L15.9328178,11.3976364 C15.9318939,11.3955712 15.93097,11.3937777 15.9301548,11.3917125 L12.2846597,8.0686636 L8.63117548,11.3761146 C8.63003418,11.3781799 8.62911026,11.3802451 8.6282407,11.382582 L8.61997981,15.3354689 Z M10.487972,15.3513929 L10.4896387,15.3513929 L10.487972,15.3513929 Z M16.4671665,17.162211 L16.4645035,17.162211 L8.07323979,17.1451458 C7.37416257,17.1430806 6.80682468,16.5733514 6.80796599,15.8751437 L6.81742253,11.3366037 C6.81888992,10.8798095 7.04644464,10.3681239 7.38421693,10.0621995 L11.4104735,6.41730221 C11.9038439,5.97050801 12.6745516,5.97257323 13.1649872,6.42083483 L17.1812438,10.0819821 C17.5181465,10.3885043 17.7441795,10.901603 17.7435816,11.3587233 L17.7341795,15.8981329 C17.7333099,16.2359052 17.6006466,16.5536231 17.3607549,16.7926452 C17.1214611,17.0310695 16.8040149,17.162211 16.4671665,17.162211 Z M12.5009101,1.56256604 C9.69813375,1.56256604 6.89606396,2.62892647 4.76269092,4.76235386 C0.496651352,9.02888256 0.496651352,15.9712308 4.76269092,20.2377595 C9.03095875,24.5051034 15.973144,24.5035817 20.2383683,20.2377595 C24.5044079,15.9712308 24.5044079,9.02888256 20.2383683,4.76235386 C18.1049953,2.62930691 15.3021646,1.56256604 12.5009101,1.56256604 Z M12.5001492,25.0001043 C9.29813309,25.0001043 6.09541048,23.7810805 3.65741738,21.3430331 C-1.21840579,16.4669925 -1.21840579,8.53312088 3.65741738,3.65708032 C8.53258837,-1.2185798 16.4670035,-1.21934067 21.3436419,3.65708032 C26.2195194,8.53312088 26.2195194,16.4669925 21.3436419,21.3430331 C18.9057031,23.7810805 15.7029261,25.0001043 12.5001492,25.0001043 Z" id="Fill-1"></path>
                </g>
            </g>
        </g>
    </g>
</svg>
