<?xml version="1.0" encoding="utf-8"?>
<!-- Generator: Adobe Illustrator 19.2.1, SVG Export Plug-In . SVG Version: 6.00 Build 0)  -->
<!DOCTYPE svg PUBLIC "-//W3C//DTD SVG 1.1//EN" "http://www.w3.org/Graphics/SVG/1.1/DTD/svg11.dtd">
<svg version="1.1" id="Ebene_1" xmlns="http://www.w3.org/2000/svg" xmlns:xlink="http://www.w3.org/1999/xlink" x="0px" y="0px"
	 viewBox="0 0 500 500" style="enable-background:new 0 0 500 500;" xml:space="preserve">
<path d="M354,234.7V119.4c0-7.8-4.3-15.1-11.3-19.2l-0.1-0.1l-71.1-55.6c-5.9-5.5-13.7-8.5-21.8-8.5h-0.1c-8,0-15.5,3-21.2,8.4
	l-72,56.4c-5.2,4.3-10.4,9.8-10.4,18.5v115.4c0,5,4.3,9.1,9.5,9.1H229c5.2,0,9.5-4.1,9.5-9.1v-61.5h23v61.5c0,5,4.3,9.1,9.5,9.1
	h73.5C349.7,243.8,354,239.7,354,234.7z M335,225.6h-54.5V164c0-5-4.3-9.1-9.5-9.1h-42c-5.2,0-9.5,4.1-9.5,9.1v61.5H165V119.3
	c0-0.7,0.3-1.8,3.7-4.6l72.1-56.5c0.3-0.2,0.5-0.4,0.8-0.7c2.2-2.2,5.1-3.3,8.2-3.4c3.7,0.3,6.6,1.5,8.7,3.5
	c0.2,0.2,0.5,0.4,0.7,0.6l72.1,56.4c0.4,0.3,0.9,0.6,1.4,0.9c1.5,0.8,2.4,2.2,2.4,3.8v106.3H335z M468.7,320.5l-0.1-0.1l-71.1-55.6
	c-5.9-5.5-13.6-8.5-21.7-8.5h-0.2c-8,0-15.5,3-21.2,8.4l-72,56.4c-5.2,4.3-10.4,9.8-10.4,18.5V455c0,5,4.3,9.1,9.5,9.1H355
	c5.2,0,9.5-4.1,9.5-9.1v-61.5h23V455c0,5,4.3,9.1,9.5,9.1h73.5c5.2,0,9.5-4.1,9.5-9.1V339.6C480,331.9,475.7,324.5,468.7,320.5z
	 M461,445.8h-54.5v-61.5c0-5-4.3-9.1-9.5-9.1h-42c-5.2,0-9.5,4.1-9.5,9.1v61.5H291V339.6c0-0.7,0.3-1.8,3.7-4.6l72.1-56.5
	c0.3-0.2,0.5-0.4,0.8-0.7c2.2-2.2,5.1-3.3,8.2-3.4c3.7,0.3,6.6,1.5,8.7,3.5c0.2,0.2,0.5,0.4,0.7,0.6l72.1,56.4
	c0.4,0.3,0.9,0.6,1.4,0.9c1.5,0.8,2.4,2.2,2.4,3.8v106.2H461z M145.5,264.8c-5.9-5.5-13.6-8.5-21.7-8.5h-0.2c-8,0-15.5,3-21.2,8.4
	l-72,56.4c-5.2,4.3-10.4,9.8-10.4,18.5V455c0,5,4.3,9.1,9.5,9.1H103c5.2,0,9.5-4.1,9.5-9.1v-61.5h25.1V455c0,5,4.3,9.1,9.5,9.1h71.5
	c5.2,0,9.5-4.1,9.5-9.1V339.6c0-7.3-3.6-13.4-11.4-19.2L145.5,264.8z M209,445.8l-52.4,0.6v-61.5c0-5-4.3-9.1-9.5-9.1l-44.1-0.5
	c-5.2,0-9.5,4.1-9.5,9.1v61.5H39V339.6c0-0.7,0.3-1.8,3.7-4.6l72.1-56.5c0.3-0.2,0.5-0.4,0.8-0.7c2.2-2.2,5.1-3.3,8.2-3.4
	c3.2,0.3,5.2,0.6,8.6,3.4c0.7,0.5,72.2,56.5,72.9,57.1c0.2,0.2,0.5,0.4,0.7,0.6c1.4,1.1,3.1,2.5,3.1,5v105.3H209z"/>
</svg>
