<?xml version="1.0" encoding="utf-8"?>
<!-- Generator: Adobe Illustrator 19.2.1, SVG Export Plug-In . SVG Version: 6.00 Build 0)  -->
<!DOCTYPE svg PUBLIC "-//W3C//DTD SVG 1.1//EN" "http://www.w3.org/Graphics/SVG/1.1/DTD/svg11.dtd">
<svg version="1.1" id="Ebene_1" xmlns="http://www.w3.org/2000/svg" xmlns:xlink="http://www.w3.org/1999/xlink" x="0px" y="0px"
	 viewBox="0 0 500 500" style="enable-background:new 0 0 500 500;" xml:space="preserve">
<path d="M469.6,249.8L280.2,60c-17.7-16-44.3-16-60.2,0L30.6,249.8c-14.2,14.2-14.2,35.5,0,49.7l7.1,7.1
	c19.5,19.5,38.9,7.1,38.9,7.1v97.6c0,23.1,24.8,40.8,46,40.8h99.1V333.2c0-7.1,5.3-7.1,5.3-7.1h46c0,0,5.3,0,5.3,7.1V452h97.4
	c21.2,0,46-17.7,46-40.8v-95.8c0,0,24.8,8.9,38.9-7.1l7.1-7.1C483.8,285.3,483.8,264,469.6,249.8z M393.5,411.2
	c0,12.4-8.9,12.4-8.9,12.4h-76.1v-95.8c0-14.2-14.2-28.4-28.3-28.4h-58.4c-14.2,0-28.3,14.2-28.3,28.4v95.8h-77.9
	c0,0-8.9,0-8.9-10.6V288.8l143.4-145.5l143.4,145.5V411.2z M450.1,279.9l-8.9,7.1c-1.8,1.8-5.3,3.5-8.9,0L267.7,122
	c-5.3-5.3-10.6-7.1-17.7-7.1s-12.4,1.8-17.7,7.1L67.8,287c-3.5,3.5-7.1,1.8-8.9,0l-7.1-7.1c-1.8-1.8-1.8-7.1,0-8.9L239.5,81.3
	c5.3-5.3,14.2-5.3,19.5,0l191.2,188C451.9,272.8,451.9,276.4,450.1,279.9z"/>
</svg>
