<svg xmlns="http://www.w3.org/2000/svg" viewBox="0 0 26 12">
  <path fill="#000" fill-rule="evenodd" d="M297,13.9965956 L299,15.1952339 L299,22 L304,22 L304,19.9645556 C302.303853,19.7219407 301,18.263236 301,16.5 C301,14.5670034 302.567003,13 304.5,13 C306.432997,13 308,14.5670034 308,16.5 C308,18.263236 306.696147,19.7219407 305,19.9645556 L305,22 L308.503832,22 C308.777858,22 309,22.2319336 309,22.5 C309,22.7761424 308.775229,23 308.503832,23 L283.496168,23 C283.222142,23 283,22.7680664 283,22.5 C283,22.2238576 283.224771,22 283.496168,22 L285,22 L285,15.1952339 L292,11 L296,13.3972765 L296,12.4966218 C296,12.2223451 296.231934,12 296.5,12 C296.776142,12 297,12.214035 297,12.5046844 L297,13.9965956 Z M291,22 L298,22 L298,15.5959147 L292,12 L286,15.5959147 L286,22 L288,22 L288,17 L291,17 L291,22 Z M293,17 L296,17 L296,20 L293,20 L293,17 Z M304.5,19 C305.880712,19 307,17.8807119 307,16.5 C307,15.1192881 305.880712,14 304.5,14 C303.119288,14 302,15.1192881 302,16.5 C302,17.8807119 303.119288,19 304.5,19 Z" transform="translate(-283 -11)"/>
</svg>
