<?xml version="1.0" encoding="utf-8"?>
<!-- Generator: Adobe Illustrator 19.2.1, SVG Export Plug-In . SVG Version: 6.00 Build 0)  -->
<!DOCTYPE svg PUBLIC "-//W3C//DTD SVG 1.1//EN" "http://www.w3.org/Graphics/SVG/1.1/DTD/svg11.dtd">
<svg version="1.1" id="Ebene_1" xmlns="http://www.w3.org/2000/svg" xmlns:xlink="http://www.w3.org/1999/xlink" x="0px" y="0px"
	 viewBox="0 0 500 500" style="enable-background:new 0 0 500 500;" xml:space="preserve">
<path d="M376.2,61.7C341,28.5,292.9,10,243,10c-51.8,0-98,18.5-133.2,51.7C76.5,93.1,58,131.8,58,178c0,44.3,16.6,90.5,49.9,131.1
	c25.9,31.4,107.3,140.3,114.7,153.2L243,490l20.3-27.7c1.8-1.8,90.6-120,116.5-155.1C444.6,220.5,444.6,124.5,376.2,61.7z
	 M355.8,290.6c-12.9,18.5-44.4,59.1-70.3,94.2c-18.5,24-33.3,44.3-40.7,53.5c-5.5-9.2-18.5-25.8-33.3-44.3
	c-27.7-36.9-62.9-84.9-77.7-103.4c-48.1-59.1-66.6-147.7,0-208.6c29.6-27.7,70.3-42.5,112.8-42.5S326.2,54.3,355.8,82
	C411.3,131.8,411.3,214.9,355.8,290.6z M331.8,131.8L267,85.7c-7.4-3.7-14.8-9.2-24-9.2s-16.6,5.5-24,9.2l-64.7,46.2
	c-7.4,5.5-11.1,9.2-11.1,20.3V250c0,5.5,5.5,11.1,12.9,11.1H219c5.5,0,11.1-3.7,11.1-11.1v-48H256v48c0,5.5,3.7,11.1,11.1,11.1H330
	c5.5,0,12.9-3.7,12.9-12.9v-96C342.9,141.1,339.2,137.4,331.8,131.8z M267,178h-48.1c-5.5,0-12.9,5.5-12.9,12.9v48h-38.8v-86.8
	c0-3.7,1.8-3.7,1.8-3.7c25.9-18.5,66.6-48,66.6-48l0,0c5.5-3.7,9.2-3.7,14.8,0l66.6,48c0,0,1.8,1.8,1.8,3.7v86.8H280v-48
	C280,185.4,272.6,178,267,178z"/>
</svg>
