<?xml version="1.0" encoding="utf-8"?>
<!-- Generator: Adobe Illustrator 19.2.1, SVG Export Plug-In . SVG Version: 6.00 Build 0)  -->
<!DOCTYPE svg PUBLIC "-//W3C//DTD SVG 1.1//EN" "http://www.w3.org/Graphics/SVG/1.1/DTD/svg11.dtd">
<svg version="1.1" id="Ebene_1" xmlns="http://www.w3.org/2000/svg" xmlns:xlink="http://www.w3.org/1999/xlink" x="0px" y="0px"
	 viewBox="0 0 500 500" style="enable-background:new 0 0 500 500;" xml:space="preserve">
<path d="M307.7,20c31.2,0,47.5,21.6,47.5,44.6c0,29.8-27.2,58.2-63.8,58.2c-29.9,0-47.5-17.6-46.2-46C245.2,52.5,267,20,307.7,20z
	 M211.3,480c-24.5,0-43.5-14.9-25.8-81.2L214,281.1c5.4-18.9,5.4-25.7,0-25.7c-8.2,0-39.4,13.5-59.8,25.7L142,260.8
	c61.1-50.1,130.4-79.8,160.3-79.8c24.5,0,28.5,29.8,16.3,74.4L286,378.5c-5.4,21.6-2.7,29.8,2.7,29.8c8.2,0,32.6-9.5,55.7-28.4
	l13.6,18.9C299.6,457,235.7,480,211.3,480z"/>
</svg>
