<?xml version="1.0" encoding="utf-8"?>
<!-- Generator: Adobe Illustrator 19.2.1, SVG Export Plug-In . SVG Version: 6.00 Build 0)  -->
<!DOCTYPE svg PUBLIC "-//W3C//DTD SVG 1.1//EN" "http://www.w3.org/Graphics/SVG/1.1/DTD/svg11.dtd">
<svg version="1.1" id="Ebene_1" xmlns="http://www.w3.org/2000/svg" xmlns:xlink="http://www.w3.org/1999/xlink" x="0px" y="0px"
	 viewBox="0 0 500 500" style="enable-background:new 0 0 500 500;" xml:space="preserve">
<path d="M186.9,227.9c14.9,0,25.7,12.2,25.7,27.1c0,14.9-12.2,27.1-25.7,27.1s-25.7-12.2-25.7-27.1S173.4,227.9,186.9,227.9z
	 M318.1,227.9c14.9,0,25.7,12.2,25.7,27.1c0,14.9-12.2,27.1-25.7,27.1c-14.9,0-25.7-12.2-25.7-27.1S303.3,227.9,318.1,227.9z
	 M310,334.8c-6.8-2.7-14.9-1.4-17.6,5.4l0,0c-9.5,13.5-24.4,20.3-40.6,18.9c-16.2,1.4-31.1-6.8-40.6-18.9
	c-4.1-6.8-10.8-8.1-17.6-5.4s-8.1,10.8-5.4,17.6c13.5,21.6,37.9,35.2,64.9,33.8c25.7,1.4,50.1-10.8,64.9-33.8
	C319.5,346.9,316.8,338.8,310,334.8L310,334.8z M435.8,214.4c-2.7,0-5.4,0-8.1,1.4c-4.1-12.2-9.5-24.4-14.9-36.5
	c4.1-2.7,6.8-5.4,6.8-10.8c0-27.1-9.5-54.1-28.4-74.4c-28.4-31.1-75.8-47.4-138-47.4S142.3,62.8,113.8,93.9
	C94.9,114.2,84,141.3,84,169.7c0,4.1,2.7,8.1,6.8,10.8c-5.4,10.8-10.8,23-13.5,35.2c-2.7,0-5.4-1.4-8.1-1.4c-25.7,0-46,29.8-46,66.3
	s20.3,66.3,46,66.3c5.4,0,10.8-1.4,16.2-4.1c41.9,93.4,150.2,135.3,242.2,93.4c41.9-18.9,74.4-51.4,93.4-93.4
	c5.4,2.7,10.8,4.1,16.2,4.1c25.7,0,46-29.8,46-66.3S462.9,214.4,435.8,214.4z M435.8,321.2c-4.1-1.4-8.1-4.1-10.8-8.1
	c-4.1-5.4-12.2-6.8-18.9-2.7c-2.7,1.4-4.1,4.1-5.4,6.8c-27.1,83.9-116.4,128.5-198.9,101.5c-48.7-16.2-85.2-54.1-101.5-102.8
	c-1.4-5.4-5.4-8.1-10.8-9.5l0,0c-4.1,0-8.1,2.7-10.8,5.4c-2.7,4.1-6.8,6.8-10.8,8.1c-9.5,0-20.3-17.6-20.3-39.2
	c0-23,10.8-39.2,20.3-39.2c2.7,0,5.4,1.4,6.8,4.1c5.4,5.4,13.5,4.1,18.9-1.4c1.4-1.4,2.7-4.1,2.7-6.8c4.1-23,13.5-44.6,27.1-63.6
	c6.8,1.4,13.5,4.1,20.3,6.8c33.8,13.5,70.4,20.3,108.2,20.3s74.4-6.8,109.6-21.6c8.1-2.7,13.5-5.4,17.6-6.8
	c13.5,18.9,23,40.6,28.4,63.6c1.4,6.8,8.1,12.2,14.9,10.8c2.7,0,4.1-1.4,6.8-2.7c1.4-2.7,4.1-4.1,8.1-4.1c9.5,0,20.3,17.6,20.3,39.2
	C456.1,303.6,445.3,321.2,435.8,321.2z"/>
</svg>
