<?xml version="1.0" encoding="utf-8"?>
<!-- Generator: Adobe Illustrator 19.2.1, SVG Export Plug-In . SVG Version: 6.00 Build 0)  -->
<!DOCTYPE svg PUBLIC "-//W3C//DTD SVG 1.1//EN" "http://www.w3.org/Graphics/SVG/1.1/DTD/svg11.dtd">
<svg version="1.1" id="Ebene_1" xmlns="http://www.w3.org/2000/svg" xmlns:xlink="http://www.w3.org/1999/xlink" x="0px" y="0px"
	 viewBox="0 0 500 500" style="enable-background:new 0 0 500 500;" xml:space="preserve">
<path d="M195.6,230.6c9.5,0,18.9,8.1,18.9,18.9s-8.1,18.9-18.9,18.9s-18.9-8.1-18.9-18.9S184.8,230.6,195.6,230.6z M305.2,230.6
	c9.5,0,18.9,8.1,18.9,18.9s-8.1,18.9-18.9,18.9c-9.5,0-18.9-8.1-18.9-18.9S294.3,230.6,305.2,230.6z M420.1,188.7
	c-4.1,0-6.8,0-10.8,1.4c-16.2-44.6-51.4-79.8-94.7-98.7l-4-24.4c-1.4-6.8-8.1-10.8-13.5-10.8c-6.8,1.4-12.2,8.1-10.8,14.9l0,0
	l2.7,10.8c-8.1-2.7-17.6-4.1-25.7-4.1V56.2c-1.4-6.8-6.8-12.2-13.5-12.2s-12.2,5.4-12.2,12.2v21.6c-9.5,0-17.6,1.4-27,4.1l2.7-10.8
	c1.4-6.8-4.1-13.5-10.8-14.9C195.7,54.8,189,60.3,189,67l-4.1,24.3c-43.3,17.6-78.4,54.1-94.7,98.7c-32.5-5.4-64.9,16.2-70.3,50
	s16.2,64.9,48.7,71.7c6.8,1.4,14.9,1.4,21.6,0c32.5,89.2,131.2,133.9,219.1,100.1c46-17.6,82.5-54.1,100.1-100.1
	c33.8,4.1,63.6-18.9,69-52.7s-18.9-64.9-52.7-69C424.2,188.7,421.4,188.7,420.1,188.7z M420.1,287.4c-5.4,0-9.5-1.4-13.5-2.7
	l-12.2-5.4l-4.1,13.5c-23,78.4-104.1,123.1-181.2,98.7c-47.3-14.9-83.8-51.4-98.7-98.7l-4.1-13.5l-12.2,5.4
	c-18.9,8.1-40.6-1.4-47.3-20.3c-8.1-18.9,1.4-40.6,20.3-48.7c9.5-4.1,18.9-4.1,28.4,0l12.2,5.4l4.1-13.5c9.5-36.5,35.2-69,69-87.9
	l-4.1,20.3c-1.4,6.8,2.7,13.5,9.5,13.5h2.7c5.4,0,10.8-4.1,12.2-10.8l5.4-35.2c9.5-2.7,20.3-5.4,31.1-5.4v39.2
	c0,6.8,5.4,12.2,12.2,12.2s12.2-5.4,12.2-12.2v-39.2c10.8,1.4,20.3,2.7,31.1,6.8l5.4,35.2c1.4,5.4,6.8,10.8,12.2,10.8h2.7
	c6.8-1.4,10.8-6.8,10.8-13.5l0,0l-4.1-20.3c33.8,18.9,59.5,50,70.3,87.9l4.1,13.5l12.2-5.4c4.1-1.4,9.5-2.7,14.9-2.7
	c20.3,0,36.5,16.2,36.5,36.5S440.4,287.4,420.1,287.4z M303.8,315.8c-5.4-2.7-13.5-1.4-16.2,5.4l0,0c-8.1,12.2-23,18.9-37.9,17.6
	c-14.9,1.4-29.7-5.4-37.9-17.6c-2.7-5.4-10.8-8.1-16.2-5.4s-8.1,10.8-5.4,16.2c12.2,20.3,35.2,32.5,59.5,31.1
	c24.3,1.4,47.3-10.8,59.5-31.1C311.9,326.6,310.6,319.9,303.8,315.8L303.8,315.8z"/>
</svg>
