<?xml version="1.0" encoding="utf-8"?>
<!-- Generator: Adobe Illustrator 19.2.1, SVG Export Plug-In . SVG Version: 6.00 Build 0)  -->
<!DOCTYPE svg PUBLIC "-//W3C//DTD SVG 1.1//EN" "http://www.w3.org/Graphics/SVG/1.1/DTD/svg11.dtd">
<svg version="1.1" id="Ebene_1" xmlns="http://www.w3.org/2000/svg" xmlns:xlink="http://www.w3.org/1999/xlink" x="0px" y="0px"
	 viewBox="0 0 500 500" style="enable-background:new 0 0 500 500;" xml:space="preserve">
<path d="M192.9,223.6c9.5,0,17.6,8.1,17.6,17.6s-8.1,17.6-17.6,17.6s-17.6-8.1-17.6-17.6C173.9,231.7,182,223.6,192.9,223.6z
	 M301,223.6c9.5,0,17.6,8.1,17.6,17.6s-8.1,17.6-17.6,17.6s-17.6-8.1-17.6-17.6C283.4,231.7,291.6,223.6,301,223.6z M417.3,181.7
	c-4.1,0-6.8,0-10.8,1.4C374,95.1,275.3,50.5,188.8,84.3c-46,17.6-82.5,54.1-98.7,98.7c-32.4-5.4-64.9,16.2-70.3,48.7
	S36,296.6,68.5,302c6.8,1.4,14.9,1.4,21.6,0c17.6,47.3,56.8,85.2,104.1,101.4c14.9,29.7,51.4,43.3,81.1,28.4
	c12.2-5.4,21.6-16.2,28.4-28.4c47.3-16.2,86.5-54.1,104.1-101.4c32.4,5.4,64.9-16.2,70.3-48.7s-16.2-64.9-48.7-70.3
	C424.1,181.7,420,181.7,417.3,181.7z M246.9,412.9c-20.3,0-36.5-16.2-36.5-36.5s16.2-36.5,36.5-36.5s36.5,16.2,36.5,36.5
	C283.4,396.6,267.2,412.9,246.9,412.9L246.9,412.9z M288.9,333.1c-23-21.6-59.5-21.6-82.5,0c-1.4-5.4,0-9.5,1.4-14.9
	c4.1-8.1,18.9-12.2,39.2-12.2c21.6,0,35.2,4.1,39.2,12.2C288.9,323.6,290.2,327.7,288.9,333.1z M417.3,279c-5.4,0-9.5-1.4-13.5-2.7
	l-12.2-5.4l-4.1,13.5c-12.2,40.6-40.6,73-78.4,90.6c0-5.4-1.4-10.8-2.7-14.9c4.1-8.1,14.9-32.4,2.7-52.7
	c-9.5-16.2-29.7-24.3-60.8-24.3s-51.4,8.1-60.8,24.3c-10.8,20.3-1.4,43.3,2.7,52.7c-1.4,5.4-2.7,9.5-4.1,14.9
	c-37.9-17.6-66.3-50-78.4-90.6l-4.1-13.5l-12.2,5.4c-17.6,6.8-39.2-1.4-47.3-20.3s1.4-40.6,18.9-47.3c9.5-4.1,18.9-4.1,28.4,0
	l12.2,5.4l4.1-13.5c16.2-54.1,60.8-93.3,116.3-102.8c1.4,1.4,4.1,2.7,6.8,2.7c25.7,0,51.4,18.9,51.4,37.9
	c-1.4,17.6-17.6,29.7-35.2,28.4c-9.5,0-24.3-2.7-24.3-16.2c0-4.1,2.7-6.8,5.4-8.1c4.1-2.7,8.1-2.7,10.8,0c5.4,2.7,13.5,1.4,16.2-4.1
	c2.7-5.4,1.4-13.5-4.1-16.2l0,0c-10.8-5.4-24.3-5.4-35.2,1.4c-10.8,5.4-16.2,17.6-17.6,28.4c0,23,20.3,40.6,48.7,40.6
	c29.7,1.4,56.8-21.6,58.1-51.4c0-12.2-5.4-25.7-13.5-35.2c46,14.9,81.1,51.4,94.6,97.3l4.1,13.5l12.2-5.4c4.1-2.7,9.5-2.7,14.9-2.7
	c20.3,0,36.5,16.2,36.5,36.5S436.2,279,417.3,279z"/>
</svg>
