<?xml version="1.0" encoding="utf-8"?>
<!-- Generator: Adobe Illustrator 19.2.1, SVG Export Plug-In . SVG Version: 6.00 Build 0)  -->
<!DOCTYPE svg PUBLIC "-//W3C//DTD SVG 1.1//EN" "http://www.w3.org/Graphics/SVG/1.1/DTD/svg11.dtd">
<svg version="1.1" id="Ebene_1" xmlns="http://www.w3.org/2000/svg" xmlns:xlink="http://www.w3.org/1999/xlink" x="0px" y="0px"
	 viewBox="0 0 500 500" style="enable-background:new 0 0 500 500;" xml:space="preserve">
<path id="XMLID_381_" d="M445.5,86H52.6C35.3,86,20,105.2,20,124.4v258.9c0,19.2,15.3,30.7,32.6,30.7h394.8
	c17.2,0,32.6-11.5,32.6-30.7v-257C480,107.1,464.7,86,445.5,86z M251.9,297L75.6,116.7h352.7L251.9,297z M158,247.1L48.7,360.3V134
	L158,247.1z M179.1,266.3l55.6,57.5c3.8,3.8,9.6,7.7,15.3,7.7s11.5-1.9,15.3-7.7l53.7-57.5l113.1,115.1h-368L179.1,266.3z M342,249
	l109.2-113.2v224.4L342,249z"/>
</svg>
