<?xml version="1.0" encoding="utf-8"?>
<!-- Generator: Adobe Illustrator 19.2.1, SVG Export Plug-In . SVG Version: 6.00 Build 0)  -->
<!DOCTYPE svg PUBLIC "-//W3C//DTD SVG 1.1//EN" "http://www.w3.org/Graphics/SVG/1.1/DTD/svg11.dtd">
<svg version="1.1" id="Ebene_1" xmlns="http://www.w3.org/2000/svg" xmlns:xlink="http://www.w3.org/1999/xlink" x="0px" y="0px"
	 viewBox="0 0 500 500" style="enable-background:new 0 0 500 500;" xml:space="preserve">
<path d="M20.9,77v96.1h93.9V77H20.9z M88,146.2H47.8v-42.3H88V146.2z M143.6,77v96.1h337.3V77H143.6z M454.1,146.2H170.4v-42.3
	h283.7V146.2z M20.9,201.9V298h93.9v-96.1H20.9z M88,271.1H47.8v-42.3H88V271.1z M143.6,201.9V298h337.3v-96.1H143.6z M454.1,271.1
	H170.4v-42.3h283.7V271.1z M20.9,326.9V423h93.9v-96.1H20.9z M88,396.1H47.8v-42.3H88V396.1z M143.6,326.9V423h337.3v-96.1H143.6z
	 M454.1,396.1H170.4v-42.3h283.7V396.1z"/>
</svg>
