<?xml version="1.0" encoding="utf-8"?>
<!-- Generator: Adobe Illustrator 19.2.1, SVG Export Plug-In . SVG Version: 6.00 Build 0)  -->
<!DOCTYPE svg PUBLIC "-//W3C//DTD SVG 1.1//EN" "http://www.w3.org/Graphics/SVG/1.1/DTD/svg11.dtd">
<svg version="1.1" id="Ebene_1" xmlns="http://www.w3.org/2000/svg" xmlns:xlink="http://www.w3.org/1999/xlink" x="0px" y="0px"
	 viewBox="0 0 500 500" style="enable-background:new 0 0 500 500;" xml:space="preserve">
<path d="M480,90.6v318.8c0,38.2-32.6,70.6-72.8,70.6H230.8c-40.2,0-72.8-30.5-72.8-70.6v-85.9h36.4v87.8c0,19.1,17.2,34.4,36.4,34.4
	h174.4c21.1,0,36.4-15.3,36.4-34.4V90.6c1.9-19.1-15.3-34.4-36.4-34.4H230.8c-21.1,0-36.4,15.3-36.4,34.4v87.8H158V90.6
	c0-38.2,32.6-70.6,72.8-70.6h174.4C447.4,20,480,50.5,480,90.6z M242.3,323.5l26.8,24.8l90.1-97.3L271,153.7l-26.8,24.8l51.8,55.4
	H20V270h272.2L242.3,323.5z"/>
</svg>
