<?xml version="1.0" encoding="utf-8"?>
<!-- Generator: Adobe Illustrator 22.1.0, SVG Export Plug-In . SVG Version: 6.00 Build 0)  -->
<svg version="1.1" id="Ebene_1" xmlns="http://www.w3.org/2000/svg" xmlns:xlink="http://www.w3.org/1999/xlink" x="0px" y="0px"
	 viewBox="0 0 500 500" style="enable-background:new 0 0 500 500;" xml:space="preserve">
<path d="M20.3,229.4c-1-2.9,0.2-4.7,3.3-4.7h4.8c2.4,0,4,1.1,4.8,3.5l9.6,27.8c1,3,1.9,7.6,1.9,7.6h0.2c0,0,0.8-4.6,1.8-7.6
	l9.6-27.8c0.7-2.4,2.3-3.5,4.8-3.5h4.8c3.1,0,4.5,1.9,3.4,4.7l-15.6,42.3c-0.8,2.4-2.3,3.4-4.8,3.4h-8.1c-2.4,0-4-1-4.8-3.4
	L20.3,229.4z M72.4,212v-3c0-2.7,1.4-4.2,4.1-4.2H81c2.7,0,4.2,1.5,4.2,4.2v3c0,2.7-1.5,4.1-4.2,4.1h-4.5
	C73.8,216.1,72.4,214.7,72.4,212z M72.4,228.8c0-2.7,1.4-4.2,4.1-4.2H81c2.7,0,4.1,1.5,4.1,4.2V271c0,2.8-1.4,4.2-4.1,4.2h-4.5
	c-2.7,0-4.1-1.4-4.1-4.2V228.8z M118.3,223.5c8.3,0,13.9,3,16.9,5c2.1,1.4,2.2,3.5,0.8,5.6l-1.3,2c-1.5,2.3-3.2,2.3-5.7,1.1
	c-2.1-1.4-5.6-3.1-10-3.1c-9.5,0-15.7,7-15.7,15.6c0,8.5,6.2,15.8,16.1,15.8c5.1,0,9.1-2.2,11.5-3.9c2.5-1.4,4.5-1.1,5.8,1.3l1,1.9
	c1.2,2.2,0.9,4.2-1.1,5.5c-3.1,2.3-9.4,5.8-18.3,5.8c-17.1,0-28-11.8-28-26.4C90.3,235.5,101.2,223.5,118.3,223.5z M142.6,212v-3
	c0-2.7,1.4-4.2,4.1-4.2h4.5c2.7,0,4.2,1.5,4.2,4.2v3c0,2.7-1.5,4.1-4.2,4.1h-4.5C144,216.1,142.6,214.7,142.6,212z M142.6,228.8
	c0-2.7,1.4-4.2,4.1-4.2h4.5c2.7,0,4.1,1.5,4.1,4.2V271c0,2.8-1.4,4.2-4.1,4.2h-4.5c-2.7,0-4.1-1.4-4.1-4.2V228.8z M163.7,228.8
	c0-2.7,1.4-4.2,4.1-4.2h3.9c2.7,0,4.1,1.5,4.1,4.2v3.1c0,1.1-0.2,2.3-0.2,2.3h0.2c2.2-4.3,7.9-10.7,18.3-10.7c11.4,0,18,5.8,18,19.2
	V271c0,2.8-1.4,4.2-4.3,4.2h-4.4c-2.7,0-4.2-1.4-4.2-4.2v-25.7c0-6.1-1.6-10.3-8.1-10.3c-9.1,0-14.9,7.4-14.9,16.5V271
	c0,2.8-1.4,4.2-4.1,4.2h-4.5c-2.7,0-4.1-1.4-4.1-4.2V228.8z M220.2,212v-3c0-2.7,1.4-4.2,4.1-4.2h4.5c2.7,0,4.2,1.5,4.2,4.2v3
	c0,2.7-1.5,4.1-4.2,4.1h-4.5C221.7,216.1,220.2,214.7,220.2,212z M220.2,228.8c0-2.7,1.4-4.2,4.1-4.2h4.5c2.7,0,4.1,1.5,4.1,4.2V271
	c0,2.8-1.4,4.2-4.1,4.2h-4.5c-2.7,0-4.1-1.4-4.1-4.2V228.8z M241.3,228.8c0-2.7,1.4-4.2,4.1-4.2h3.9c2.7,0,4.1,1.5,4.1,4.2v3.1
	c0,1.1-0.2,2.3-0.2,2.3h0.2c2.5-4.9,8.8-10.7,16.9-10.7c7.8,0,13,3.6,15.1,10.4h0.2c2.7-5.2,9.5-10.4,17.6-10.4
	c10.7,0,16.9,5.9,16.9,19.2V271c0,2.8-1.5,4.2-4.3,4.2h-4.4c-2.8,0-4.2-1.4-4.2-4.2V245c0-5.7-1.1-10.1-7.1-10.1
	c-8.7,0-13.2,8.7-13.2,17.5V271c0,2.8-1.4,4.2-4.1,4.2h-4.5c-2.7,0-4.3-1.4-4.3-4.2V245c0-5.4-0.8-10.1-6.9-10.1
	c-9.1,0-13.4,9.1-13.4,17.5V271c0,2.8-1.4,4.2-4.1,4.2h-4.5c-2.7,0-4.1-1.4-4.1-4.2V228.8z M328.3,212v-3c0-2.7,1.4-4.2,4.1-4.2h4.5
	c2.7,0,4.2,1.5,4.2,4.2v3c0,2.7-1.5,4.1-4.2,4.1h-4.5C329.7,216.1,328.3,214.7,328.3,212z M328.3,228.8c0-2.7,1.4-4.2,4.1-4.2h4.5
	c2.7,0,4.1,1.5,4.1,4.2V271c0,2.8-1.4,4.2-4.1,4.2h-4.5c-2.7,0-4.1-1.4-4.1-4.2V228.8z M372.6,223.5c14.7,0,22.9,10.2,22.9,24
	c0,2.2-1.9,4.3-4.5,4.3h-31.5c0.8,9.1,7.7,13.8,15.5,13.8c4.8,0,8.7-1.8,11.1-3.3c2.5-1.2,4.4-0.9,5.7,1.4l1.2,2
	c1.2,2.3,0.8,4.3-1.4,5.5c-3.3,2.1-9.4,5-17.5,5c-17.1,0-27.7-12.1-27.7-26.4C346.4,234.4,357.1,223.5,372.6,223.5z M382.7,244.2
	c-0.2-7-4.6-11.2-10.4-11.2c-6.6,0-11.2,4.5-12.4,11.2H382.7z M400.9,212v-3c0-2.7,1.4-4.2,4.1-4.2h4.5c2.7,0,4.2,1.5,4.2,4.2v3
	c0,2.7-1.5,4.1-4.2,4.1H405C402.3,216.1,400.9,214.7,400.9,212z M400.9,228.8c0-2.7,1.4-4.2,4.1-4.2h4.5c2.7,0,4.1,1.5,4.1,4.2V271
	c0,2.8-1.4,4.2-4.1,4.2H405c-2.7,0-4.1-1.4-4.1-4.2V228.8z M425,269.9c0-1.9,1-2.9,3-2.9h3.2c2,0,3,1,3,2.9v3.2c0,2-1.1,3-3,3H428
	c-2,0-3-1-3-3V269.9z M442.2,230.9v-2.1c0-1.9,1-3,3-3h3.2c2,0,3,1.1,3,3v2.1c0,1.9-1.1,2.9-3,2.9h-3.2
	C443.2,233.8,442.2,232.8,442.2,230.9z M442.2,242.9c0-1.9,1-3,3-3h3.2c2,0,3,1.1,3,3v30.2c0,2-1,3-3,3h-3.2c-2,0-3-1-3-3V242.9z
	 M461.8,247.6h-2c-2,0-3-1-3-3v-1.2c0-1.9,1-3,3-3h2.1v-7.4c0-1.9,1.1-3,3-3h2.9c2,0,3,1.1,3,3v7.4h5.4c2,0,3,1.1,3,3v1.2
	c0,2-1.1,3-3,3H471v14c0,5.4,3.4,6.5,5.9,6.7c2.3,0.2,3,0.9,3,2.9v2.2c0,2.1-1.2,3-3.8,3c-6.6,0-14.4-3.5-14.4-13.3V247.6z"/>
</svg>
