<?xml version="1.0" encoding="utf-8"?>
<!-- Generator: Adobe Illustrator 19.2.1, SVG Export Plug-In . SVG Version: 6.00 Build 0)  -->
<!DOCTYPE svg PUBLIC "-//W3C//DTD SVG 1.1//EN" "http://www.w3.org/Graphics/SVG/1.1/DTD/svg11.dtd">
<svg version="1.1" id="Ebene_1" xmlns="http://www.w3.org/2000/svg" xmlns:xlink="http://www.w3.org/1999/xlink" x="0px" y="0px"
	 viewBox="0 0 500 500" style="enable-background:new 0 0 500 500;" xml:space="preserve">
<path d="M479.2,90.6v318.8c0,38.2-32.4,70.6-72.5,70.6H231c-40.1,0-72.5-30.5-72.5-70.6v-85.9h36.3v87.8c0,19.1,17.2,34.4,36.3,34.4
	h173.7c21,0,36.3-15.3,36.3-34.4V90.6c1.9-19.1-15.3-34.4-36.3-34.4H231c-21,0-36.3,15.3-36.3,34.4v87.8h-36.3V90.6
	C158.5,52.4,191,20,231,20h173.7C446.7,20,479.2,50.5,479.2,90.6z M68.8,270h271v-36.3H65l51.5-55.4l-26.7-24.8L2,251l89.7,97.3
	l26.7-24.8L68.8,270z"/>
</svg>
