<?xml version="1.0" encoding="utf-8"?>
<!-- Generator: Adobe Illustrator 19.2.1, SVG Export Plug-In . SVG Version: 6.00 Build 0)  -->
<!DOCTYPE svg PUBLIC "-//W3C//DTD SVG 1.1//EN" "http://www.w3.org/Graphics/SVG/1.1/DTD/svg11.dtd">
<svg version="1.1" id="Ebene_1" xmlns="http://www.w3.org/2000/svg" xmlns:xlink="http://www.w3.org/1999/xlink" x="0px" y="0px"
	 viewBox="0 0 500 500" style="enable-background:new 0 0 500 500;" xml:space="preserve">
<path d="M295.9,20c-101.5,0-184.1,82.5-184.1,184c0,39.7,12.8,76.4,34.2,106.5L29,427.7c-12,12-12,31.4,0,43.4c6,6,13.8,9,21.7,9
	c7.8,0,15.7-3,21.7-9l117.1-117.2c30.1,21.4,66.8,34.2,106.5,34.2C397.4,388,480,305.5,480,204S397.4,20,295.9,20z M295.9,326.7
	c-67.7,0-122.7-55-122.7-122.7c0-67.6,55-122.7,122.7-122.7s122.7,55,122.7,122.7C418.6,271.6,363.6,326.7,295.9,326.7z"/>
</svg>
