<?xml version="1.0" encoding="utf-8"?>
<!-- Generator: Adobe Illustrator 19.2.1, SVG Export Plug-In . SVG Version: 6.00 Build 0)  -->
<!DOCTYPE svg PUBLIC "-//W3C//DTD SVG 1.1//EN" "http://www.w3.org/Graphics/SVG/1.1/DTD/svg11.dtd">
<svg version="1.1" id="Ebene_1" xmlns="http://www.w3.org/2000/svg" xmlns:xlink="http://www.w3.org/1999/xlink" x="0px" y="0px"
	 viewBox="0 0 500 500" style="enable-background:new 0 0 500 500;" xml:space="preserve">
<path d="M250,209.7c32.6,0,59.4-26.9,59.4-57.5S282.6,94.6,250,94.6s-59.4,26.9-59.4,57.5C190.6,184.8,217.4,209.7,250,209.7z
	 M250,125.3c13.4,0,26.8,13.4,26.8,26.9c0,13.4-13.4,26.9-26.8,26.9c-15.3,0-26.8-11.5-26.8-26.9C223.2,138.7,234.7,125.3,250,125.3
	z M412.9,263.4L412.9,263.4h-76.7c21.1-42.2,30.7-76.7,30.7-109.3c0-30.7-11.5-59.5-32.6-80.6C311.3,52.4,280.7,39,250,39
	c-65.2,0-116.9,51.8-116.9,115.1c0,32.6,9.6,67.1,30.7,109.3H87.1L20,459.1v1.9h460L412.9,263.4z M250,69.7
	c47.9,0,84.3,38.4,84.3,86.3c0,30.7-11.5,67.1-32.6,107.4c-19.2,36.4-42.2,65.2-51.7,76.7c-9.6-11.5-32.6-42.2-51.8-76.7
	c-23-40.3-32.6-76.7-32.6-107.4C165.7,108.1,202.1,69.7,250,69.7z M181,292.2c28.8,51.8,57.5,78.6,57.5,80.6l11.5,13.4l11.5-13.4
	c5.8-5.8,32.6-32.6,55.6-80.6H388l47.9,138.1H62.2l46-138.1H181z"/>
</svg>
