<svg id="Layer_1" data-name="Layer 1" xmlns="http://www.w3.org/2000/svg" width="28" height="28" viewBox="0 0 28 28"><path id="_28x28-a" data-name="28x28-a" d="M25,1a3,3,0,0,1,3,3V24a3,3,0,0,1-3,3H3a3,3,0,0,1-3-3V4A3,3,0,0,1,3,1Zm1,8H2V24a1,1,0,0,0,.8834.9933L3,25H25a1,1,0,0,0,.9933-.8834L26,24ZM14,10a7,7,0,1,1-7,7A7,7,0,0,1,14,10Zm0,2a5,5,0,1,0,5,5A5,5,0,0,0,14,12Zm0,2a1,1,0,0,1,1,1v1h2a1,1,0,0,1,0,2H14a1,1,0,0,1-1-1V15A1,1,0,0,1,14,14ZM25,3H3a1,1,0,0,0-.9933.8834L2,4V7H26V4a1,1,0,0,0-.8834-.9933ZM8,4A1,1,0,0,1,8,6H4A1,1,0,0,1,4,4Z" fill="#393939"/></svg>