<svg id="Layer_1" data-name="Layer 1" xmlns="http://www.w3.org/2000/svg" width="28" height="28" viewBox="0 0 28 28"><path id="_28x28-a" data-name="28x28-a" d="M25,1a3,3,0,0,1,3,3V24a3,3,0,0,1-3,3H3a3,3,0,0,1-3-3V4A3,3,0,0,1,3,1Zm1,8H2V24a1,1,0,0,0,.8834.9933L3,25H25a1,1,0,0,0,.9933-.8834L26,24ZM11.5,20A1.5,1.5,0,1,1,10,21.5,1.5,1.5,0,0,1,11.5,20Zm7,0A1.5,1.5,0,1,1,17,21.5,1.5,1.5,0,0,1,18.5,20ZM8.618,10l1,2H22.3874l-2.6666,8H10.2792L8.073,13.383,7.381,12H6a1,1,0,0,1-.9933-.8834L5,11a1,1,0,0,1,.8834-.9933L6,10Zm10.994,4H10.387l1.333,4h6.559ZM25,3H3a1,1,0,0,0-.9933.8834L2,4V7H26V4a1,1,0,0,0-.8834-.9933ZM8,4A1,1,0,0,1,8,6H4A1,1,0,0,1,4,4Z" fill="#393939"/></svg>