<svg id="Layer_1" data-name="Layer 1" xmlns="http://www.w3.org/2000/svg" width="28" height="28" viewBox="0 0 28 28"><path id="_28x28-a" data-name="28x28-a" d="M18,7c3.069,0,4.7326,2.1413,4.97,6H25a3,3,0,0,1,3,3v6a6,6,0,0,1-12,0V16a3,3,0,0,1,3-3l1.97-.0007C20.79,10.2025,19.8063,9,18,9c-.9259,0-1.6862,1.4349-2.9414,5.4619l-.3135,1.01C13.1944,20.4082,12.281,22,10,22c-3.3247,0-5-2.513-5-7a1,1,0,0,1,2,0c0,3.513.9914,5,3,5,.9259,0,1.6862-1.4349,2.9414-5.4619l.3135-1.01C14.8056,8.5918,15.719,7,18,7Zm8,13H18v2a4,4,0,0,0,7.9951.2L26,22Zm-5-5H19a1,1,0,0,0-.9933.8834L18,16v2h3Zm4,0H23v3h3V16a1,1,0,0,0-.8834-.9933ZM11,11a1,1,0,0,1,0,2H1a1,1,0,0,1,0-2ZM6,5a1,1,0,0,1,.9933.8834L7,6a4,4,0,0,1,3.9951,3.8L11,10H1A4,4,0,0,1,5,6,1,1,0,0,1,6,5ZM6,0A1,1,0,0,1,7,1V3A1,1,0,0,1,5,3V1A1,1,0,0,1,6,0Zm5.7071,1.2929a1,1,0,0,1,.0832,1.32l-.0832.0942-1,1A1,1,0,0,1,9.21,2.3871l.0832-.0942,1-1A1,1,0,0,1,11.7071,1.2929ZM1.6129,1.21l.0942.0832,1,1A1,1,0,0,1,1.3871,3.79l-.0942-.0832-1-1A1,1,0,0,1,1.6129,1.21Z" fill="#393939"/></svg>