<?xml version="1.0" encoding="utf-8"?>
<!-- Generator: Adobe Illustrator 19.2.1, SVG Export Plug-In . SVG Version: 6.00 Build 0)  -->
<!DOCTYPE svg PUBLIC "-//W3C//DTD SVG 1.1//EN" "http://www.w3.org/Graphics/SVG/1.1/DTD/svg11.dtd">
<svg version="1.1" id="Ebene_1" xmlns="http://www.w3.org/2000/svg" xmlns:xlink="http://www.w3.org/1999/xlink" x="0px" y="0px"
	 viewBox="0 0 500 500" style="enable-background:new 0 0 500 500;" xml:space="preserve">
<path d="M444.3,157.7l-0.1-0.2c-7.8-14-17-22.1-28.3-25c-11.1-3.6-23.1-2.4-34.8,3.5c-10.4,5.2-20,14-28,25.1
	c3-8.4,5.2-17.5,6.4-27.2v-0.1c2.7-27-3.6-53.7-17-71.5C334,50.9,323.7,44.6,311.2,43H311c-15.9-1.4-31.5,6-43.9,20.9
	c-12,14.4-20.1,34.5-22.8,56.7c-2.8,22.6,0.1,43.4,8.5,60.1c8.9,19.3,22.7,30.7,38.7,32.1h4.5c16,0,31.1-9.2,42.6-24.5
	c-0.7,2-1.4,3.9-2.1,6l-0.1,0.3c-6.3,23.8-5.7,47.5,1.5,66.3c-26-22.4-58-38-87.7-35.3c-21.5,2-44,13.5-65.1,33.5
	c-6.1,5.8-12,12.3-17.6,19.1c5.3-19.9,1.7-45.7-9.7-67.2c-1.4-3-3-5.9-4.6-8.7c12.2,12,26.5,18.6,40.2,18.6H205l0.8-0.3
	c12.1-4.5,22.3-13.6,28-25c11.2-19.7,12.9-47.6,4.4-74.5c-6.7-21.5-18.3-40-32.7-52c-14.9-12.5-31.5-17-46.7-12.6l-0.4,0.1
	c-12.3,4.6-20.9,12.3-27.9,24.9l-0.1,0.2c-9.8,19.6-11.4,46.1-4.4,72.8v0.1c2.7,9.5,6.5,18.4,11.2,26.6c-9-9.1-19.2-15.7-29.9-19.4
	c-13.2-4.5-26.1-3.9-37.3,1.7C58.6,169,50.6,179,45.9,193l-0.1,0.2c-6,21-2.2,49.1,9.7,71.6c14.9,31.1,42.4,52.1,68.4,52.1
	c5.2,0,13.1-1.2,18.5-4.7c1.4-0.7,2.8-1.5,4.1-2.4c-2.1,4-4.1,8-5.8,12c-15.1,34.3-14.4,66.7,1.9,88.9c13.8,18.8,31.8,28.7,52,28.7
	c16,0,32.6-6.1,47.3-11.4l2.4-0.9l0.3-0.1c1.4-0.6,2.7-1.2,4-1.8c7.2-3.1,13.3-5.8,18-5.8c6.7,0,15.6,1.4,24,3.8l0.2,0.1
	c14.2,3.4,31.8,7.6,49.3,4.7c20.6-3.4,36.4-16.2,47-38c12.6-25.2,7.9-56-13.6-89c-2-3-4.1-6.1-6.4-9.1c0.7,0.2,1.4,0.4,2.1,0.6
	c4.7,1.5,7.9,1.5,12.1,1.5c27.7,0,56.1-26.7,67.4-63.5l0.1-0.2C455.7,203.8,454.1,177.3,444.3,157.7z M144.5,277l-0.1,0.2
	c-2,7-5.7,11.7-12.4,15.7c-4.8,2.7-10.6,3.1-17.2,1.1c-14.8-4.5-30-19.4-39.8-39l-0.1-0.1c-9.7-18.2-12.7-39.6-7.7-54.7l0.1-0.2
	c2-6.9,5.6-11.5,12-15.5c3.5-1.2,6.8-2.2,9.9-2.2c17.7,0,36.7,16,47.4,39.7l0.1,0.3C146.5,240.4,149.5,261.9,144.5,277z M353,311.9
	c15.6,24.7,19.9,48.2,11.8,64.4c-15.9,31.9-39.8,29-71.6,21.4c-11-2.7-22.3-5.6-31.4-4.1c-7,1.2-14.4,4-23,7.3
	c-1.9,0.7-3.9,1.5-6,2.3l-0.4,0.2c-26.8,12.7-52.6,21.7-73.8-7.8c-10.4-13.9-9.7-37.2,1.9-65.7c19.2-43.5,58.8-79.6,90.2-82.3h5.1
	C287.1,247.6,329.8,275.8,353,311.9z M336.2,131.4c-2.4,21.8-11.6,41.4-24,51.2c-3.9,3.1-10,6.6-17,5.7c-9-1.1-15.6-6.9-21.5-18.6
	c-6.4-12.9-8.6-29.3-6.2-46.4v-0.1c1.8-15.8,7.2-30.4,15.1-41.3c7.2-9.9,15.9-15.6,23.9-15.6h1.3c5.3,0,10.7,3.4,16,10
	C334.2,90.5,338.7,110.6,336.2,131.4z M394.9,268.6c-6.5,3.4-13,4.3-18.7,2.6c-6.2-2.5-11.5-7.5-14.5-13.5l-0.1-0.2
	c-7.5-13.7-8.4-35.2-2.3-54.8c8.7-28.5,27-48.4,44.5-48.4c2.4,0,3.2,0,6.3,1c6.2,2.5,11.5,7.5,14.6,13.5l0.1,0.2
	c7.5,13.7,8.4,35.2,2.3,54.8C420.7,244.3,408.4,261.5,394.9,268.6z M167.2,78.5c0.7-0.2,2.4-0.2,3.4-0.2c14.8,0,36.5,19,45.9,49.7
	c6.2,21,5.3,41-2.3,56.3c-3,6.1-8.3,11-14.5,13.5c-5.6,1.7-11.6,0.8-18-2.5c-13.8-7.2-26.4-25-32.9-46.2
	c-6.1-20.9-5.3-42.4,2.3-56.2l0.1-0.2c3.1-6.1,8.4-11.1,14.7-13.6l1-0.4L167.2,78.5z"/>
</svg>
