<?xml version="1.0" encoding="utf-8"?>
<!-- Generator: Adobe Illustrator 21.0.0, SVG Export Plug-In . SVG Version: 6.00 Build 0)  -->
<svg version="1.1" id="Ebene_1" xmlns="http://www.w3.org/2000/svg" xmlns:xlink="http://www.w3.org/1999/xlink" x="0px" y="0px"
	 viewBox="0 0 500 500" style="enable-background:new 0 0 500 500;" xml:space="preserve">
<style type="text/css">
	.st0{fill:#010202;}
</style>
<path class="st0" d="M322.6,39c-51.7,0-93.8,44.1-93.8,95.9c0,24.9,9.6,46,24.9,63.3l1.9,1.9h-1.9c-49.8,40.3-78.5,126.6-84.2,195.7
	c-1.9,13.4,0,65.2,47.9,65.2H426c49.8,0,51.7-49.9,49.8-65.2C464.3,296,426,227,391.6,200.1h-1.9l1.9-1.9
	c17.2-17.3,24.9-40.3,24.9-63.3C416.5,81.2,374.3,39,322.6,39z M428,420.7H219.2c-13.4,0-13.4-17.3-13.4-21.1
	c7.7-82.5,42.1-159.2,78.5-176.5l0,0l0,0c11.5,3.8,24.9,5.8,36.4,5.8s24.9-1.9,36.4-5.8l0,0l0,0c36.4,17.3,70.8,94,80.4,178.4l0,0
	l0,0C437.5,401.5,437.5,420.7,428,420.7z M122,284.5H85.6v-53.7H32v-34.5h53.6v-51.8H122v53.7h53.6v34.5H122V284.5z M322.6,192.5
	c-32.6,0-57.4-26.9-57.4-57.5s26.8-57.5,57.4-57.5c32.6,0,57.4,26.9,57.4,57.5S353.3,192.5,322.6,192.5z"/>
</svg>
