<?xml version="1.0" encoding="utf-8"?>
<!-- Generator: Adobe Illustrator 19.2.1, SVG Export Plug-In . SVG Version: 6.00 Build 0)  -->
<!DOCTYPE svg PUBLIC "-//W3C//DTD SVG 1.1//EN" "http://www.w3.org/Graphics/SVG/1.1/DTD/svg11.dtd">
<svg version="1.1" id="Ebene_1" xmlns="http://www.w3.org/2000/svg" xmlns:xlink="http://www.w3.org/1999/xlink" x="0px" y="0px"
	 viewBox="0 0 500 500" style="enable-background:new 0 0 500 500;" xml:space="preserve">
<path d="M102.7,132.9c-31.5,0-57.5,27.9-57.5,59.5c0,11.2,3.7,22.3,9.3,33.5l0,0l0,0C28.5,253.7,10,324.3,10,341.1
	c1.9,33.5,25.9,33.5,35.2,33.5h76v1.9c0,11.2,0,29.7,11.1,44.6c7.4,9.3,18.5,13,33.4,13h177.9c14.8,0,25.9-3.7,33.4-13
	c13-14.9,9.3-35.3,7.4-46.5v-1.9h76c11.1,0,18.5-1.9,24.1-7.4c5.6-7.4,5.6-16.7,5.6-26c-3.7-44.6-22.2-87.4-44.5-111.5l0,0l0,0
	c7.4-11.2,13-24.2,13-33.5c0-31.6-25.9-59.5-57.5-59.5s-57.5,27.9-57.5,59.5c0,13,5.6,22.3,9.3,31.6l0,0l0,0
	c-3.7,3.7-9.3,9.3-14.8,18.6v1.9v-1.9c-7.4-13-16.7-24.2-25.9-31.6l0,0l0,0c14.8-16.7,24.1-37.2,24.1-59.5s-7.4-44.6-24.1-61.3
	S275,66,252.8,66c-46.3,0-83.4,39-83.4,87.4c0,22.3,7.4,42.7,24.1,59.5l0,0l0,0c-9.3,7.4-16.7,18.6-25.9,29.7v1.9v-1.9
	c-3.7-5.6-7.4-11.2-13-16.7l0,0l0,0c5.6-7.4,9.3-18.6,9.3-31.6C160.1,158.9,134.2,132.9,102.7,132.9z M339.9,398.7H162
	c-5.6,0-9.3-3.7-9.3-11.2c7.4-70.6,35.2-137.5,66.7-156.1l0,0l0,0c20.4,9.3,42.6,9.3,63,0l0,0l0,0c29.7,16.7,61.2,85.5,66.7,156.1
	v1.9c0,1.9,0,5.6-1.9,7.4C347.3,398.7,343.6,398.7,339.9,398.7z M458.5,344.8H377l0,0c-3.7-24.2-13-52-20.4-70.6l0,0l0,0
	c3.7-9.3,11.1-24.2,18.5-31.6l0,0l0,0c9.3,5.6,31.5,11.2,50,1.9l0,0l0,0c14.8,13,33.4,44.6,37.1,91.1v1.9c0,1.9,0,5.6-1.9,7.4
	C462.2,344.8,460.3,344.8,458.5,344.8z M124.9,344.8L124.9,344.8l-81.5-1.9c-5.6,0-5.6-1.9-5.6-3.7c3.7-44.6,22.2-79.9,38.9-94.8
	l0,0l0,0c13,3.7,33.4,5.6,51.9-1.9l0,0l0,0c5.6,3.7,14.8,13,20.4,26l0,0l0,0C139.7,290.9,130.5,315.1,124.9,344.8L124.9,344.8z
	 M402.9,220.3c-18.5,0-31.5-13-31.5-27.9c0-16.7,11.1-31.6,31.5-31.6c18.5,0,31.5,13,31.5,31.6C432.5,207.3,417.7,220.3,402.9,220.3
	z M100.8,220.3c-18.5,0-29.7-14.9-29.7-27.9c0-14.9,9.3-31.6,29.7-31.6s33.4,11.2,33.4,31.6C134.2,209.1,121.2,220.3,100.8,220.3z
	 M250.9,203.5c-27.8,0-51.9-24.2-51.9-53.9c0-27.9,22.2-52,51.9-53.9c1.9,0,3.7,0,3.7,0c14.8,0,25.9,7.4,33.4,13
	c11.1,9.3,18.5,24.2,18.5,40.9C306.5,177.5,280.6,203.5,250.9,203.5z"/>
</svg>
