<?xml version="1.0" encoding="utf-8"?>
<!-- Generator: Adobe Illustrator 19.2.1, SVG Export Plug-In . SVG Version: 6.00 Build 0)  -->
<!DOCTYPE svg PUBLIC "-//W3C//DTD SVG 1.1//EN" "http://www.w3.org/Graphics/SVG/1.1/DTD/svg11.dtd">
<svg version="1.1" id="Ebene_1" xmlns="http://www.w3.org/2000/svg" xmlns:xlink="http://www.w3.org/1999/xlink" x="0px" y="0px"
	 viewBox="0 0 500 500" style="enable-background:new 0 0 500 500;" xml:space="preserve">
<path d="M250,46.4c73.2,0,132.5,60.2,132.5,134.6c0,128.8-132.5,261.5-132.5,261.5S117.5,309.8,117.5,181
	C117.5,106.5,176.8,46.4,250,46.4 M250,266.5c48.8,0,88.3-39.4,88.3-88s-39.6-88-88.3-88c-48.8,0-88.4,39.4-88.4,88
	S201.2,266.5,250,266.5 M250,20C162.3,20,91,92.2,91,181c0,138.1,134.5,274.4,140.2,280.2L250,480l18.8-18.8
	C274.5,455.4,409,319.1,409,181C409,92.2,337.7,20,250,20L250,20z M250,240.1c-34.1,0-61.9-27.6-61.9-61.6s27.7-61.6,61.9-61.6
	c34.1,0,61.8,27.6,61.8,61.6S284.1,240.1,250,240.1L250,240.1z"/>
</svg>
