<?xml version="1.0" encoding="UTF-8"?>
<svg viewBox="0 0 11 18" version="1.1" xmlns="http://www.w3.org/2000/svg" xmlns:xlink="http://www.w3.org/1999/xlink">
    <!-- Generator: Sketch 47.1 (45422) - http://www.bohemiancoding.com/sketch -->
    <title>Fill 1</title>
    <desc>Created with Sketch.</desc>
    <defs></defs>
    <g id="Desktop" stroke="none" stroke-width="1" fill="none" fill-rule="evenodd">
        <g id="V01-1" transform="translate(-816.000000, -470.000000)" fill="#000000">
            <g id="Group-8">
                <g id="Group" transform="translate(799.000000, 457.000000)">
                    <path d="M19.6406957,28.1995 C19.6406957,27.5814348 19.8062826,27.1142826 20.1373261,26.7978478 C20.4684348,26.4815435 20.9502609,26.3232609 21.5831957,26.3232609 C22.1938261,26.3232609 22.6665217,26.4851957 23.001413,26.8088696 C23.3361087,27.1327391 23.503587,27.5962391 23.503587,28.1995 C23.503587,28.7808478 23.3342174,29.2388696 22.9958696,29.5735652 C22.6573913,29.9083261 22.1863913,30.0758043 21.5831957,30.0758043 C20.9651304,30.0758043 20.4867609,29.911913 20.148413,29.5846522 C19.8098696,29.2573261 19.6406957,28.7955217 19.6406957,28.1995 L19.6406957,28.1995 Z M19.993913,24.424913 L19.993913,23.6081957 C19.993913,22.9018261 20.1446304,22.2875435 20.4463913,21.7650217 C20.7480217,21.2426957 21.2998261,20.6872391 22.1019348,20.0984565 C22.8745,19.5466522 23.383913,19.0978913 23.6305,18.7519783 C23.8769565,18.4061957 24.0002174,18.019913 24.0002174,17.5931304 C24.0002174,17.1148913 23.8236739,16.7507174 23.4704565,16.5004783 C23.1173043,16.2504348 22.6242609,16.1252174 21.9915217,16.1252174 C20.8878478,16.1252174 19.6296739,16.4858043 18.2169348,17.2068478 L17.0139348,14.7897609 C18.6546087,13.8700652 20.3948043,13.4101522 22.2343261,13.4101522 C23.7500435,13.4101522 24.9549348,13.7743913 25.8489348,14.5028043 C26.7428696,15.2312174 27.1898696,16.2025 27.1898696,17.4165217 C27.1898696,18.226 27.0058913,18.9249348 26.6380652,19.5135217 C26.2700435,20.1023043 25.5711087,20.7644565 24.5410652,21.5001739 C23.8346957,22.0226957 23.3876957,22.42 23.2000652,22.6921522 C23.0124348,22.9644348 22.9186522,23.3212391 22.9186522,23.7626957 L22.9186522,24.424913 L19.993913,24.424913 Z" id="Fill-1"></path>
                </g>
            </g>
        </g>
    </g>
</svg>
