<?xml version="1.0" encoding="utf-8"?>
<!-- Generator: Adobe Illustrator 20.1.0, SVG Export Plug-In . SVG Version: 6.00 Build 0)  -->
<!DOCTYPE svg PUBLIC "-//W3C//DTD SVG 1.1//EN" "http://www.w3.org/Graphics/SVG/1.1/DTD/svg11.dtd">
<svg version="1.1" id="Ebene_1" xmlns="http://www.w3.org/2000/svg" xmlns:xlink="http://www.w3.org/1999/xlink" x="0px" y="0px"
	 viewBox="0 0 500 500" style="enable-background:new 0 0 500 500;" xml:space="preserve">
<path d="M467.6,260.7v99.9c0,32-26,58-58,58h-320c-32,0-58-26-58-58v-220c0-32,26-58,58-58h131.8l-45.7,36H89.6
	c-12.1,0-22,9.9-22,22v220c0,12.1,9.9,22,22,22h320c12.1,0,22-9.9,22-22v-72.3L467.6,260.7z M468,151.1L343.8,71.3
	c-6.6-4.3-15.3,0.5-15.3,8.4v44.1c-38.2,11.5-117.2,45.9-146.7,138.3c49.1-49.1,114.1-61.3,146.7-64.3v41.6c0,7.9,8.7,12.6,15.3,8.4
	L468,167.9C474.1,164,474.1,155.1,468,151.1z"/>
</svg>
