<?xml version="1.0" encoding="utf-8"?>
<!-- Generator: Adobe Illustrator 21.0.0, SVG Export Plug-In . SVG Version: 6.00 Build 0)  -->
<!DOCTYPE svg PUBLIC "-//W3C//DTD SVG 1.1//EN" "http://www.w3.org/Graphics/SVG/1.1/DTD/svg11.dtd">
<svg version="1.1" id="Ebene_1" xmlns="http://www.w3.org/2000/svg" xmlns:xlink="http://www.w3.org/1999/xlink" x="0px" y="0px"
	 viewBox="0 0 500 500" style="enable-background:new 0 0 500 500;" xml:space="preserve">
<path d="M244,16C117.2,16,14,119.2,14,246s103.2,230,230,230s230-103.2,230-230S370.9,16,244,16z M244,441.7
	c-107.9,0-195.7-87.8-195.7-195.7S136.1,50.3,244,50.3S439.7,138.1,439.7,246S351.9,441.7,244,441.7z M310,181v103.1
	c-0.3,4.3-4.5,19.8-15.6,33.9c-12.7,16-29.2,23.8-50.4,23.8s-37.6-7.8-50.4-23.8c-11.2-14.1-15.3-29.7-15.6-33.9V181H310 M325.9,147
	H161.2c-9.5,0-17.1,7.6-17.1,18.1v119.2c0,20,24.8,91.5,100,91.5s100-71.5,100-91.5V165.1C344,154.6,336.4,147,325.9,147L325.9,147z
	"/>
</svg>
