<?xml version="1.0" encoding="utf-8"?>
<!-- Generator: Adobe Illustrator 19.2.1, SVG Export Plug-In . SVG Version: 6.00 Build 0)  -->
<!DOCTYPE svg PUBLIC "-//W3C//DTD SVG 1.1//EN" "http://www.w3.org/Graphics/SVG/1.1/DTD/svg11.dtd">
<svg version="1.1" id="Ebene_1" xmlns="http://www.w3.org/2000/svg" xmlns:xlink="http://www.w3.org/1999/xlink" x="0px" y="0px"
	 viewBox="0 0 500 500" style="enable-background:new 0 0 500 500;" xml:space="preserve">
<path d="M485,425.8l-111.6-35c-38.5,21.6-85.8,33.4-134.1,33.4C115.6,424.2,15,348.3,15,255.1S115.6,86,239.3,86
	s224.3,75.9,224.3,169.1c0,20.1-4.7,39.7-13.8,58.5L485,425.8z M239.3,120.5c-104.7,0-189.8,60.4-189.8,134.6
	s85.1,134.6,189.8,134.6c45,0,88.7-11.5,123.1-32.4l6.7-4.1l63.2,19.8l-19.8-63l3.6-6.5c8.7-15.7,13-32,13-48.6
	C429.1,180.9,344,120.5,239.3,120.5z"/>
</svg>
