<?xml version="1.0" encoding="utf-8"?>
<!-- Generator: Adobe Illustrator 19.2.1, SVG Export Plug-In . SVG Version: 6.00 Build 0)  -->
<!DOCTYPE svg PUBLIC "-//W3C//DTD SVG 1.1//EN" "http://www.w3.org/Graphics/SVG/1.1/DTD/svg11.dtd">
<svg version="1.1" id="Ebene_1" xmlns="http://www.w3.org/2000/svg" xmlns:xlink="http://www.w3.org/1999/xlink" x="0px" y="0px"
	 viewBox="0 0 500 500" style="enable-background:new 0 0 500 500;" xml:space="preserve">
<path d="M186.8,250c0,15.4-11.5,26.9-26.8,26.9s-26.8-13.5-26.8-26.9c0-15.4,11.5-26.9,26.8-26.9S186.8,234.6,186.8,250z
	 M242.3,223.1c-15.3,0-26.8,11.5-26.8,26.9s11.5,26.9,26.8,26.9s26.8-13.5,26.8-26.9C269.2,234.6,257.7,223.1,242.3,223.1z
	 M322.8,223.1c-15.3,0-26.8,11.5-26.8,26.9s11.5,26.9,26.8,26.9s26.8-11.5,26.8-26.9C351.6,234.6,338.2,223.1,322.8,223.1z
	 M445.5,311.5c9.6-19.2,15.3-40.4,15.3-61.5c-1.9-96.1-99.7-173-220.4-173C117.8,77,20,153.9,20,250s97.8,171.1,220.4,173
	c47.9,0,95.8-11.5,134.2-34.6L480,423L445.5,311.5z M368.8,355.7l-5.7,3.8c-34.5,23.1-78.6,34.6-124.6,34.6
	c-105.4,0-191.7-65.4-191.7-144.2S133,105.7,240.4,105.7S432.1,171.2,432.1,250c0,17.3-5.8,36.5-13.4,51.9l-3.8,5.8l21.1,71.1
	L368.8,355.7z"/>
</svg>
