<svg xmlns="http://www.w3.org/2000/svg" xmlns:xlink="http://www.w3.org/1999/xlink" viewBox="0 0 24 22">
  <path fill="#000000" transform="translate(0 -1)" d="M20.3818916,16.1977128 L20.8250542,15.4939077 C21.5948843,14.2713084 22,12.9108217 22,11.5 C22,6.86939206 17.5778376,3 12,3 C6.42216236,3 2,6.86939206 2,11.5 C2,16.1306079 6.42216236,20 12,20 C13.6018603,20 15.1449303,19.6793662 16.536436,19.074179 L17.2208261,18.7765272 L21.2678328,20.046483 L20.3818916,16.1977128 Z M12,1 C18.627417,1 24,5.70101013 24,11.5 C24,13.3344153 23.4623821,15.058959 22.5174916,16.5595791 L24,23 L17.3340929,20.9082301 C15.7272922,21.6070524 13.9160906,22 12,22 C5.372583,22 0,17.2989899 0,11.5 C0,5.70101013 5.372583,1 12,1 Z M17,13 L9,13 C8.44771525,13 8,13.4477153 8,14 C8,14.5522847 8.44771525,15 9,15 L9,15 L17,15 C17.5522847,15 18,14.5522847 18,14 C18,13.4477153 17.5522847,13 17,13 L17,13 Z M15,8 L7,8 C6.44771525,8 6,8.44771525 6,9 C6,9.55228475 6.44771525,10 7,10 L7,10 L15,10 C15.5522847,10 16,9.55228475 16,9 C16,8.44771525 15.5522847,8 15,8 L15,8 Z"/>
</svg>
