<?xml version="1.0" encoding="UTF-8"?>
<svg viewBox="0 0 24 24" xmlns="http://www.w3.org/2000/svg" xmlns:xlink="http://www.w3.org/1999/xlink">
<defs>
<path id="a" d="M20.382 16.198l.443-.704C21.595 14.27 22 12.91 22 11.5 22 6.87 17.578 3 12 3S2 6.87 2 11.5 6.422 20 12 20c1.602 0 3.145-.32 4.536-.926l.685-.297 4.047 1.27-.886-3.85zM12 1c6.627 0 12 4.701 12 10.5 0 1.834-.538 3.559-1.483 5.06L24 23l-6.666-2.092A13.368 13.368 0 0 1 12 22C5.373 22 0 17.299 0 11.5S5.373 1 12 1zm5 12H9a1 1 0 0 0 0 2h8a1 1 0 0 0 0-2zm-2-5H7a1 1 0 1 0 0 2h8a1 1 0 0 0 0-2z"/>
</defs>
<g fill="none" fill-rule="evenodd">
<path d="M0 0h24v24H0z"/>
<mask id="b" fill="#fff">
<use xlink:href="#a"/>
</mask>
<use fill="#393939" fill-rule="nonzero" xlink:href="#a"/>
<g fill="#799189" fill-rule="nonzero" mask="url(#b)">
<path d="M0 0h24v24H0z"/>
</g>
</g>
</svg>
