<?xml version="1.0" encoding="utf-8"?>
<!-- Generator: Adobe Illustrator 19.2.1, SVG Export Plug-In . SVG Version: 6.00 Build 0)  -->
<!DOCTYPE svg PUBLIC "-//W3C//DTD SVG 1.1//EN" "http://www.w3.org/Graphics/SVG/1.1/DTD/svg11.dtd">
<svg version="1.1" id="Ebene_1" xmlns="http://www.w3.org/2000/svg" xmlns:xlink="http://www.w3.org/1999/xlink" x="0px" y="0px"
	 viewBox="0 0 500 500" style="enable-background:new 0 0 500 500;" xml:space="preserve">
<path id="XMLID_573_" d="M250,480l-2.8-1c-2.5-0.9-252.5-89.4-191.6-392.2l1.6-8.1l8.2,1.2C166.5,94.5,190.6,73,234.2,34
	c3.2-2.9,6.5-5.8,10-8.9L250,20l5.8,5.1c3.4,3,6.7,6,10,8.9c43.7,39,67.7,60.5,168.8,45.9l8.2-1.2l1.6,8.1
	c61,302.8-189,391.4-191.6,392.2L250,480z M71.2,98.4c-49.4,267.3,151,352.5,178.8,363c27.8-10.4,228.2-95.7,178.8-363
	C326.3,111.7,297.4,85.8,254,47.1c-1.3-1.2-2.7-2.4-4-3.6c-1.4,1.2-2.7,2.4-4,3.6C202.7,85.8,173.7,111.7,71.2,98.4z M177.9,348
	l13.8-80.1l-58.3-56.8l80.6-11.7l36-72.9l36,72.9l80.6,11.7l-58.3,56.7l13.8,80.2L250,310.1L177.9,348z M250,290.3l48.7,25.6
	l-9.3-54.2l39.4-38.3l-54.5-7.9L250,166.2l-24.4,49.3l-54.5,7.9l39.4,38.4l-9.3,54.1L250,290.3z"/>
</svg>
