<svg id="Layer_1" data-name="Layer 1" xmlns="http://www.w3.org/2000/svg" width="28" height="28" viewBox="0 0 28 28"><path id="_28x28-a" data-name="28x28-a" d="M23.4471.1058A1,1,0,0,1,23.94,1.34l-.0461.1073L19.5519,10.13A3.5026,3.5026,0,0,1,24,13.5l-.007.2225h0L24.1507,14l.03,0-.0066.0388,3.6944,6.465a1,1,0,0,1-1.6728,1.09l-.0637-.0979L23.6527,17.16,21.847,28H6.153L4.3459,17.16,1.8684,21.4962A1,1,0,0,1,.08,20.6085l.052-.1046,3.6931-6.465L3.82,14l.0283,0,.1575-.2775A7,7,0,0,1,15.8542,8.9566L17.01.8588A1,1,0,0,1,18.025,0l.1164.01A1,1,0,0,1,19,1.0252l-.01.1164L17.8618,9.0389,22.1055.553A1,1,0,0,1,23.4471.1058ZM11.4023,22.0011,7.18,22l.6672,4H20.1519l.6668-4-4.221.0013a3.396,3.396,0,0,1-2.4.9947L14,23A3.4743,3.4743,0,0,1,11.4023,22.0011ZM21.8189,16H6.18l.6668,4,4.5545,0a3.3954,3.3954,0,0,1,2.4014-.9957L14,19a3.4737,3.4737,0,0,1,2.5986,1l4.5531,0ZM11,9a5,5,0,0,0-5,5H7a4,4,0,1,1,8,0l.1328,0,.3242-2.2681A5,5,0,0,0,11,9Zm0,3a2,2,0,0,0-2,2h1a1,1,0,0,1,2,0h1A2,2,0,0,0,11,12Zm9.5,0a1.501,1.501,0,0,0-1.4144,2.0007h2.8288A1.501,1.501,0,0,0,20.5,12Z" fill="#393939"/></svg>