<svg id="Layer_1" data-name="Layer 1" xmlns="http://www.w3.org/2000/svg" width="28" height="28" viewBox="0 0 28 28"><path id="_28x28-a" data-name="28x28-a" d="M5.8438,8.6338l3.1206,3.1206a2.1642,2.1642,0,0,1,0,3.06L7.64,16.139A12.0188,12.0188,0,0,0,11.861,20.36l1.3241-1.3241a2.164,2.164,0,0,1,3.06,0l3.1206,3.1205a2.1642,2.1642,0,0,1,0,3.0605L17.8631,26.72a4.3709,4.3709,0,0,1-5.4387.5958,38.2411,38.2411,0,0,1-6.52-5.2195,38.2411,38.2411,0,0,1-5.2195-6.52A4.3709,4.3709,0,0,1,1.28,10.1369L2.7833,8.6338A2.1642,2.1642,0,0,1,5.8438,8.6338ZM4.1975,10.048,2.6944,11.5511a2.3708,2.3708,0,0,0-.3231,2.95,36.2371,36.2371,0,0,0,4.9468,6.1808,36.2371,36.2371,0,0,0,6.1808,4.9468,2.3708,2.3708,0,0,0,2.95-.3231l1.5031-1.5031a.1643.1643,0,0,0,0-.2321l-3.1206-3.12a.164.164,0,0,0-.232,0l-2.4265,2.4264-1.338-.8a14.0184,14.0184,0,0,1-4.9114-4.9114l-.8-1.338L7.55,13.4007a.1641.1641,0,0,0,0-.2321L4.43,10.048A.1643.1643,0,0,0,4.1975,10.048Zm21.7512,4.6358a1,1,0,0,1-.524,1.2216l-.1085.0433-6,2a1,1,0,0,1-.7409-1.8541l.1085-.0433,6-2A1,1,0,0,1,25.9487,14.6838ZM18.1845.73a9.6209,9.6209,0,0,1,9.1427,9.1426,1,1,0,0,1-.6338.9916L13.2141,16.1387a1,1,0,0,1-1.2956-1.2957L17.193,1.3638A1,1,0,0,1,18.1845.73Zm-.4779,4.8122L16.5508,8.4915a1.5,1.5,0,1,1-1.0924,2.794l-.8437,2.1569,4.2381-1.6588a1.5,1.5,0,0,1,2.7905-1.0911l.8714-.3427a8.3851,8.3851,0,0,0-1.53-3.2777A8.3872,8.3872,0,0,0,17.7066,5.5422Zm1.0723-2.7453-.3428.8756a9.62,9.62,0,0,1,3.9632,1.9854,9.6175,9.6175,0,0,1,1.9848,3.9613l.8754-.3417-.0406-.2642a7.3115,7.3115,0,0,0-1.89-3.8314l-.2226-.2311a7.3432,7.3432,0,0,0-4.0626-2.1126Zm.2564,3.8107L20.45,8.0218,19.0353,9.436,17.6211,8.0218ZM13.3162,1.0513a1,1,0,0,1,.663,1.1522l-.03.1127-2,6a1,1,0,0,1-1.9279-.52l.03-.1127,2-6A1,1,0,0,1,13.3162,1.0513Z" fill="#393939"/></svg>