<?xml version="1.0" encoding="UTF-8"?>
<svg viewBox="0 0 24 24" xmlns="http://www.w3.org/2000/svg" xmlns:xlink="http://www.w3.org/1999/xlink">
<defs>
<path id="a" d="M8 11.5v9.633l5.86.837a3 3 0 0 0 .424.03h4.938a2 2 0 0 0 1.994-1.847l.621-8.076A1 1 0 0 0 20.84 11h-4.453a2 2 0 0 1-1.897-2.632l.77-2.313A2.469 2.469 0 0 0 14.4 3.3l-.838-.628-1.23 4.309a5 5 0 0 1-1.808 2.626L8 11.5zM14.112.749a2 2 0 0 1 .65.323l.838.628a4.469 4.469 0 0 1 1.558 4.988L16.388 9h4.452a3 3 0 0 1 2.991 3.23l-.62 8.077A4 4 0 0 1 19.22 24h-4.937a5 5 0 0 1-.707-.05l-5.588-.798A1 1 0 0 1 7 24H1a1 1 0 0 1-1-1V9a1 1 0 0 1 1-1h6a1 1 0 0 1 1 1l1.324-.993a3 3 0 0 0 1.084-1.576l1.231-4.309A2 2 0 0 1 14.112.75zM6 10H2v12h4V10z"/>
</defs>
<g fill="none" fill-rule="evenodd">
<path d="M0 0h24v24H0z"/>
<mask id="b" fill="#fff">
<use xlink:href="#a"/>
</mask>
<use fill="#393939" fill-rule="nonzero" xlink:href="#a"/>
<g fill="#799189" fill-rule="nonzero" mask="url(#b)">
<path d="M0 0h24v24H0z"/>
</g>
</g>
</svg>
