<?xml version="1.0" encoding="utf-8"?>
<!-- Generator: Adobe Illustrator 19.2.1, SVG Export Plug-In . SVG Version: 6.00 Build 0)  -->
<!DOCTYPE svg PUBLIC "-//W3C//DTD SVG 1.1//EN" "http://www.w3.org/Graphics/SVG/1.1/DTD/svg11.dtd">
<svg version="1.1" id="Ebene_1" xmlns="http://www.w3.org/2000/svg" xmlns:xlink="http://www.w3.org/1999/xlink" x="0px" y="0px"
	 viewBox="0 0 500 500" style="enable-background:new 0 0 500 500;" xml:space="preserve">
<path d="M271.8,295.6l42.7,42.2l-21.8,21.8L250,316.8l-42.6,42.5l-21.8-21l42.7-42.8l-42.7-42.2l21.8-21.8l42.7,42.7l42.7-43.3
	l21.8,21.8L271.8,295.6z M96.3,111.2h307.3v306c-0.1,34.5-28.2,62.7-62.6,62.8H159c-34.4-0.1-62.5-28.3-62.7-62.8V111.2z
	 M369.4,417.2V145.6H130.6v271.6c0,15.7,12.7,28.4,28.4,28.4h182C356.6,445.6,369.4,432.9,369.4,417.2z M332.9,50.4L302.6,20H197.4
	l-30.3,30.4H66v34.4h115.2l30.3-30.4h76.9l30.3,30.4H434V50.4H332.9z"/>
</svg>
