<?xml version="1.0" encoding="utf-8"?>
<!-- Generator: Adobe Illustrator 19.2.1, SVG Export Plug-In . SVG Version: 6.00 Build 0)  -->
<!DOCTYPE svg PUBLIC "-//W3C//DTD SVG 1.1//EN" "http://www.w3.org/Graphics/SVG/1.1/DTD/svg11.dtd">
<svg version="1.1" id="Ebene_1" xmlns="http://www.w3.org/2000/svg" xmlns:xlink="http://www.w3.org/1999/xlink" x="0px" y="0px"
	 viewBox="0 0 500 500" style="enable-background:new 0 0 500 500;" xml:space="preserve">
<path d="M479.9,334.6c-4-42.6-20.7-91.5-45.5-111.3c7.5-8.6,12.1-19.9,12.1-32.2c0-27.1-22-49.1-49.1-49.1s-49.1,22-49.1,49.1
	c0,12.8,5,24.5,13.1,33.3c-9.2,7.1-17.2,17.9-24,30.7c-10.9-20.2-23.9-36.5-38.8-46.1c16.6-13.9,27.1-34.8,27.1-58.1
	c0-41.8-34-75.9-75.9-75.9c-41.8,0-75.9,34-75.9,75.9c0,23.8,11,45.1,28.3,59c-15,9.6-28.1,25.6-39.1,45.3
	c-6.7-13.4-14.7-24.6-23.8-31.9c7.5-8.6,12.1-19.9,12.1-32.2c0-27.1-22-49.1-49.1-49.1s-49.1,22-49.1,49.1c0,12.8,5,24.5,13.1,33.3
	c-25.5,19.8-42.4,68-46.4,110.3c-0.8,8.5,2.3,17.8,8.2,24.2c4.7,5.2,10.8,8.1,17.1,8.1h83.2c-0.5,3.6-0.9,7.2-1.2,10.7
	c-1.1,11.1,2.8,22.8,10.5,31.2c6.5,7.2,15,11.1,23.8,11.1h176.6c8.9,0,17.3-4,23.8-11.1c7.6-8.4,11.5-20,10.5-31.2
	c-0.3-3.5-0.7-7.1-1.2-10.7h83.2c6.3,0,12.4-2.9,17.1-8.1C477.5,352.4,480.7,343.1,479.9,334.6z M397.4,159.7
	c17.3,0,31.4,14.1,31.4,31.4s-14.1,31.4-31.4,31.4S366,208.4,366,191.1S380.1,159.7,397.4,159.7z M191.8,150.9
	c0-32.1,26.1-58.2,58.2-58.2s58.2,26.1,58.2,58.2S282.1,209,250,209S191.8,182.9,191.8,150.9z M102.6,159.7
	c17.3,0,31.4,14.1,31.4,31.4s-14.1,31.4-31.4,31.4s-31.4-14.1-31.4-31.4S85.3,159.7,102.6,159.7z M45.4,349c-1.7,0-3.2-1.3-4-2.2
	c-2.5-2.7-4-7-3.7-10.5c4.4-46.5,23.5-89.7,44-100.9c6.3,3,13.4,4.7,20.8,4.7c8.1,0,15.7-2,22.4-5.4c10.2,6.1,20.3,21.4,28.1,41.2
	c-9.8,22.5-17.2,47.9-21.7,73.1H45.4z M349,396.8c-1.8,2-5.6,5.2-10.7,5.2H161.7c-5.1,0-8.9-3.2-10.7-5.2c-4.3-4.7-6.5-11.3-6-17.4
	c7.2-74.7,40-144.4,74.6-158.7c0.1-0.1,0.3-0.1,0.4-0.2c9.2,4,19.3,6.2,30,6.2c11.3,0,21.9-2.5,31.6-6.9c0.6,0.3,1.3,0.5,1.9,0.8
	c36.8,17,65.3,94,71.5,158.7C355.6,385.5,353.3,392.1,349,396.8z M458.6,346.8c-0.8,0.9-2.3,2.2-4,2.2h-85.9
	c-4.5-25.3-11.8-50.8-21.3-73.4c8.1-19.5,18.5-34.3,29.3-40.2c6.3,3,13.4,4.7,20.8,4.7c8.1,0,15.7-2,22.4-5.4
	c19.3,11.5,38.1,55.9,42.4,101.6C462.6,339.8,461.1,344.1,458.6,346.8z"/>
</svg>
