<?xml version="1.0" encoding="utf-8"?>
<!-- Generator: Adobe Illustrator 20.1.0, SVG Export Plug-In . SVG Version: 6.00 Build 0)  -->
<!DOCTYPE svg PUBLIC "-//W3C//DTD SVG 1.1//EN" "http://www.w3.org/Graphics/SVG/1.1/DTD/svg11.dtd">
<svg version="1.1" id="Ebene_1" xmlns="http://www.w3.org/2000/svg" xmlns:xlink="http://www.w3.org/1999/xlink" x="0px" y="0px"
	 viewBox="0 0 500 500" style="enable-background:new 0 0 500 500;" xml:space="preserve">
<path d="M480,80H20v338.9h460V80z M219.9,277.4c9,3,19.5,4.5,28.6,4.5c9,0,19.5-1.5,28.6-4.5c24.3,11.5,47.6,56.8,58.6,110.8H162.1
	C172.1,334.7,195.5,289,219.9,277.4z M204.9,208.4c0-24,21-45,45.1-45c25.6,0,45.1,21,45.1,45s-21,45-45.1,45
	C224.4,253.4,204.9,232.4,204.9,208.4z M449.4,388.2h-82.7c-11.8-65-38.4-110-62.5-128.8v-1.5c13.5-13.5,19.5-31.5,19.5-49.5
	c0-42-33.1-75.1-73.7-75.1c-40.6,0-73.7,34.5-73.7,75.1c0,19.5,7.5,36,19.5,49.5v1.5c-33.4,26.9-54.7,80.2-63,128.8H50.6V110.7
	h398.8V388.2z"/>
</svg>
