<?xml version="1.0" encoding="utf-8"?>
<!-- Generator: Adobe Illustrator 21.0.0, SVG Export Plug-In . SVG Version: 6.00 Build 0)  -->
<!DOCTYPE svg PUBLIC "-//W3C//DTD SVG 1.1//EN" "http://www.w3.org/Graphics/SVG/1.1/DTD/svg11.dtd">
<svg version="1.1" id="Ebene_1" xmlns="http://www.w3.org/2000/svg" xmlns:xlink="http://www.w3.org/1999/xlink" x="0px" y="0px"
	 viewBox="0 0 500 500" style="enable-background:new 0 0 500 500;" xml:space="preserve">
<path d="M405.2,41.4H148.9c-20.4,0-37,16.6-37,37v211H37.5v59c0,0.2,0,0.5,0,0.7v55.3c0,24.8,20.2,45,45,45l322.8,0.5
	c20.4,0,37-16.6,37-37V78.4C442.2,58,425.6,41.4,405.2,41.4z M82.4,423.4c-10.5,0-19-8.5-19-19v-55.2v-33.8h47.1l1.2,108H82.4z
	 M416.2,412.9c0,6.1-4.9,11-11,11H148.9c-6.1,0-11-4.9-11-11V78.4c0-6.1,4.9-11,11-11h256.3c6.1,0,11,4.9,11,11L416.2,412.9
	L416.2,412.9z M370.9,165.2H183.6v-26h187.3L370.9,165.2L370.9,165.2z M370.9,223.3H183.6v-26h187.3L370.9,223.3L370.9,223.3z
	 M370.9,282.3H183.6v-26h187.3L370.9,282.3L370.9,282.3z M370.9,344.3H183.6v-26h187.3L370.9,344.3L370.9,344.3z"/>
</svg>
