<?xml version="1.0" encoding="utf-8"?>
<!-- Generator: Adobe Illustrator 19.2.1, SVG Export Plug-In . SVG Version: 6.00 Build 0)  -->
<!DOCTYPE svg PUBLIC "-//W3C//DTD SVG 1.1//EN" "http://www.w3.org/Graphics/SVG/1.1/DTD/svg11.dtd">
<svg version="1.1" id="Ebene_1" xmlns="http://www.w3.org/2000/svg" xmlns:xlink="http://www.w3.org/1999/xlink" x="0px" y="0px"
	 viewBox="0 0 500 500" style="enable-background:new 0 0 500 500;" xml:space="preserve">
<path d="M414.1,269.1L389.3,294l24.8,24.9l-21,19.1l-24.8-24.9L341.6,340l-21-19.1l24.8-24.9l-24.8-24.9l21-19.1l24.8,24.9
	l24.8-24.9L414.1,269.1z M85.9,255.7v86.1h85.9v-86.1L85.9,255.7L85.9,255.7z M143.1,313.2h-28.6v-28.7h28.6V313.2z M401.8,113.1
	V94.9c0-25.9-20.1-46.9-44.9-46.9S312,69.1,312,94.9V113H188V94.9C188,69,167.9,48,143.1,48S98.2,69.1,98.2,94.9V113H20v339h460
	V113.1H401.8z M110.4,189.2c8.2,9,19.8,14,32.7,14s24.5-5,32.7-14c7.9-8.6,12.2-20.3,12.2-33v-12.4h124v12.4
	c0,12.6,4.3,24.4,12.2,33c8.2,9,19.8,14,32.7,14s24.5-5,32.7-14c7.9-8.6,12.2-20.3,12.2-33v-12.4h47.6v277.5H50.6V143.8h47.6v12.4
	C98.2,168.8,102.6,180.5,110.4,189.2z M371.1,154.3c0,7-5.3,14.3-14.3,14.3c-8.4,0-12.4-4.6-12.4-14.3V94.9
	c0-6.9,3.2-14.3,12.4-14.3c8.9,0,14.3,5.4,14.3,14.3V154.3z M128.9,154.3V94.9c0-3.4,1-14.3,14.3-14.3c11.5,0,12.4,11,12.4,14.3
	v59.3c0,7-5.3,14.3-14.3,14.3C132.1,168.6,128.9,161.2,128.9,154.3z M206.1,255.7v86.1H292v-86.1L206.1,255.7L206.1,255.7z
	 M265.3,313.2h-28.6v-28.7h28.6V313.2z"/>
</svg>
