<?xml version="1.0" encoding="utf-8"?>
<!-- Generator: Adobe Illustrator 19.2.1, SVG Export Plug-In . SVG Version: 6.00 Build 0)  -->
<!DOCTYPE svg PUBLIC "-//W3C//DTD SVG 1.1//EN" "http://www.w3.org/Graphics/SVG/1.1/DTD/svg11.dtd">
<svg version="1.1" id="Ebene_1" xmlns="http://www.w3.org/2000/svg" xmlns:xlink="http://www.w3.org/1999/xlink" x="0px" y="0px"
	 viewBox="0 0 500 500" style="enable-background:new 0 0 500 500;" xml:space="preserve">
<path d="M428.2,139.8h-70.9c0,0-24.9-59.4-26.8-65.2c-1.9-7.7-7.7-7.7-7.7-7.7H171.4c0,0-7.7,0-9.6,7.7
	c-1.9,9.6-26.8,65.2-26.8,65.2H66c-26.8,0-46,21.1-46,47.9V387c0,26.8,19.2,46,46,46h364.2c26.8,0,49.8-19.2,49.8-46V187.7
	C480,160.9,455.1,139.8,428.2,139.8z M317.1,362.1c-21.1,17.2-47.9,28.7-76.7,28.7s-55.6-11.5-76.7-28.7
	c-21.1-21.1-36.4-49.8-36.4-82.4c0-28.7,11.5-55.6,30.7-74.7c21.1-21.1,49.8-36.4,82.4-36.4c42.2,0,78.6,21.1,97.8,55.6
	c9.6,15.3,15.3,34.5,15.3,55.6C355.4,312.3,340.1,341,317.1,362.1z M426.3,210.7c-11.5,0-21.1-9.6-21.1-21.1s9.6-21.1,21.1-21.1
	s21.1,9.6,21.1,21.1C445.5,201.1,435.9,210.7,426.3,210.7z M242.3,216.5c-17.2,0-32.6,7.7-44.1,19.2S179,262.5,179,279.8
	c0,21.1,9.6,38.3,24.9,51.7c11.5,7.7,24.9,11.5,38.3,11.5c15.3,0,30.7-7.7,42.2-15.3c13.4-11.5,21.1-28.7,21.1-47.9
	c0-15.3-3.8-26.8-11.5-38.3C280.7,226,261.5,216.5,242.3,216.5z"/>
</svg>
