<?xml version="1.0" encoding="utf-8"?>
<!-- Generator: Adobe Illustrator 19.2.1, SVG Export Plug-In . SVG Version: 6.00 Build 0)  -->
<!DOCTYPE svg PUBLIC "-//W3C//DTD SVG 1.1//EN" "http://www.w3.org/Graphics/SVG/1.1/DTD/svg11.dtd">
<svg version="1.1" id="Ebene_1" xmlns="http://www.w3.org/2000/svg" xmlns:xlink="http://www.w3.org/1999/xlink" x="0px" y="0px"
	 viewBox="0 0 500 500" style="enable-background:new 0 0 500 500;" xml:space="preserve">
<path d="M342.1,278.6c0,11.4-9.3,20.7-20.7,20.7s-20.7-9.3-20.7-20.7s9.3-20.7,20.7-20.7C333.1,257.9,342.1,269,342.1,278.6z
	 M455,294.3c0,44-23.7,85.2-66.7,116.2C349,438.8,298.6,455,250,455c-49.1,0-99.7-16.2-138.8-44.5C68.5,379.6,45,338.4,45,294.3
	c0-21.4,8.1-53.3,11.4-62.3V41l19.1,11.9l0,0c3.6,1.8,13,8,43.2,28.3c23.9,16.1,50.3,34,68,46.2c42.1-10.8,87.4-10.8,128.1,0
	c17.7-12.2,44.1-30.2,68-46.2c29.5-19.8,39.1-26.1,42.9-28.1l0,0l17.9-12.8v192.1c0.3,1.5,1,4,1.8,7.1
	C448.7,252.5,455,276.8,455,294.3z M420.7,235.7V85.2c-11.4,7.7-26.7,17.9-42.8,28.6c-19.6,13-39.8,26.5-53.3,35.8l-6.5,6.5
	l-5.7-2.8c-41.6-12.4-84.7-12.4-124.9,0l-4.7,2.4l-5.4-2.7l-0.3-0.2c-18.7-13.1-48.4-33.3-72.3-49.6C95.7,97,87.5,91.4,80.7,86.8
	v149.7l-0.2,0.6c-0.1,0.4-9.8,36.8-9.8,57.3c0,35.6,20.4,69.6,57.4,95.9c34.4,24.5,80,39.1,121.9,39.1c42,0,87.9-14.6,122.7-39.1
	c37.4-26.3,58.1-60.4,58.1-95.9c0-16.4-6.4-42.7-8.8-52.6C420.8,237.1,420.7,236.6,420.7,235.7z M174.3,257.9
	c-11.4,0-20.7,9.3-20.7,20.7s9.3,20.7,20.7,20.7S195,290,195,278.6C195,269,186,257.9,174.3,257.9z M302.1,375.7
	c0,7-5.1,12.1-12.1,12.1c-19.2,0-30.9-7.4-37.4-13.6c-10.7,9.2-22.8,13.6-36.9,13.6c-7,0-12.1-5.1-12.1-12.1s5.1-12.1,12.1-12.1
	c7.3,0,12.4-2.1,16.1-4.6c-9.9-7.3-24-19.8-24-31.8c0-18.3,18.7-32.1,43.6-32.1c24.8,0,43.6,13.8,43.6,32.1
	c0,6.4-2.6,16.4-23.9,31.8c3.7,2.6,8.8,4.6,16.1,4.6C294.4,363.6,302.1,368.5,302.1,375.7z M250,322.1c-10.2,0-15.7,3.1-17.4,4.8
	c2,2.4,8,7.7,17.4,14.2c9.4-6.5,15.4-11.7,17.4-14.2C265.7,325.3,260.2,322.1,250,322.1z"/>
</svg>
