<?xml version="1.0" encoding="utf-8"?>
<!-- Generator: Adobe Illustrator 19.2.1, SVG Export Plug-In . SVG Version: 6.00 Build 0)  -->
<!DOCTYPE svg PUBLIC "-//W3C//DTD SVG 1.1//EN" "http://www.w3.org/Graphics/SVG/1.1/DTD/svg11.dtd">
<svg version="1.1" id="Ebene_1" xmlns="http://www.w3.org/2000/svg" xmlns:xlink="http://www.w3.org/1999/xlink" x="0px" y="0px"
	 viewBox="0 0 500 500" style="enable-background:new 0 0 500 500;" xml:space="preserve">
<path d="M480,424l-76.7-26.8c-24.9,15.3-55.6,23-88.2,23c-72.8,0-134.2-44.1-145.7-101.5c9.6,0,19.2-1.9,28.8-1.9
	c11.5,42.1,61.3,74.7,116.9,74.7c28.8,0,57.5-7.7,78.6-23l5.8-3.8l38.3,13.4L426.3,336l1.9-5.7c5.7-11.5,7.7-23,7.7-34.5
	c0-49.8-47.9-90-111.2-93.9c1.9-9.6,3.8-21.1,3.8-30.7c76.7,7.7,136.1,59.4,136.1,124.5c0,13.4-1.9,28.7-7.7,44.1L480,424z
	 M89,259.2c21.1,13.4,47.9,21.1,76.7,21.1c70.9,0,130.3-49.8,130.3-111.1S234.7,60,165.7,60C92.8,60,35.3,109.8,35.3,171.1
	c0,13.4,1.9,24.9,7.7,36.4l-23,74.7L89,259.2z M64.1,234.3l9.6-32.6l-1.9-5.7c-3.8-7.7-7.7-19.2-7.7-28.7
	c0-44.1,44.1-78.5,101.6-78.5s101.6,34.5,101.6,78.5s-44.1,78.5-101.6,78.5c-24.9,0-47.9-7.7-67.1-19.2l-5.8-3.8L64.1,234.3z"/>
</svg>
