<?xml version="1.0" encoding="utf-8"?>
<!-- Generator: Adobe Illustrator 19.2.1, SVG Export Plug-In . SVG Version: 6.00 Build 0)  -->
<!DOCTYPE svg PUBLIC "-//W3C//DTD SVG 1.1//EN" "http://www.w3.org/Graphics/SVG/1.1/DTD/svg11.dtd">
<svg version="1.1" id="Ebene_1" xmlns="http://www.w3.org/2000/svg" xmlns:xlink="http://www.w3.org/1999/xlink" x="0px" y="0px"
	 viewBox="0 0 500 500" style="enable-background:new 0 0 500 500;" xml:space="preserve">
<title>S_Icons_500</title>
<path d="M250,20C123,20,20,123,20,250s103,230,230,230s230-103,230-230c0.1-126.9-102.7-229.9-229.6-230C250.3,20,250.1,20,250,20z
	 M336.6,271.6h-64.9v64.9c-0.3,12-10.2,21.4-22.1,21.2c-11.6-0.2-20.9-9.6-21.2-21.2v-64.9h-64.9c-12-0.3-21.4-10.2-21.2-22.1
	c0.2-11.6,9.6-20.9,21.2-21.2h64.9v-64.9c-0.3-12,9.2-21.9,21.2-22.1c12-0.3,21.9,9.2,22.1,21.2c0,0.3,0,0.6,0,0.9v64.9h64.9
	c12,0,21.7,9.7,21.7,21.6C358.3,261.9,348.6,271.6,336.6,271.6C336.6,271.6,336.6,271.6,336.6,271.6z"/>
</svg>
