<?xml version="1.0" encoding="utf-8"?>
<!-- Generator: Adobe Illustrator 19.2.1, SVG Export Plug-In . SVG Version: 6.00 Build 0)  -->
<!DOCTYPE svg PUBLIC "-//W3C//DTD SVG 1.1//EN" "http://www.w3.org/Graphics/SVG/1.1/DTD/svg11.dtd">
<svg version="1.1" id="Ebene_1" xmlns="http://www.w3.org/2000/svg" xmlns:xlink="http://www.w3.org/1999/xlink" x="0px" y="0px"
	 viewBox="0 0 500 500" style="enable-background:new 0 0 500 500;" xml:space="preserve">
<path d="M326.8,64.1h-32.6L276.9,20h-53.7l-15.4,44.1h-34.5l-23,92h199.6L326.8,64.1z M192.4,129.2l7.7-28.7h30.7l15.4-49.8h7.7
	l15.4,49.8H300l7.7,28.7H192.4z M346,250H154v-26.8h192V250z M257.7,282.5v26.8H154v-26.8H257.7z M154,343.8h161.2v26.8H154V343.8z
	 M440,127.3v291.3c0,34.5-26.9,61.3-63.3,61.3H123.3C88.8,481.8,60,455,60,420.5V127.3c0-61.3,44.1-65.2,61.4-65.2h13.4v32.6h-11.5
	c-9.6,0-34.5,3.8-34.5,32.6v291.3c0,17.2,15.4,32.6,34.5,32.6h253.3c17.3,0,32.6-15.3,32.6-32.6V127.3c0-28.7-24.9-32.6-32.6-32.6
	h-11.5V64.1h11.5C393.9,64.1,440,66,440,127.3z"/>
</svg>
