<?xml version="1.0" encoding="utf-8"?>
<!-- Generator: Adobe Illustrator 21.0.2, SVG Export Plug-In . SVG Version: 6.00 Build 0)  -->
<!DOCTYPE svg PUBLIC "-//W3C//DTD SVG 1.1//EN" "http://www.w3.org/Graphics/SVG/1.1/DTD/svg11.dtd">
<svg version="1.1" id="Ebene_1" xmlns="http://www.w3.org/2000/svg" xmlns:xlink="http://www.w3.org/1999/xlink" x="0px" y="0px"
	 viewBox="0 0 500 500" style="enable-background:new 0 0 500 500;" xml:space="preserve">
<path d="M424.6,425.6H74.5c-30.3,0-55-24.7-55-55v-236c0-30.3,24.7-55,55-55h350.1c30.3,0,55,24.7,55,55v236
	C479.6,400.9,454.9,425.6,424.6,425.6z M74.5,109.6c-13.8,0-25,11.2-25,25v236c0,13.8,11.2,25,25,25h350.1c13.8,0,25-11.2,25-25
	v-236c0-13.8-11.2-25-25-25C424.6,109.6,74.5,109.6,74.5,109.6z M142.6,217.6h-55v68h55V217.6z M209.1,218.6h-55v68h55V218.6z
	 M275.6,218.6h-55v68h55V218.6z M342.1,218.6h-55v68h55V218.6z M408.6,218.6h-55v68h55V218.6z"/>
</svg>
