<?xml version="1.0" encoding="utf-8"?>
<!-- Generator: Adobe Illustrator 19.2.1, SVG Export Plug-In . SVG Version: 6.00 Build 0)  -->
<!DOCTYPE svg PUBLIC "-//W3C//DTD SVG 1.1//EN" "http://www.w3.org/Graphics/SVG/1.1/DTD/svg11.dtd">
<svg version="1.1" id="Ebene_1" xmlns="http://www.w3.org/2000/svg" xmlns:xlink="http://www.w3.org/1999/xlink" x="0px" y="0px"
	 viewBox="0 0 500 500" style="enable-background:new 0 0 500 500;" xml:space="preserve">
<path d="M314.5,219.7c8.9,0,18.5,7.1,18.5,18.5c0,8.9-7.1,18.5-18.5,18.5c-10.9,0-18.5-7.6-18.5-18.5
	C296,229.3,303.1,219.7,314.5,219.7z M165,238.2c0,11.4,9.6,18.5,18.5,18.5c10.9,0,18.5-7.6,18.5-18.5c0-11.4-9.6-18.5-18.5-18.5
	C172,219.7,165,229.3,165,238.2z M468,332.3c-8.9,8.9-22.3,13.6-38.6,13.6c-7.1,0-14.1-1.4-20.8-2.7c-3.2-0.2-6.2-1.8-8.1-4.4
	c-1.9-2.7-2.6-6.2-1.7-9.5c0.2-3.1,1.8-6,4.4-7.8c2.8-2,6.5-2.6,10-1.6c8,1.7,27,4.6,37.1-5.5l0.2-0.2c5.5-5,8.5-12.6,8.9-22.6
	c1.4-35.3-28.3-91.8-74-140.5l-0.1-0.1c-10.5-12-19.4-20.5-29-27.7l-0.3-0.2c-8.2-7-18-13.5-29-19.1h-1.1l-0.9-0.4
	c-6.5-2.6-12.6-5-18.4-5h-115c-6.7,0-12,1.5-15.9,4.4l-0.6,0.4c-13,7.2-23.2,13.7-33.1,21.2c-9.7,8.3-20,17.4-29.1,27.8l-0.1,0.1
	c-29.2,31.1-52.8,67-64.8,98.7c-11.5,30.2-11.6,53.7-0.2,64.5l0.1,0.1c5.5,5.5,14.5,10.4,39.8,5.4c3.3-1,6.6-0.5,9.3,1.5
	c2.1,1.5,3.6,3.9,4.7,6.9c0.1,0.2,0.1,0.3,0.2,0.5c3.1-30.6,7.6-52.3,14.5-70c0.3-3,1.9-5.8,4.4-7.6c2.7-1.9,6.2-2.6,9.5-1.7
	c3.1,0.2,6,1.8,7.8,4.4c2.1,2.9,2.6,6.6,1.6,10c-5.6,22.4-9.4,44.8-12,70.5v2.5c0,18.3,7,35.4,19.8,48.1
	c12.8,12.8,29.9,19.8,48.1,19.8c8.7,0,24.3-24.6,29.5-32.8l3.8-6.4c2.9-6.7,9.2-11.1,17.3-12c-1.2-0.3-2.4-0.9-3.6-1.9
	c-3.9-2.2-15.1-8.8-25.2-17.7c-11.5-10.2-17.4-19.7-17.4-28.2c0-20.1,20.9-34.7,49.6-34.7c27.3,0,49.6,15.6,49.6,34.7
	c0,15.4-21.4,31.8-42.4,45.8c-1.3,1.2-2.7,1.8-4,2.1c6.4,1,12.2,4.8,17,11.2l0.3,0.4l4,6.7c5.2,8.2,20.9,32.8,29.5,32.8
	c17.7,0,34.4-6.8,47.2-19c12.7-12.2,20.1-28.6,20.8-46.1c-2.7-29.6-8-54.6-13.4-77.4l-0.1-0.6v-0.6c0-4.9,2.7-10.8,8.8-12.9l0.8-0.3
	h0.8c4.9,0,10.8,2.7,12.8,8.8l0.1,0.2c6.3,22.7,10.7,48.8,13.7,82v0.5v1.5c-0.7,24.2-10.5,46.6-27.5,63.1s-39.7,25.6-63.9,25.6
	c-11.7,0-21.1-6.9-29.6-16.5c0,1.4-0.3,2.8-1,4.1c-4.8,11.1-14.6,17.8-26.2,17.8c-9.9,0-19.9-6.5-24.7-16.3l-0.2-0.3l-0.1-0.3
	c-0.3-1-0.6-2.1-0.7-3.1C213.1,425,204,431,192.9,431c-50.4,0-91.5-41.6-91.5-92.8V337c-1.5,3.3-4.6,6.1-8.3,7.3l-0.3,0.1
	c-26.6,7-48.9,3.2-62.8-10.7c-10.2-9.5-15.7-22.8-16.3-39.7c-1.5-43,29.5-103.4,80.9-157.8c9.7-11,20.8-20.7,31.5-30.1
	c10.9-9.5,22.9-16.3,37.5-23.7c10.1-5,18.7-7.3,27.9-7.3h114.8c10.6,0,20.7,3,29.4,8.7c12.5,5.6,23.6,14,34.4,22l0.3,0.2l32.8,28.7
	c34.4,36.4,60.2,76.5,72.5,112.8C488.6,285.1,485.8,315.2,468,332.3z M223.7,306.6c1.4,2.2,7.9,8.9,24.8,21.4
	c15-10.3,23.2-18.8,24.6-21.3c-0.6-4.5-10-10.7-24.5-10.8C233.2,297.1,224.5,303.6,223.7,306.6z M265,403c-2.2-3.1-4.4-6.2-6.6-9.3
	c-1.6-2.3-3.1-4.5-4.7-6.7l-0.2-0.3l-4-6.6c-0.7-1-1.7-1-2.4,0l-4.1,6.8l-1.8,2.6c-3,4.5-6,9-9.1,13.4c0.2,0,0.3,0,0.5,0
	c4.6,0,8.8,2.2,10.7,6c1,2,2.4,3.3,3.6,3.3c1.2,0,2.5-1.2,3.5-3.1c1.2-3.2,3.5-5.5,6.5-6.6C259.5,401.7,262.3,401.9,265,403z"/>
</svg>
