<?xml version="1.0" encoding="utf-8"?>
<!-- Generator: Adobe Illustrator 19.2.1, SVG Export Plug-In . SVG Version: 6.00 Build 0)  -->
<!DOCTYPE svg PUBLIC "-//W3C//DTD SVG 1.1//EN" "http://www.w3.org/Graphics/SVG/1.1/DTD/svg11.dtd">
<svg version="1.1" id="Ebene_1" xmlns="http://www.w3.org/2000/svg" xmlns:xlink="http://www.w3.org/1999/xlink" x="0px" y="0px"
	 viewBox="0 0 500 500" style="enable-background:new 0 0 500 500;" xml:space="preserve">
<path d="M250,480c-58.9,0-117.8-22.4-162.7-67.3C-2.4,323-2.4,177,87.3,87.3C177-2.4,323-2.4,412.7,87.3
	c89.7,89.7,89.7,235.7,0,325.4l0,0C367.9,457.6,308.9,480,250,480z M250,48.8c-51.6,0-103.1,19.6-142.4,58.9
	c-78.5,78.5-78.5,206.2,0,284.7c78.5,78.5,206.3,78.5,284.8,0c78.5-78.5,78.5-206.2,0-284.7C353.1,68.4,301.6,48.8,250,48.8z
	 M250,408.2c-31.7,0-57.5-25.8-57.5-57.5s25.8-57.5,57.5-57.5s57.5,25.8,57.5,57.5S281.7,408.2,250,408.2z M250,321.9
	c-15.9,0-28.8,12.9-28.8,28.8s12.9,28.8,28.8,28.8s28.8-12.9,28.8-28.8S265.8,321.9,250,321.9z M293,250.6c0,7.9-6.4,14.4-14.4,14.4
	h-57.2c-7.9,0-14.4-6.4-14.4-14.4V106.4c0-7.9,6.4-14.4,14.4-14.4h57.2c7.9,0,14.4,6.4,14.4,14.4V250.6z M236,236h28V121h-28V236z"
	/>
</svg>
