<?xml version="1.0" encoding="utf-8"?>
<!-- Generator: Adobe Illustrator 19.2.1, SVG Export Plug-In . SVG Version: 6.00 Build 0)  -->
<!DOCTYPE svg PUBLIC "-//W3C//DTD SVG 1.1//EN" "http://www.w3.org/Graphics/SVG/1.1/DTD/svg11.dtd">
<svg version="1.1" id="Ebene_1" xmlns="http://www.w3.org/2000/svg" xmlns:xlink="http://www.w3.org/1999/xlink" x="0px" y="0px"
	 viewBox="0 0 500 500" style="enable-background:new 0 0 500 500;" xml:space="preserve">
<path id="XMLID_312_" d="M308.2,480l-5.7-9.6C291,449.3,270,437.8,249,437.8s-42,13.4-53.4,32.6l-5.7,9.6l-11.5-3.8
	c-15.3-3.8-30.5-11.5-43.9-19.2l-11.5-5.8l3.8-9.6c5.7-21.1,1.9-38.3-13.4-53.7c-15.3-15.3-30.5-19.2-53.4-13.4l-11.5,3.8l-5.7-11.5
	c-7.6-15.3-13.4-30.7-19.1-44.1L20,309.4l9.5-5.8C50.5,292.2,62,271.1,62,250c0-24.9-17.2-38.3-32.4-47.9l-9.5-5.8l3.8-11.5
	c5.7-15.3,11.5-30.7,19.1-44.1l5.7-11.5l9.5,1.9c19.1,5.8,36.3-1.9,53.4-19.2c15.3-15.3,21-30.7,15.3-53.7l-3.8-11.5l11.5-5.8
	c15.3-7.7,30.5-15.3,43.9-19.2l11.5-1.9l5.7,9.6C207.1,50.7,228,62.2,249,62.2s42-13.4,53.4-32.6l5.7-9.6l11.5,3.8
	c15.3,3.8,30.5,11.5,43.9,19.2l11.5,5.8l-1.9,11.5c-5.7,21.1-1.9,38.3,13.4,53.7c17.2,17.2,34.4,24.9,53.4,19.2l11.5-1.9l5.7,11.5
	c7.6,15.3,13.4,30.7,19.1,44.1l3.8,11.5l-9.5,5.8c-15.3,7.7-32.4,24.9-32.4,47.9s17.2,38.3,32.4,47.9l7.6,7.7l-3.8,11.5
	c-5.7,15.3-11.5,30.7-19.1,44.1l-5.7,11.5L440,371c-19.1-5.8-36.3,1.9-53.4,19.2c-15.3,15.3-19.1,30.7-13.4,53.7l1.9,11.5l-11.5,3.8
	c-15.3,7.7-30.5,13.4-43.9,19.2L308.2,480z M157.4,435.9c7.6,1.9,11.5,5.7,19.1,7.7c17.2-24.9,43.9-38.3,72.5-38.3
	s53.4,15.3,72.5,38.3c7.6-1.9,13.4-5.8,19.1-7.7c-3.8-26.8,3.8-51.8,24.8-70.9c21-21.1,43.9-30.7,70.6-28.8
	c1.9-7.7,5.7-11.5,7.6-19.2c-24.8-17.2-38.2-42.2-38.2-67.1s13.4-49.8,38.2-67.1c-1.9-7.7-5.7-13.4-7.6-19.2
	c-24.8,1.9-47.7-7.7-70.6-28.8c-19.1-19.2-26.7-44.1-24.8-70.9c-5.7-1.9-11.5-3.8-17.2-7.7c-21,23-47.7,38.3-74.4,38.3
	s-53.4-15.3-72.5-38.3c-7.6,1.9-13.4,5.7-19.1,7.7c3.8,26.8-3.8,51.8-24.8,72.8s-43.9,30.7-68.7,28.8c-1.9,7.7-5.7,11.5-7.6,19.2
	c24.8,17.2,38.2,42.2,38.2,67.1c0,26.8-15.3,53.7-38.2,72.8c1.9,7.7,5.7,13.4,7.6,19.2c26.7-3.8,51.5,3.8,70.6,24.9
	C153.6,386.1,161.2,409.1,157.4,435.9z M249,357.3c-57.3,0-106.9-47.9-106.9-107.3S191.8,142.7,249,142.7S355.9,190.6,355.9,250
	S306.3,357.3,249,357.3z M249,173.3c-42,0-76.3,34.5-76.3,76.7s34.4,76.7,76.3,76.7s76.3-34.5,76.3-76.7S291,173.3,249,173.3z"/>
</svg>
