<?xml version="1.0" encoding="utf-8"?>
<!-- Generator: Adobe Illustrator 20.0.0, SVG Export Plug-In . SVG Version: 6.00 Build 0)  -->
<!DOCTYPE svg PUBLIC "-//W3C//DTD SVG 1.1//EN" "http://www.w3.org/Graphics/SVG/1.1/DTD/svg11.dtd">
<svg version="1.1" id="Ebene_1" xmlns="http://www.w3.org/2000/svg" xmlns:xlink="http://www.w3.org/1999/xlink" x="0px" y="0px"
	 viewBox="0 0 500 500" style="enable-background:new 0 0 500 500;" xml:space="preserve">
<path d="M469.6,247.8L280.2,58c-17.7-16-44.3-16-60.2,0L30.6,247.8c-14.2,14.2-14.2,35.5,0,49.7l7.1,7.1
	c19.5,19.5,38.9,7.1,38.9,7.1v97.6c0,23.1,24.8,40.8,46,40.8h69.1v-129c0-7.1,5.3-7.1,5.3-7.1h106c0,0,5.3,0,5.3,7.1V450h67.4
	c21.2,0,46-17.7,46-40.8v-95.8c0,0,24.8,8.9,38.9-7.1l7.1-7.1C483.8,283.3,483.8,262,469.6,247.8z"/>
</svg>
