<?xml version="1.0" encoding="utf-8"?>
<!-- Generator: Adobe Illustrator 19.2.1, SVG Export Plug-In . SVG Version: 6.00 Build 0)  -->
<!DOCTYPE svg PUBLIC "-//W3C//DTD SVG 1.1//EN" "http://www.w3.org/Graphics/SVG/1.1/DTD/svg11.dtd">
<svg version="1.1" id="Ebene_1" xmlns="http://www.w3.org/2000/svg" xmlns:xlink="http://www.w3.org/1999/xlink" x="0px" y="0px"
	 viewBox="0 0 500 500" style="enable-background:new 0 0 500 500;" xml:space="preserve">
<path d="M265.4,204v168.9c0,25.2,20.7,45.8,46,45.8h15.7v30.7H172.9v-30.7h15.7c25.4,0,46-20.5,46-45.8v-92.5
	c0-25.2-20.7-45.8-46-45.8h-15.7V204H265.4 M280.9,173.3H157.2c-8.4,0-15.2,6.8-15.2,15.1v61.8c0,8.3,6.8,15.1,15.2,15.1h31.3
	c8.4,0,15.2,6.8,15.2,15.1v92.5c0,8.3-6.8,15.1-15.2,15.1h-31.3c-8.4,0-15.2,6.8-15.2,15.1v61.8c0,8.3,6.8,15.1,15.2,15.1h185.6
	c8.4,0,15.2-6.8,15.2-15.1v-61.8c0-8.3-6.8-15.1-15.2-15.1h-31.3c-8.4,0-15.2-6.8-15.2-15.1V188.7
	C296.3,180.2,289.4,173.3,280.9,173.3L280.9,173.3z M234.6,50.7c17,0,30.9,13.8,30.9,30.7S251.6,112,234.6,112s-30.9-13.8-30.9-30.7
	S217.6,50.7,234.6,50.7 M234.6,20c-34.1,0-61.7,27.5-61.7,61.3s27.6,61.3,61.7,61.3s61.7-27.5,61.7-61.3S268.7,20,234.6,20L234.6,20
	z"/>
</svg>
