<?xml version="1.0" encoding="utf-8"?>
<!-- Generator: Adobe Illustrator 20.1.0, SVG Export Plug-In . SVG Version: 6.00 Build 0)  -->
<!DOCTYPE svg PUBLIC "-//W3C//DTD SVG 1.1//EN" "http://www.w3.org/Graphics/SVG/1.1/DTD/svg11.dtd">
<svg version="1.1" id="Ebene_1" xmlns="http://www.w3.org/2000/svg" xmlns:xlink="http://www.w3.org/1999/xlink" x="0px" y="0px"
	 viewBox="0 0 500 500" style="enable-background:new 0 0 500 500;" xml:space="preserve">
<path d="M250,20C123.2,20,20,123.2,20,250s103.2,230,230,230s230-103.2,230-230S376.8,20,250,20z M250,445.7
	c-107.9,0-195.7-87.8-195.7-195.7S142.1,54.3,250,54.3S445.7,142.1,445.7,250S357.9,445.7,250,445.7z M270,219.1l-62.2,0.1
	c-4.2,0-7.6,3.4-7.6,7.6v31.1c0,4.2,3.4,7.6,7.6,7.6h15.8c4.2,0,7.6,3.4,7.6,7.6l0.1,46.5c0,4.2-3.4,7.6-7.6,7.6h-15.8
	c-4.2,0-7.6,3.4-7.6,7.6v31.1c0,4.2,3.4,7.6,7.6,7.6l93.4-0.1c4.2,0,7.6-3.4,7.6-7.6v-31.1c0-4.2-3.4-7.6-7.6-7.6h-15.8
	c-4.2,0-7.6-3.4-7.6-7.6l-0.1-92.7C277.8,222.6,274.3,219.1,270,219.1L270,219.1z M247.6,109c-22.1,0-40,17.8-40,39.8
	s18,39.7,40,39.7s40-17.8,40-39.8S269.7,109,247.6,109L247.6,109z"/>
</svg>
