<?xml version="1.0" encoding="utf-8"?>
<!-- Generator: Adobe Illustrator 19.2.1, SVG Export Plug-In . SVG Version: 6.00 Build 0)  -->
<!DOCTYPE svg PUBLIC "-//W3C//DTD SVG 1.1//EN" "http://www.w3.org/Graphics/SVG/1.1/DTD/svg11.dtd">
<svg version="1.1" id="Ebene_1" xmlns="http://www.w3.org/2000/svg" xmlns:xlink="http://www.w3.org/1999/xlink" x="0px" y="0px"
	 viewBox="0 0 500 500" style="enable-background:new 0 0 500 500;" xml:space="preserve">
<path d="M190.6,229.7c9.4,0,16.2,6.7,16.2,16.2s-6.7,16.2-16.2,16.2c-9.4,0-16.2-6.7-16.2-16.2S182.5,229.7,190.6,229.7z
	 M322.8,229.7c9.4,0,16.2,6.7,16.2,16.2s-6.7,16.2-16.2,16.2c-9.4,0-16.2-6.7-16.2-16.2S313.4,229.7,322.8,229.7z M314.7,326.8
	c-6.7-2.7-14.8-1.3-17.5,5.4l0,0c-9.4,13.5-24.3,20.2-40.5,18.9c-16.2,1.3-31-6.7-40.5-18.9c-4-6.7-10.8-8.1-17.5-5.4
	s-8.1,10.8-5.4,17.5c13.5,21.6,37.8,35.1,64.8,33.7c25.6,1.3,49.9-10.8,64.8-33.7C324.2,337.6,321.5,329.5,314.7,326.8L314.7,326.8z
	 M440.2,206.7c-1.3,0-4,0-5.4,0c1.3-2.7,2.7-5.4,2.7-8.1c0-2.7-6.7-160.5-180.8-160.5S74.6,198.6,74.6,200c0,2.7,0,4,1.3,6.7h-2.7
	c-25.6,0-45.9,29.7-45.9,66.1s20.2,66.1,45.9,66.1c5.4,0,10.8-1.3,16.2-4C131.3,428,239.2,469.8,332.3,428
	c41.8-18.9,74.2-51.3,93.1-93.1c5.4,2.7,10.8,4,16.2,4c25.6,0,45.9-29.7,45.9-66.1S467.2,206.7,440.2,206.7z M371.4,225.6
	c-10.8-27-41.8-40.5-68.8-29.7c-13.5,5.4-24.3,16.2-29.7,29.7l-16.2-8.1l-17.5,8.1c-10.8-27-41.8-40.5-68.8-29.7
	c-13.5,5.4-24.3,16.2-29.7,29.7l-32.4-17.5c0-2.7,1.3-5.4,2.7-8.1c68.8-37.8,145.7-58,223.9-59.4c8.1,0,17.5,0,25.6,1.3
	c20.2,17.5,35.1,41.8,44.5,67.4L371.4,225.6z M348.4,245.9c0,14.8-12.1,27-25.6,27c-14.8,0-25.6-12.1-25.6-27
	c0-14.8,12.1-27,25.6-27S348.4,231,348.4,245.9z M217.6,245.9c0,14.8-12.1,27-25.6,27c-14.8,0-25.6-12.1-25.6-27
	c0-14.8,12.1-27,25.6-27S217.6,231,217.6,245.9z M440.2,311.9c-4-1.3-8.1-4-10.8-8.1c-4-5.4-12.1-6.7-18.9-2.7c-2.7,1.3-4,4-5.4,6.7
	c-27,83.6-116,128.2-198.3,101.2c-48.6-16.2-85-54-101.2-102.5c-1.3-5.4-5.4-8.1-10.8-9.4l0,0c-4,0-8.1,2.7-10.8,5.4
	c-2.7,5.4-6.7,8.1-10.8,8.1c-9.4,0-20.2-17.5-20.2-39.1s10.8-39.1,20.2-39.1c2.7,0,5.4,1.3,6.7,4c4,2.7,8.1,4,13.5,2.7
	c2.7-1.3,5.4-2.7,6.7-5.4l39.1,20.2c5.4,28.3,32.4,47.2,60.7,41.8c21.6-4,37.8-20.2,41.8-41.8l13.5-6.7l13.5,6.7
	c5.4,28.3,32.4,47.2,60.7,41.8c21.6-4,37.8-20.2,41.8-41.8l39.1-20.2c4,5.4,12.1,8.1,17.5,4l1.3-1.3c1.3-2.7,4-4,6.7-4
	c9.4,0,20.2,17.5,20.2,39.1S449.6,311.9,440.2,311.9z"/>
</svg>
