<svg id="Ebene_1" data-name="Ebene 1" xmlns="http://www.w3.org/2000/svg" viewBox="0 0 500 500"><defs><style>.cls-1{fill:none;}</style></defs><title>Artboard 7</title><g id="Icons-_New_" data-name="Icons-(New)"><g id="Medium-Icon-Set"><g id="Action"><g id="Rec-Pin-2"><rect id="Rectangle-2-_1-0_" data-name="Rectangle-2-[1-0]" class="cls-1" width="500" height="500"/><path id="Combined-Shape" d="M127.08,291.67,79.92,244.38A130.85,130.85,0,0,1,250,46.45,130.85,130.85,0,0,1,420.08,244.38l-47.16,47.29H437.5L500,479.17H0l62.5-187.5Zm41.55,41.66H92.53L57.81,437.5H442.19L407.47,333.33h-76.1L250,414.92ZM250,355.91,390.58,215A89.15,89.15,0,0,0,264.75,88.63L250,103.43l-14.75-14.8A89.15,89.15,0,0,0,109.42,215Z"/></g></g></g></g></svg>