<?xml version="1.0" encoding="utf-8"?>
<!-- Generator: Adobe Illustrator 22.1.0, SVG Export Plug-In . SVG Version: 6.00 Build 0)  -->
<svg version="1.1" id="Ebene_1" xmlns="http://www.w3.org/2000/svg" xmlns:xlink="http://www.w3.org/1999/xlink" x="0px" y="0px"
	 viewBox="0 0 500 500" style="enable-background:new 0 0 500 500;" xml:space="preserve">
<path d="M49.7,248.1v1.6c0,12.4-16.5,15.6-16.5,25.6c0,4.6,4.2,8.1,9.7,8.1c3,0,5.6-1.1,7.4-2c2.3-1.2,4.6-1.2,6,1l1.7,2.4
	c1.6,2.1,1.6,4-0.7,5.5c-3,2-8.4,4.5-15.5,4.5c-11.3,0-21.9-6.8-21.9-18.3c0-15.3,16.2-18,17.4-27.8l0.2-1.7c0.5-2,1.6-2.8,4-2.8h4
	C48.3,244.1,49.7,245.4,49.7,248.1z M49.7,231.6c0,2.6-1.5,4.1-4.2,4.1h-4c-2.7,0-4.1-1.5-4.1-4.1v-3.4c0-2.7,1.4-4.1,4.1-4.1h4
	c2.7,0,4.2,1.4,4.2,4.1V231.6z M62.7,234.5H60c-2.7,0-4.1-1.4-4.1-4.1v-1.7c0-2.6,1.4-4.1,4.2-4.1H63v-10.2c0-2.6,1.5-4.1,4.2-4.1h4
	c2.7,0,4.2,1.5,4.2,4.1v10.2h7.4c2.7,0,4.2,1.5,4.2,4.1v1.7c0,2.7-1.5,4.1-4.1,4.1h-7.5v19.3c0,7.4,4.7,8.9,8.2,9.3
	c3.1,0.3,4.2,1.3,4.2,4v3c0,2.9-1.7,4.1-5.2,4.1c-9.1,0-19.9-4.8-19.9-18.3V234.5z M91.7,211.5v-2.9c0-2.6,1.4-4.1,4.1-4.1h4.4
	c2.7,0,4.2,1.5,4.2,4.1v2.9c0,2.6-1.5,4-4.2,4h-4.4C93.1,215.5,91.7,214.1,91.7,211.5z M91.7,228.1c0-2.6,1.4-4.1,4.1-4.1h4.4
	c2.7,0,4.1,1.5,4.1,4.1v41.6c0,2.7-1.4,4.1-4.1,4.1h-4.4c-2.7,0-4.1-1.4-4.1-4.1V228.1z M135.4,222.8c14.5,0,22.6,10.1,22.6,23.7
	c0,2.1-1.9,4.2-4.4,4.2h-31c0.8,9,7.6,13.7,15.3,13.7c4.7,0,8.6-1.8,11-3.2c2.5-1.2,4.3-0.9,5.6,1.4l1.2,2c1.2,2.2,0.8,4.2-1.4,5.5
	c-3.3,2-9.3,5-17.3,5c-16.9,0-27.4-11.9-27.4-26.1C109.6,233.5,120.2,222.8,135.4,222.8z M145.4,243.2c-0.2-6.9-4.5-11-10.3-11
	c-6.5,0-11.1,4.4-12.3,11H145.4z M163.4,228.1c0-2.6,1.4-4.1,4.1-4.1h3.9c2.7,0,4.1,1.5,4.1,4.1v3c0,1.1-0.2,2.2-0.2,2.2h0.2
	c2.2-4.2,7.8-10.5,18.1-10.5c11.3,0,17.8,5.8,17.8,18.9v27.9c0,2.7-1.4,4.1-4.2,4.1h-4.3c-2.7,0-4.2-1.4-4.2-4.1v-25.4
	c0-6.1-1.6-10.1-8-10.1c-9,0-14.7,7.3-14.7,16.3v19.2c0,2.7-1.4,4.1-4.1,4.1h-4.4c-2.7,0-4.1-1.4-4.1-4.1V228.1z M242,222.8
	c14.5,0,22.6,10.1,22.6,23.7c0,2.1-1.9,4.2-4.4,4.2h-31c0.8,9,7.6,13.7,15.3,13.7c4.7,0,8.6-1.8,11-3.2c2.5-1.2,4.3-0.9,5.6,1.4
	l1.2,2c1.2,2.2,0.8,4.2-1.4,5.5c-3.3,2-9.3,5-17.3,5c-16.9,0-27.4-11.9-27.4-26.1C216.1,233.5,226.7,222.8,242,222.8z M251.9,243.2
	c-0.2-6.9-4.5-11-10.3-11c-6.5,0-11.1,4.4-12.3,11H251.9z M267.4,264.3l1.2-1.8c1.5-2,3.2-2.2,5.7-1c2.4,1.3,6.2,3.4,11.4,3.4
	c4.4,0,7.1-2,7.1-5.1c0-8.1-25.3-5.1-25.3-22.2c0-9.8,8.8-14.9,19.5-14.9c6.8,0,11.5,2.1,14.2,3.6c2.3,1.2,2.6,3.2,1.5,5.5l-1,1.8
	c-1.2,2.3-3.1,2.6-5.6,1.6c-2.2-1-5.5-2.4-9.7-2.4c-4.4,0-6.9,1.8-6.9,4.9c0,8.2,25.3,5,25.3,22c0,8.8-7.6,15.3-19.4,15.3
	c-8.2,0-13.9-3-17-5.1C266.1,268.6,265.9,266.4,267.4,264.3z M332,264.3l1.2-1.8c1.5-2,3.2-2.2,5.7-1c2.4,1.3,6.2,3.4,11.4,3.4
	c4.4,0,7.1-2,7.1-5.1c0-8.1-25.3-5.1-25.3-22.2c0-9.8,8.8-14.9,19.5-14.9c6.8,0,11.5,2.1,14.2,3.6c2.3,1.2,2.6,3.2,1.5,5.5l-1,1.8
	c-1.2,2.3-3.1,2.6-5.6,1.6c-2.2-1-5.5-2.4-9.7-2.4c-4.4,0-6.9,1.8-6.9,4.9c0,8.2,25.3,5,25.3,22c0,8.8-7.6,15.3-19.4,15.3
	c-8.2,0-13.9-3-17-5.1C330.7,268.6,330.5,266.4,332,264.3z M400.8,243h2.1v-1.2c0-6.5-4.3-8.8-9.5-8.8c-4.3,0-8.2,1.6-10.6,2.8
	c-2.5,1.1-4.4,0.7-5.6-1.7l-1-1.9c-1.2-2.2-0.8-4.2,1.6-5.5c3.3-1.7,9.1-4.1,16.7-4.1c13.2,0,21.1,7.2,21.1,19.8v27
	c0,2.7-1.4,4.1-4.2,4.1H408c-2.7,0-4.1-1.4-4.1-4.1v-2c0-1.4,0.2-2.1,0.2-2.1h-0.2c0,0-4.8,9.4-16,9.4c-9.3,0-16.9-5.9-16.9-14.9
	C371,245.4,389.4,243,400.8,243z M391.3,265.4c7.1,0,11.7-7,11.7-13.1v-1.9h-2.1c-6.4,0-17.3,1-17.3,8.4
	C383.6,262.2,386.2,265.4,391.3,265.4z M423.1,208.5c0-2.6,1.4-4.1,4.1-4.1h4.4c2.7,0,4.1,1.5,4.1,4.1v48.7c0,4.9,2.1,5.8,4,6
	c1.8,0.2,3.1,1.3,3.1,3.5v3.3c0,2.5-1.2,4.2-4.2,4.2c-6.8,0-15.5-1.8-15.5-16V208.5z M450.3,249.7v-1.6c0-12.4,16.5-15.6,16.5-25.6
	c0-4.6-4.2-8.1-9.7-8.1c-3,0-5.6,1.1-7.4,2c-2.3,1.2-4.6,1.2-6-1L442,213c-1.6-2.1-1.6-4,0.7-5.5c3-2,8.4-4.5,15.5-4.5
	c11.3,0,21.9,6.8,21.9,18.3c0,15.3-16.2,18-17.4,27.8l-0.2,1.7c-0.5,2-1.6,2.8-4,2.8h-4C451.7,253.7,450.3,252.4,450.3,249.7z
	 M450.3,266.2c0-2.6,1.5-4.1,4.2-4.1h4c2.7,0,4.1,1.5,4.1,4.1v3.4c0,2.7-1.4,4.1-4.1,4.1h-4c-2.7,0-4.2-1.4-4.2-4.1V266.2z"/>
</svg>
