<?xml version="1.0" encoding="utf-8"?>
<!-- Generator: Adobe Illustrator 21.1.0, SVG Export Plug-In . SVG Version: 6.00 Build 0)  -->
<!DOCTYPE svg PUBLIC "-//W3C//DTD SVG 1.1//EN" "http://www.w3.org/Graphics/SVG/1.1/DTD/svg11.dtd">
<svg version="1.1" id="Ebene_1" xmlns="http://www.w3.org/2000/svg" xmlns:xlink="http://www.w3.org/1999/xlink" x="0px" y="0px"
	 viewBox="0 0 500 500" style="enable-background:new 0 0 500 500;" xml:space="preserve">
<path d="M20.5,240.1c0-2.4,1.3-3.7,3.7-3.7h3.5c2.4,0,3.7,1.3,3.7,3.7v2.7c0,1-0.2,2-0.2,2h0.2c2.3-4.4,7.9-9.5,15.1-9.5
	c7,0,11.6,3.2,13.5,9.3h0.2c2.4-4.7,8.5-9.3,15.7-9.3c9.6,0,15.1,5.3,15.1,17.1v25.3c0,2.5-1.4,3.7-3.8,3.7h-3.9
	c-2.5,0-3.8-1.2-3.8-3.7v-23.1c0-5.1-1-9-6.3-9c-7.8,0-11.7,7.8-11.7,15.6v16.5c0,2.5-1.3,3.7-3.7,3.7h-4c-2.4,0-3.8-1.2-3.8-3.7
	v-23.1c0-4.9-0.7-9-6.1-9c-8.1,0-11.9,8.1-11.9,15.6v16.5c0,2.5-1.3,3.7-3.7,3.7h-4c-2.4,0-3.7-1.2-3.7-3.7L20.5,240.1L20.5,240.1z
	 M118.8,235.3c13.1,0,20.4,9.1,20.4,21.5c0,1.9-1.7,3.8-4,3.8h-28.1c0.7,8.1,6.9,12.4,13.8,12.4c4.2,0,7.8-1.6,9.9-2.9
	c2.3-1.1,3.9-0.8,5.1,1.2l1.1,1.8c1.1,2,0.7,3.8-1.3,4.9c-3,1.9-8.4,4.5-15.6,4.5c-15.3,0-24.7-10.8-24.7-23.6
	C95.4,245,105,235.3,118.8,235.3z M127.8,253.8c-0.2-6.3-4.1-10-9.3-10c-5.9,0-10,4-11.1,10H127.8z M141.8,272.9l1.1-1.6
	c1.4-1.9,2.9-2,5.1-0.9c2.2,1.1,5.6,3.1,10.3,3.1c4,0,6.4-1.8,6.4-4.6c0-7.3-22.8-4.6-22.8-20c0-8.8,7.9-13.5,17.6-13.5
	c6.1,0,10.4,1.9,12.8,3.3c2.1,1.1,2.3,2.9,1.4,4.9l-0.9,1.6c-1.1,2.1-2.8,2.4-5.1,1.4c-2-0.9-5-2.2-8.8-2.2c-4,0-6.2,1.6-6.2,4.4
	c0,7.4,22.8,4.5,22.8,19.9c0,7.9-6.9,13.9-17.5,13.9c-7.4,0-12.6-2.7-15.4-4.6C140.6,276.7,140.4,274.8,141.8,272.9z M176.3,240.6
	c-0.9-2.6,0.2-4.2,3-4.2h4.2c2.2,0,3.6,1,4.2,3.1l8.6,24.8c0.9,2.6,1.7,6.8,1.7,6.8h0.2c0,0,0.7-4.1,1.6-6.8l8.6-24.8
	c0.6-2.1,2.1-3.1,4.2-3.1h4.2c2.8,0,4,1.7,3.1,4.2L206,278.4c-0.7,2.1-2.1,3-4.2,3h-7.2c-2.2,0-3.6-0.9-4.2-3L176.3,240.6z
	 M244.5,235.3c14,0,25.4,9.8,25.4,23.6c0,13.9-11.4,23.6-25.4,23.6s-25.3-9.7-25.3-23.6C219.2,245.1,230.5,235.3,244.5,235.3z
	 M244.5,273c7.5,0,13.7-5.7,13.7-14c0-8.3-6.2-14-13.7-14s-13.6,5.7-13.6,14C230.8,267.3,237,273,244.5,273z M274.5,225.1v-2.6
	c0-2.4,1.3-3.7,3.7-3.7h4c2.4,0,3.8,1.3,3.8,3.7v2.6c0,2.4-1.4,3.6-3.8,3.6h-4C275.7,228.7,274.5,227.5,274.5,225.1z M274.5,240.1
	c0-2.4,1.3-3.7,3.7-3.7h4c2.4,0,3.7,1.3,3.7,3.7v37.6c0,2.5-1.3,3.7-3.7,3.7h-4c-2.4,0-3.7-1.2-3.7-3.7V240.1z M291.4,272.9l1.1-1.6
	c1.4-1.9,2.9-2,5.1-0.9s5.6,3.1,10.3,3.1c4,0,6.4-1.8,6.4-4.6c0-7.3-22.8-4.6-22.8-20c0-8.8,7.9-13.5,17.6-13.5
	c6.1,0,10.4,1.9,12.8,3.3c2.1,1.1,2.3,2.9,1.4,4.9l-0.9,1.6c-1.1,2.1-2.8,2.4-5.1,1.4c-2-0.9-5-2.2-8.8-2.2c-4,0-6.2,1.6-6.2,4.4
	c0,7.4,22.8,4.5,22.8,19.9c0,7.9-6.9,13.9-17.5,13.9c-7.4,0-12.6-2.7-15.4-4.6C290.2,276.7,290,274.8,291.4,272.9z M329.9,225.1
	v-2.6c0-2.4,1.3-3.7,3.7-3.7h4c2.4,0,3.8,1.3,3.8,3.7v2.6c0,2.4-1.4,3.6-3.8,3.6h-4C331.2,228.7,329.9,227.5,329.9,225.1z
	 M329.9,240.1c0-2.4,1.3-3.7,3.7-3.7h4c2.4,0,3.7,1.3,3.7,3.7v37.6c0,2.5-1.3,3.7-3.7,3.7h-4c-2.4,0-3.7-1.2-3.7-3.7V240.1z
	 M348.7,240.1c0-2.4,1.3-3.7,3.7-3.7h3.5c2.4,0,3.7,1.3,3.7,3.7v2.7c0,1-0.2,2-0.2,2h0.2c2-3.8,7-9.5,16.3-9.5
	c10.2,0,16.1,5.2,16.1,17.1v25.3c0,2.5-1.3,3.7-3.8,3.7h-3.9c-2.4,0-3.8-1.2-3.8-3.7v-23c0-5.5-1.4-9.2-7.2-9.2
	c-8.1,0-13.3,6.6-13.3,14.7v17.4c0,2.5-1.3,3.7-3.7,3.7h-4c-2.4,0-3.7-1.2-3.7-3.7L348.7,240.1L348.7,240.1z M397.1,272.9l1.1-1.6
	c1.4-1.9,2.9-2,5.1-0.9s5.6,3.1,10.3,3.1c4,0,6.4-1.8,6.4-4.6c0-7.3-22.8-4.6-22.8-20c0-8.8,7.9-13.5,17.6-13.5
	c6.1,0,10.4,1.9,12.8,3.3c2.1,1.1,2.3,2.9,1.4,4.9l-0.9,1.6c-1.1,2.1-2.8,2.4-5.1,1.4c-2-0.9-5-2.2-8.8-2.2c-4,0-6.2,1.6-6.2,4.4
	c0,7.4,22.8,4.5,22.8,19.9c0,7.9-6.9,13.9-17.5,13.9c-7.4,0-12.6-2.7-15.4-4.6C396,276.7,395.8,274.8,397.1,272.9z M436.9,275.2
	c0-1.7,0.9-2.6,2.7-2.6h2.8c1.7,0,2.7,0.9,2.7,2.6v2.9c0,1.8-1,2.7-2.7,2.7h-2.8c-1.8,0-2.7-0.9-2.7-2.7V275.2z M451.3,255.3h-1.6
	c-1.7,0-2.7-0.9-2.7-2.7v-1.1c0-1.7,0.9-2.7,2.7-2.7h1.6v-1.5c0-10.3,9.3-11.8,12.6-11.8h1c1.7,0,2.7,0.9,2.7,2.7v1.6
	c0,1.7-1,2.5-2.8,2.6c-2,0.1-5.2,0.6-5.2,5.3v1.2h4.4c1.7,0,2.7,1,2.7,2.7v1.1c0,1.8-0.9,2.7-2.7,2.7h-4.4v22.8c0,1.8-1,2.7-2.7,2.7
	H454c-1.7,0-2.7-0.9-2.7-2.7V255.3z M471,251.1c0-1.7,0.9-2.7,2.7-2.7h2.5c1.7,0,2.7,1,2.7,2.7v3c0,1.2-0.2,2.2-0.2,2.2h0.1
	c1.3-3.9,4.9-8.2,9.6-8.2c1.8,0,2.5,0.9,2.5,2.7v2.5c0,1.7-1,2.7-2.8,2.7c-6,0-8.9,5.8-8.9,11.7v10.4c0,1.8-0.9,2.7-2.7,2.7h-2.8
	c-1.7,0-2.7-0.9-2.7-2.7L471,251.1L471,251.1z"/>
</svg>
