<?xml version="1.0" encoding="utf-8"?>
<!-- Generator: Adobe Illustrator 19.2.1, SVG Export Plug-In . SVG Version: 6.00 Build 0)  -->
<!DOCTYPE svg PUBLIC "-//W3C//DTD SVG 1.1//EN" "http://www.w3.org/Graphics/SVG/1.1/DTD/svg11.dtd">
<svg version="1.1" id="Ebene_1" xmlns="http://www.w3.org/2000/svg" xmlns:xlink="http://www.w3.org/1999/xlink" x="0px" y="0px"
	 viewBox="0 0 500 500" style="enable-background:new 0 0 500 500;" xml:space="preserve">
<path d="M20,238.6c0-2.6,1.4-4,4-4h3.8c2.6,0,4,1.4,4,4v3c0,1-0.2,2.2-0.2,2.2h0.2c2.1-4.1,7.6-10.3,17.5-10.3
	c10.9,0,17.2,5.6,17.2,18.5v27.2c0,2.7-1.4,4-4.1,4h-4.2c-2.6,0-4.1-1.3-4.1-4v-24.7c0-5.8-1.6-9.9-7.8-9.9
	c-8.7,0-14.3,7.1-14.3,15.9v18.7c0,2.7-1.4,4-4,4h-4c-2.6,0-4-1.3-4-4V238.6z M97.7,233.4c14.1,0,22,9.7,22,23.1
	c0,2.1-1.9,4.1-4.3,4.1H85.2c0.7,8.7,7.4,13.3,14.8,13.3c4.5,0,8.3-1.7,10.7-3.2c2.4-1.1,4.2-0.8,5.5,1.3l1.2,1.9
	c1.2,2.2,0.7,4.1-1.4,5.3c-3.2,2-9,4.8-16.8,4.8c-16.4,0-26.6-11.6-26.6-25.3C72.6,243.9,82.9,233.4,97.7,233.4z M107.5,253.3
	c-0.2-6.8-4.4-10.8-10-10.8c-6.3,0-10.8,4.3-12,10.8H107.5z M126.2,219.6c0-2.6,1.5-4,4.1-4h4.2c2.7,0,4.1,1.4,4.1,4v17.5
	c0,2.4-0.3,4.1-0.3,4.1h0.2c0,0,4.4-7.8,15.1-7.8c13.1,0,21.9,10.4,21.9,25.2c0,15.5-9.8,25.4-22.6,25.4c-11.1,0-15.1-8.2-15.1-8.2
	h-0.2c0,0,0.2,0.7,0.2,2.1v1.5c0,2.1-1.4,3.4-4.1,3.4h-3.3c-2.6,0-4.1-1.3-4.1-4C126.2,279,126.2,219.6,126.2,219.6z M150.4,274.1
	c6.9,0,12.5-5.4,12.5-15c0-9.1-5-15.2-12.2-15.2c-6.4,0-12.5,4.6-12.5,15C138.2,266.7,142.3,274.1,150.4,274.1z M204.6,233.4
	c14.1,0,22,9.7,22,23.1c0,2.1-1.9,4.1-4.3,4.1H192c0.7,8.7,7.4,13.3,14.8,13.3c4.5,0,8.3-1.7,10.7-3.2c2.4-1.1,4.2-0.8,5.5,1.3
	l1.2,1.9c1.2,2.2,0.7,4.1-1.4,5.3c-3.2,2-9,4.8-16.8,4.8c-16.4,0-26.6-11.6-26.6-25.3C179.3,243.9,189.6,233.4,204.6,233.4z
	 M214.2,253.3c-0.2-6.8-4.4-10.8-10-10.8c-6.3,0-10.8,4.3-12,10.8H214.2z M232.9,238.6c0-2.6,1.4-4,4-4h3.8c2.6,0,4,1.4,4,4v3
	c0,1-0.2,2.2-0.2,2.2h0.2c2.1-4.1,7.6-10.3,17.5-10.3c10.9,0,17.2,5.6,17.2,18.5v27.2c0,2.7-1.4,4-4.1,4h-4.1c-2.6,0-4.1-1.3-4.1-4
	v-24.7c0-5.8-1.6-9.9-7.8-9.9c-8.7,0-14.3,7.1-14.3,15.9v18.7c0,2.7-1.4,4-4,4h-4.3c-2.6,0-4-1.3-4-4v-40.6H232.9z M313.7,253.1h2
	V252c0-6.4-4.2-8.5-9.2-8.5c-4.2,0-8,1.5-10.3,2.8c-2.4,1-4.3,0.6-5.5-1.6l-0.9-1.8c-1.2-2.2-0.7-4.1,1.6-5.3c3.2-1.6,8.8-4,16.2-4
	c12.8,0,20.5,7,20.5,19.3v26.3c0,2.7-1.4,4-4.1,4h-3.3c-2.6,0-4-1.3-4-4v-1.9c0-1.3,0.2-2.1,0.2-2.1h-0.2c0,0-4.6,9.1-15.5,9.1
	c-9,0-16.4-5.7-16.4-14.6C284.8,255.5,302.7,253.1,313.7,253.1z M304.5,275c6.9,0,11.3-6.9,11.3-12.7v-1.8h-2
	c-6.2,0-16.8,0.9-16.8,8.2C297,271.8,299.6,275,304.5,275z M337.1,238.6c0-2.6,1.4-4,4-4h3.8c2.6,0,4,1.4,4,4v3c0,1-0.2,2.2-0.2,2.2
	h0.2c2.1-4.1,7.6-10.3,17.5-10.3c10.9,0,17.2,5.6,17.2,18.5v27.2c0,2.7-1.4,4-4.1,4h-4.2c-2.6,0-4.1-1.3-4.1-4v-24.7
	c0-5.8-1.6-9.9-7.8-9.9c-8.7,0-14.3,7.1-14.3,15.9v18.7c0,2.7-1.4,4-4,4H341c-2.6,0-4-1.3-4-4L337.1,238.6L337.1,238.6z
	 M392.6,277.3c0-1.9,1-2.8,3-2.8h3.1c1.9,0,3,0.9,3,2.8v3.1c0,1.9-1,2.9-3,2.9h-3.1c-1.9,0-3-0.9-3-2.9V277.3z M421.8,247.4
	c7.9,0,10.5,5,10.5,5h0.2c0,0-0.2-0.9-0.2-2v-13.1c0-1.9,1-2.9,2.9-2.9h3.1c1.9,0,2.9,1,2.9,2.9v43c0,1.9-1,2.9-2.9,2.9h-2.6
	c-1.9,0-2.9-0.9-2.9-2.6v-1.4c0-0.6,0.2-1.2,0.2-1.2h-0.2c0,0-3.1,6-11.2,6c-9.6,0-16-7.5-16-18.4
	C405.5,254.6,412.3,247.4,421.8,247.4z M423.5,276.8c4.6,0,9-3.3,9-11c0-5.4-2.9-10.8-8.9-10.8c-4.8,0-9,3.9-9,10.9
	C414.5,272.4,418.2,276.8,423.5,276.8z M464.1,247.4c10.2,0,15.9,7,15.9,16.7c0,1.5-1.3,3-3.1,3h-21.8c0.6,6.3,5.4,9.6,10.8,9.6
	c3.3,0,6-1.2,7.7-2.2c1.8-0.8,3.1-0.6,3.9,0.9l0.8,1.4c0.8,1.6,0.6,3-1,3.8c-2.3,1.5-6.5,3.5-12.1,3.5c-11.9,0-19.2-8.3-19.2-18.4
	C446,255,453.4,247.4,464.1,247.4z M471.2,261.7c-0.2-4.9-3.2-7.8-7.2-7.8c-4.5,0-7.8,3.1-8.6,7.8H471.2z"/>
</svg>
