<?xml version="1.0" encoding="utf-8"?>
<!-- Generator: Adobe Illustrator 19.2.1, SVG Export Plug-In . SVG Version: 6.00 Build 0)  -->
<!DOCTYPE svg PUBLIC "-//W3C//DTD SVG 1.1//EN" "http://www.w3.org/Graphics/SVG/1.1/DTD/svg11.dtd">
<svg version="1.1" id="Ebene_1" xmlns="http://www.w3.org/2000/svg" xmlns:xlink="http://www.w3.org/1999/xlink" x="0px" y="0px"
	 viewBox="0 0 500 500" style="enable-background:new 0 0 500 500;" xml:space="preserve">
<path d="M446.1,115L277.7,17c-14.8-9.2-40.7-9.2-55.5,0L53.9,115C37.2,126.1,28,140.9,28,157.5v188.7c0,16.6,5.5,33.3,20.3,42.5
	l66.6,35.1V314.7l48.1,25.9v109.1l59.2,33.3c16.6,9.2,38.8,9.2,55.5,0l59.2-33.3V340.6l48.1-25.9v109.1l66.6-35.1
	c14.8-9.2,20.4-25.9,20.4-42.5V157.5C472,140.9,460.9,124.2,446.1,115z M237.1,455.3l-46.2-25.9v-86.9c0-11.1-3.7-20.3-14.8-27.7
	L122.3,287c-9.2-3.7-16.7-5.5-22.2-1.8s-9.2,9.2-9.2,16.6v77.7L65,364.7c-5.5-3.7-5.5-12.9-5.5-18.5l-1.9-175.7L235.2,274
	L237.1,455.3z M68.7,142.7l166.5-96.2v192.4L68.7,142.7z M431.3,142.7l-166.5,96.2V46.5L431.3,142.7z M442.4,346.2
	c0,5.5-3.7,16.6-7.4,18.5l-25.9,14.8v-77.7c0-7.4-3.7-14.8-9.2-16.6c-5.5-3.7-16.6-1.8-22.2,1.8l-51.8,27.7
	c-11.1,5.5-16.6,14.8-16.6,27.7v88.8l-46.3,26V274l177.6-103.6C442.4,174.2,442.4,346.2,442.4,346.2z"/>
</svg>
