<?xml version="1.0" encoding="utf-8"?>
<!-- Generator: Adobe Illustrator 19.2.1, SVG Export Plug-In . SVG Version: 6.00 Build 0)  -->
<!DOCTYPE svg PUBLIC "-//W3C//DTD SVG 1.1//EN" "http://www.w3.org/Graphics/SVG/1.1/DTD/svg11.dtd">
<svg version="1.1" id="Ebene_1" xmlns="http://www.w3.org/2000/svg" xmlns:xlink="http://www.w3.org/1999/xlink" x="0px" y="0px"
	 viewBox="0 0 500 500" style="enable-background:new 0 0 500 500;" xml:space="preserve">
<path d="M168.7,175.6c0,13.3,9.7,27.3,26.7,38.3c16.1,10.4,36.5,16.6,54.7,16.6c36.6,0,78.4-28.1,81.3-54.7v-0.4L304.5,67.6h-109
	l-26.8,107.8V175.6z M275.1,98l25.6,77.2c-12.5,15.3-31,24.4-50.7,24.9c-19.9-0.3-38.3-9.4-50.8-24.9L225,98H275.1z M127.9,219
	c13.1-7.6,21.5-18.4,23.7-30.3L173.2,67H59.1L12.4,169.3c-1.5,2.8-2.4,5.9-2.4,9.1c0,28.3,32.5,52.1,71,52.1
	C98.5,230.5,115.2,226.5,127.9,219z M136.6,98l-15.2,85.2c-1.1,6-15.4,16.7-40.1,16.7h-0.2c-16,2-31.4-5.6-39.6-19.5L78.9,98H136.6z
	 M406.7,253.2h30.5v134.7c-1.4,30.1-24.9,53.7-54.9,55.1h-79.4h-2V310.3H199.2V443h-81.3c-30-1.4-53.6-25-54.9-55V253.2h30.3v134.6
	c1.2,13.1,11.4,23.4,24.5,24.6h50.9v-104c0-22.3,6.1-28.4,28.4-28.4H303c22.5,0,28.4,5.8,28.4,28.4v104h50.9
	c13-1.2,23.3-11.5,24.5-24.6L406.7,253.2L406.7,253.2z M487.6,170.4L440.9,67.6H327l21.6,121.7c4.2,24.4,33.2,41.4,70.6,41.4
	c34.2,0,70.8-19.7,70.8-49.1C490,177.7,489.2,174,487.6,170.4z M378.9,184.4L363.4,98h57.5l38.9,83.8c-1.4,6.6-15.7,17.6-40.8,17.6
	C392.8,199.5,379.8,189.5,378.9,184.4z"/>
</svg>
