<?xml version="1.0" encoding="utf-8"?>
<!-- Generator: Adobe Illustrator 19.2.1, SVG Export Plug-In . SVG Version: 6.00 Build 0)  -->
<!DOCTYPE svg PUBLIC "-//W3C//DTD SVG 1.1//EN" "http://www.w3.org/Graphics/SVG/1.1/DTD/svg11.dtd">
<svg version="1.1" id="Ebene_1" xmlns="http://www.w3.org/2000/svg" xmlns:xlink="http://www.w3.org/1999/xlink" x="0px" y="0px"
	 viewBox="0 0 500 500" style="enable-background:new 0 0 500 500;" xml:space="preserve">
<path d="M426.3,76H73.7C43,76,20,99.1,20,129.8v240.3c0,28.8,23,51.9,53.7,51.9h352.7c28.8,0,53.7-23.1,53.7-53.8V129.8
	C480,99.1,457,76,426.3,76z M449.3,206.7v157.6c0,13.5-13.4,26.9-28.8,26.9h-345c-13.4,0-24.9-11.5-24.9-26.9V206.7H449.3z
	 M50.7,183.6v-53.8c0-13.5,9.6-23.1,24.9-23.1h346.9c13.4,0,28.8,9.6,28.8,23.1v53.8H50.7z M69.8,126H273v30.8H69.8V126z"/>
</svg>
