<?xml version="1.0" encoding="utf-8"?>
<!-- Generator: Adobe Illustrator 19.2.1, SVG Export Plug-In . SVG Version: 6.00 Build 0)  -->
<!DOCTYPE svg PUBLIC "-//W3C//DTD SVG 1.1//EN" "http://www.w3.org/Graphics/SVG/1.1/DTD/svg11.dtd">
<svg version="1.1" id="Ebene_1" xmlns="http://www.w3.org/2000/svg" xmlns:xlink="http://www.w3.org/1999/xlink" x="0px" y="0px"
	 viewBox="0 0 500 500" style="enable-background:new 0 0 500 500;" xml:space="preserve">
<path d="M399.3,208.6c17.2-19.2,26.8-42.3,26.8-65.4c0-53.9-42.1-94.2-93.9-94.2s-93.9,44.2-93.9,94.2c0,25,9.6,48.1,26.8,65.4
	c-5.7,3.8-11.5,11.5-19.2,19.2l-74.7-57.7c-7.7-5.8-19.2-13.5-30.6-13.5s-21.1,5.8-28.7,11.5l-76.6,59.6
	c-11.5,7.7-15.3,15.4-15.3,25v126.9c0,9.6,7.7,15.4,15.3,15.4H110c9.6,0,15.3-7.7,15.3-15.4V318H154v61.6c0,9.6,7.7,15.4,15.3,15.4
	h15.3c0,17.3,3.8,30.8,11.5,40.4s21.1,15.4,34.5,15.4h201.1c13.4,0,24.9-5.8,34.5-15.4c7.7-9.6,15.3-19.2,13.4-38.5
	C472,329.8,445.2,245.2,399.3,208.6z M332.2,202.9c-32.6,0-59.4-28.9-59.4-61.6s26.8-61.6,59.4-61.6s59.4,28.9,59.4,61.6
	S362.9,202.9,332.2,202.9z M297.7,229.8L297.7,229.8c13.4,5.8,26.8,5.8,36.4,5.8c11.5,0,24.9-1.9,36.4-7.7l0,0
	c32.6,17.3,69,94.2,76.6,165.4c0,5.8-1.9,23.1-28.7,23.1H246c-28.7,0-26.8-15.4-26.8-23.1C226.9,318.3,259.4,249,297.7,229.8z
	 M169.4,289.4h-55.5c-9.6,0-17.2,7.7-17.2,15.4v61.6h-46V258.7c0,0,0-3.8,1.9-5.8l76.6-61.6c5.7-5.8,15.3-5.8,23,0l78.5,61.6
	c-13.4,23.1-30.6,59.6-40.2,111.6h-5.7v-61.6C184.7,295.2,179,289.4,169.4,289.4z"/>
</svg>
