<?xml version="1.0" encoding="utf-8"?>
<!-- Generator: Adobe Illustrator 19.2.1, SVG Export Plug-In . SVG Version: 6.00 Build 0)  -->
<!DOCTYPE svg PUBLIC "-//W3C//DTD SVG 1.1//EN" "http://www.w3.org/Graphics/SVG/1.1/DTD/svg11.dtd">
<svg version="1.1" id="Ebene_1" xmlns="http://www.w3.org/2000/svg" xmlns:xlink="http://www.w3.org/1999/xlink" x="0px" y="0px"
	 viewBox="0 0 500 500" style="enable-background:new 0 0 500 500;" xml:space="preserve">
<path d="M250,20c-56.5,0-102.6,48.1-102.6,104.5c0,27.2,10.5,50.2,27.2,69v2.1c-54.4,43.9-85.8,138-92.1,213.3
	c-2.1,14.6,0,71.1,52.3,71.1H363c54.4,0,56.5-54.4,54.4-71.1c-12.6-108.7-54.4-184-92.1-213.3v-2.1c18.8-18.8,27.2-43.9,27.2-69
	C352.6,66,306.5,20,250,20z M365.2,436.1H136.9c-14.7,0-14.7-18.8-14.7-23c8.4-89.9,46.1-173.5,85.8-192.4l0,0l0,0
	c12.6,4.2,27.2,6.3,39.8,6.3c12.6,0,27.2-2.1,39.8-6.3l0,0l0,0c39.8,18.8,77.5,102.5,87.9,194.5l0,0l0,0
	C375.6,415.2,375.6,436.1,365.2,436.1z M250,187.3c-35.6,0-62.8-29.3-62.8-62.7s29.3-62.7,62.8-62.7c35.6,0,62.8,29.3,62.8,62.7
	S283.5,187.3,250,187.3z"/>
</svg>
