<svg id="Layer_1" data-name="Layer 1" xmlns="http://www.w3.org/2000/svg" viewBox="0 0 20 20"><title>phone_20x20</title><path id="_20x20-a" data-name="20x20-a" d="M8.07,11.93A14.19,14.19,0,0,1,5.92,9.17l-.8-1.34L7.55,5.4a.17.17,0,0,0,0-.23L4.43,2.05a.15.15,0,0,0-.23,0L2.69,3.55a2.37,2.37,0,0,0-.32,3,36,36,0,0,0,5,6.18,36,36,0,0,0,6.18,4.95,2.37,2.37,0,0,0,2.95-.32L18,15.8a.15.15,0,0,0,0-.23l-3.12-3.12a.17.17,0,0,0-.23,0l-2.43,2.43-1.34-.8A14.19,14.19,0,0,1,8.07,11.93Zm1.41-1.41a12.69,12.69,0,0,0,2.38,1.84L13.19,11a2.15,2.15,0,0,1,3.06,0l3.12,3.12a2.17,2.17,0,0,1,0,3.06l-1.51,1.5a4.37,4.37,0,0,1-5.44.6A39.5,39.5,0,0,1,5.9,14.1,39.5,39.5,0,0,1,.68,7.58a4.37,4.37,0,0,1,.6-5.44L2.78.63a2.17,2.17,0,0,1,3.06,0L9,3.75A2.15,2.15,0,0,1,9,6.81L7.64,8.14A12.69,12.69,0,0,0,9.48,10.52Z" transform="translate(0 0)"/></svg>