<?xml version="1.0" encoding="utf-8"?>
<!-- Generator: Adobe Illustrator 20.0.0, SVG Export Plug-In . SVG Version: 6.00 Build 0)  -->
<!DOCTYPE svg PUBLIC "-//W3C//DTD SVG 1.1//EN" "http://www.w3.org/Graphics/SVG/1.1/DTD/svg11.dtd">
<svg version="1.1" id="Ebene_1" xmlns="http://www.w3.org/2000/svg" xmlns:xlink="http://www.w3.org/1999/xlink" x="0px" y="0px"
	 viewBox="0 0 500 500" style="enable-background:new 0 0 500 500;" xml:space="preserve">
<path d="M394.5,120c-18.1,0-34.9,5.7-48.7,15.5C326.5,102.3,290.9,80,250.3,80c-40.7,0-76.4,22.4-95.7,55.8
	c-13.9-9.9-30.9-15.8-49.1-15.8C58.4,120,20,158.9,20,206.8c0,75.4,73.5,160.5,76.7,164.1l8.8,10.1l8.8-10.1
	c1.9-2.2,30-34.7,51.6-76.8c6.9,14.5,15,29.6,24.5,45.1c24.8,40.6,49.4,68.8,50.4,70l9.5,10.8l9.5-10.8c1-1.2,25.6-29.4,50.4-70
	c9.4-15.3,17.4-30.1,24.2-44.4c21.6,41.8,49.4,74,51.3,76.2l8.8,10.1l8.8-10.1c3.1-3.6,76.7-88.8,76.7-164.1
	C480,158.9,441.6,120,394.5,120z M105.5,344.6c-19-24.5-62.1-85.7-62.1-137.8c0-35,27.8-63.4,62.1-63.4c14.9,0,28.6,5.4,39.4,14.4
	c-2.5,7.8-4.2,16-4.9,24.4c-7.5-11-20.1-18.3-34.4-18.3c-22.9,0-41.5,18.6-41.5,41.5s18.6,41.5,41.5,41.5c16.1,0,30.1-9.2,37-22.6
	c2.4,13,6.1,26.6,11.3,40.8C139.5,298.6,117.6,329.1,105.5,344.6z M127.2,205.4c0,12-9.7,21.7-21.7,21.7s-21.7-9.7-21.7-21.7
	s9.7-21.7,21.7-21.7S127.2,193.4,127.2,205.4z M250.3,381.2c-24.1-30.5-85.8-115.9-85.8-188.6c0-48.3,38.5-87.5,85.8-87.5
	s85.8,39.3,85.8,87.5C336.1,265.2,274.4,350.6,250.3,381.2z M394.5,344.6c-12-15.5-33.6-45.6-47.9-78.9c5.2-14.1,9-27.7,11.4-40.7
	c7,12.9,20.8,21.8,36.5,21.8c22.9,0,41.5-18.6,41.5-41.5s-18.6-41.5-41.5-41.5c-14,0-26.4,7-33.9,17.6c-0.8-8.3-2.5-16.4-5-24
	c10.7-8.8,24.2-14,38.9-14c34.2,0,62.1,28.4,62.1,63.4C456.6,258.9,413.5,320.2,394.5,344.6z M372.8,205.4c0-12,9.7-21.7,21.7-21.7
	s21.7,9.7,21.7,21.7s-9.7,21.7-21.7,21.7C382.5,227,372.8,217.3,372.8,205.4z M250.3,138c-29.1,0-52.7,23.6-52.7,52.6
	s23.7,52.6,52.7,52.6c29.1,0,52.7-23.6,52.7-52.6S279.4,138,250.3,138z M250.3,222.1c-17.4,0-31.5-14.1-31.5-31.5
	s14.1-31.5,31.5-31.5s31.5,14.1,31.5,31.5S267.7,222.1,250.3,222.1z"/>
</svg>
