<svg id="Ebene_1" data-name="Ebene 1" xmlns="http://www.w3.org/2000/svg" viewBox="0 0 500 500"><title>Zeichenfläche 1 Kopie 38</title><path id="Combined-Shape" d="M251.34,441.67C357.2,441.67,443,355.85,443,250S357.2,58.33,251.34,58.33,59.67,144.15,59.67,250,145.49,441.67,251.34,441.67Zm0,38.33c-127,0-230-103-230-230s103-230,230-230,230,103,230,230S378.37,480,251.34,480ZM101.91,317.07a172.55,172.55,0,0,0,298.83,0,19.16,19.16,0,1,0-33.18-19.19,134.22,134.22,0,0,1-232.46,0,19.17,19.17,0,1,0-33.19,19.19ZM328,230.83a38.33,38.33,0,1,0-38.34-38.33A38.33,38.33,0,0,0,328,230.83Zm-153.34,0a38.33,38.33,0,1,0-38.33-38.33A38.34,38.34,0,0,0,174.67,230.83Z"/></svg>