<?xml version="1.0" encoding="utf-8"?>
<!-- Generator: Adobe Illustrator 19.2.1, SVG Export Plug-In . SVG Version: 6.00 Build 0)  -->
<!DOCTYPE svg PUBLIC "-//W3C//DTD SVG 1.1//EN" "http://www.w3.org/Graphics/SVG/1.1/DTD/svg11.dtd">
<svg version="1.1" id="Ebene_1" xmlns="http://www.w3.org/2000/svg" xmlns:xlink="http://www.w3.org/1999/xlink" x="0px" y="0px"
	 viewBox="0 0 500 500" style="enable-background:new 0 0 500 500;" xml:space="preserve">
<path d="M462.3,253.8c0-51-39.6-56.6-61.5-58.2h-56.1c0.2-0.6,20.8-29.8,34.6-66.5c15.8-42-20.4-100-61.6-81.3
	C306,53.1,300,66.4,298,83.9c-4.6,39.4-41.9,69.7-46.1,73c-2.1,1.6-3.8,3-4.9,3.9c-9.8,8.5-18.7,26.9-26.4,43.2l-3.2,6.6
	c-4.6,9.3-20.7,30.7-38.3,30.7c-4.3-9.1-12.6-17.2-22.6-17.2H63.2c-14.1,0-25.5,11.5-25.5,25.5v180.5c0,14.1,11.5,25.5,25.5,25.5
	h93.1c10.9,0,20.7-4.6,25.3-17.5c5.4,17.1,26.4,17.6,26.4,17.6c1.1,0,62.6,0.2,118.5,0.2c28.2,0,52.7,0,62.7-0.2
	c20.6-0.3,31.5-9.5,37-17.3c10.2-14.3,10-29.8,9.1-37.4c21.1-21.4,12-52.4,10.3-57c19.6-16.6,16.8-50.9,8-61.6
	C457.8,276.2,462.3,266.7,462.3,253.8z M388.8,426.2c-17.1,0-177.6,0-177.6,0c-6.2-0.1-8.2-2.4-9.5-4.8c-2-3.8-7.2-12.3-20.1-14.1
	V271.1c30.1-1,53.5-28.8,62.5-47.4l3.7-7.6c6.4-13.3,13.6-28.4,18.6-32.7c0.7-0.6,1.8-1.5,3.8-3c5.2-4.1,51.3-41.6,57.3-93
	c1-8.5,3.3-12.9,5.2-13.9c7.3-3.7,26.1,23.6,18.5,46.2c-11,32.7-27.5,53.9-29.6,56.6c-5.4,7.5-11.7,24.4-1.5,39.8
	c5.3,8,14.4,10.1,20.4,9.4h59.1c10.2,0,34.8,3.1,32.9,27.9c-1.2,15.9-21.1,27.1-21.1,27.1c37.2,37.6-12.5,55.5-12.5,55.5
	c37.2,30.6-7,54.9-7,54.9C408.6,393.6,406.4,426.2,388.8,426.2z M152.2,253.9v172.2H67.4V253.9H152.2z"/>
</svg>
