<?xml version="1.0" encoding="utf-8"?>
<!-- Generator: Adobe Illustrator 19.2.1, SVG Export Plug-In . SVG Version: 6.00 Build 0)  -->
<!DOCTYPE svg PUBLIC "-//W3C//DTD SVG 1.1//EN" "http://www.w3.org/Graphics/SVG/1.1/DTD/svg11.dtd">
<svg version="1.1" id="Ebene_1" xmlns="http://www.w3.org/2000/svg" xmlns:xlink="http://www.w3.org/1999/xlink" x="0px" y="0px"
	 viewBox="0 0 500 500" style="enable-background:new 0 0 500 500;" xml:space="preserve">
<path d="M250,20C123.2,20,20,123.2,20,250s103.2,230,230,230s230-103.2,230-230S376.8,20,250,20z M250,451.2
	C139,451.2,48.8,361,48.8,250S139,48.8,250,48.8S451.2,139,451.2,250S361,451.2,250,451.2z M309.9,289.6
	c7.5-11.4,14.3-24.9,14.3-39.6c0-34.7-26.2-63.7-55.2-70.4v-73.3c0-7.9-6.1-14.4-14-14.4s-14,6.4-14,14.4v73.3
	c-29,6.7-60.2,35.7-60.2,70.4c0,39.6,30.9,71.9,70.5,71.9c14.6,0,27.5-4.4,38.9-12l51.6,51.9c2.8,2.8,6.3,4.2,10,4.2
	s7.3-1.4,10.1-4.2c5.6-5.6,5.6-14.7,0-20.3L309.9,289.6z M206.9,250c0-23.8,19.3-43.1,43.1-43.1s43.1,19.3,43.1,43.1
	s-19.3,43.1-43.1,43.1S206.9,273.8,206.9,250z"/>
</svg>
